<svg width="48" height="49" viewBox="0 0 48 49" fill="none" xmlns="http://www.w3.org/2000/svg">
<g filter="url(#filter0_d)">
<path d="M21.9141 2.01789C23.0771 0.892787 24.9229 0.892786 26.0859 2.01789L28.1375 4.00261C28.8025 4.64599 29.7273 4.94646 30.6435 4.81687L33.4699 4.4171C35.0721 4.19047 36.5653 5.27537 36.8449 6.8692L37.3381 9.68077C37.498 10.5922 38.0695 11.3788 38.8869 11.8125L41.4085 13.1504C42.8379 13.9088 43.4083 15.6642 42.6976 17.118L41.444 19.6825C41.0377 20.5138 41.0377 21.4862 41.444 22.3175L42.6976 24.882C43.4083 26.3358 42.8379 28.0912 41.4085 28.8496L38.8869 30.1875C38.0695 30.6212 37.498 31.4078 37.3381 32.3192L36.8449 35.1308C36.5653 36.7246 35.0721 37.8095 33.4699 37.5829L30.6435 37.1831C29.7273 37.0535 28.8025 37.354 28.1375 37.9974L26.0859 39.9821C24.9229 41.1072 23.0771 41.1072 21.9141 39.9821L19.8625 37.9974C19.1975 37.354 18.2727 37.0535 17.3565 37.1831L14.5301 37.5829C12.9279 37.8095 11.4347 36.7246 11.1551 35.1308L10.6619 32.3192C10.502 31.4078 9.93048 30.6212 9.11307 30.1875L6.59151 28.8496C5.16209 28.0912 4.59172 26.3358 5.30236 24.882L6.55597 22.3175C6.96234 21.4862 6.96234 20.5138 6.55597 19.6825L5.30236 17.118C4.59172 15.6642 5.16209 13.9088 6.59151 13.1504L9.11307 11.8125C9.93048 11.3788 10.502 10.5922 10.6619 9.68077L11.1551 6.8692C11.4347 5.27537 12.9279 4.19047 14.5301 4.4171L17.3565 4.81687C18.2727 4.94646 19.1975 4.64599 19.8625 4.00261L21.9141 2.01789Z" fill="white"/>
</g>
<path d="M36.6699 21.6191C36.5488 21.3712 36.5488 21.087 36.6699 20.8392L37.7927 18.5423C38.4179 17.2633 37.9226 15.739 36.6651 15.0718L34.4067 13.8735C34.163 13.7442 33.9959 13.5142 33.9483 13.2426L33.5066 10.7243C33.2606 9.32223 31.9636 8.38004 30.5544 8.57943L28.023 8.93751C27.7497 8.97608 27.4795 8.88824 27.2813 8.6965L25.4438 6.9189C24.4207 5.92908 22.8178 5.92902 21.7947 6.9189L19.9571 8.69667C19.7589 8.88847 19.4887 8.97614 19.2155 8.93769L16.6841 8.5796C15.2744 8.3801 13.9779 9.32241 13.7319 10.7245L13.2902 13.2427C13.2425 13.5143 13.0755 13.7443 12.8319 13.8736L10.5734 15.0719C9.31596 15.739 8.82064 17.2635 9.44578 18.5424L10.5685 20.8393C10.6897 21.0872 10.6897 21.3714 10.5685 21.6192L9.44573 23.9161C8.82058 25.195 9.3159 26.7194 10.5734 27.3866L12.8318 28.5849C13.0755 28.7141 13.2425 28.9441 13.2902 29.2157L13.7319 31.734C13.9558 33.0104 15.0503 33.9056 16.3082 33.9054C16.4321 33.9054 16.5578 33.8967 16.6841 33.8789L19.2156 33.5208C19.4886 33.482 19.7589 33.57 19.9572 33.7618L21.7947 35.5394C22.3064 36.0344 22.9627 36.2818 23.6192 36.2817C24.2756 36.2817 24.9323 36.0342 25.4438 35.5394L27.2813 33.7618C27.4796 33.57 27.7498 33.4824 28.023 33.5208L30.5544 33.8789C31.9643 34.0783 33.2606 33.1361 33.5066 31.7339L33.9483 29.2158C33.996 28.9441 34.1631 28.7142 34.4067 28.5849L36.6651 27.3866C37.9226 26.7194 38.4179 25.195 37.7927 23.916L36.6699 21.6191ZM35.8513 25.8527L33.5928 27.051C32.8728 27.4331 32.3789 28.1127 32.2381 28.9157L31.7964 31.4339C31.7132 31.9083 31.2746 32.2269 30.7976 32.1596L28.2661 31.8015C27.4588 31.6871 26.66 31.947 26.0741 32.5137L24.2365 34.2913C23.8904 34.6261 23.3481 34.6261 23.0019 34.2913L21.1644 32.5137C20.6692 32.0346 20.0218 31.775 19.346 31.775C19.2222 31.775 19.0973 31.7837 18.9723 31.8014L16.4409 32.1595C15.9643 32.2269 15.5253 31.9082 15.4421 31.4338L15.0003 28.9156C14.8594 28.1126 14.3656 27.4329 13.6455 27.0509L11.3871 25.8526C10.9616 25.6269 10.794 25.1112 11.0055 24.6785L12.1284 22.3815C12.4863 21.6491 12.4863 20.8091 12.1284 20.0767L11.0055 17.7798C10.794 17.3471 10.9616 16.8313 11.3871 16.6056L13.6455 15.4073C14.3656 15.0252 14.8594 14.3456 15.0002 13.5426L15.4419 11.0244C15.5252 10.55 15.9637 10.2313 16.4408 10.2987L18.9722 10.6568C19.7792 10.771 20.5784 10.5113 21.1643 9.94455L23.0019 8.16696C23.3479 7.83216 23.8902 7.83216 24.2364 8.16696L26.074 9.94455C26.6599 10.5114 27.4589 10.771 28.266 10.6568L30.7975 10.2987C31.2742 10.2313 31.7131 10.55 31.7963 11.0244L32.238 13.5427C32.3789 14.3456 32.8727 15.0253 33.5928 15.4073L35.8512 16.6056C36.2767 16.8313 36.4443 17.3471 36.2328 17.7798L35.1099 20.0767C34.752 20.809 34.752 21.6491 35.1099 22.3814L36.2328 24.6784C36.4443 25.1112 36.2767 25.627 35.8513 25.8527Z" fill="#FF0000"/>
<path d="M29.9627 14.8857C29.6238 14.5467 29.074 14.5467 28.735 14.8857L17.2758 26.345C16.9367 26.684 16.9367 27.2337 17.2758 27.5728C17.4453 27.7423 17.6675 27.8271 17.8896 27.8271C18.1118 27.8271 18.334 27.7423 18.5035 27.5728L29.9627 16.1136C30.3018 15.7745 30.3018 15.2248 29.9627 14.8857Z" fill="#FF0000"/>
<path d="M20.1462 13.4158C18.3909 13.4158 16.9629 14.8438 16.9629 16.5991C16.9629 18.3543 18.3909 19.7824 20.1462 19.7824C21.9014 19.7824 23.3295 18.3543 23.3295 16.5991C23.3295 14.8438 21.9014 13.4158 20.1462 13.4158ZM20.1462 18.046C19.3483 18.046 18.6993 17.3969 18.6993 16.599C18.6993 15.8012 19.3483 15.1521 20.1462 15.1521C20.944 15.1521 21.5932 15.8012 21.5932 16.599C21.5931 17.3969 20.944 18.046 20.1462 18.046Z" fill="#FF0000"/>
<path d="M27.0915 22.6761C25.3362 22.6761 23.9082 24.1041 23.9082 25.8594C23.9082 27.6146 25.3362 29.0427 27.0915 29.0427C28.8468 29.0427 30.2748 27.6146 30.2748 25.8594C30.2748 24.1041 28.8468 22.6761 27.0915 22.6761ZM27.0915 27.3063C26.2937 27.3063 25.6445 26.6572 25.6445 25.8594C25.6445 25.0615 26.2936 24.4125 27.0915 24.4125C27.8893 24.4125 28.5384 25.0615 28.5384 25.8594C28.5384 26.6572 27.8893 27.3063 27.0915 27.3063Z" fill="#FF0000"/>
<defs>
<filter id="filter0_d" x="0.996094" y="1.17407" width="46.006" height="47.6519" filterUnits="userSpaceOnUse" color-interpolation-filters="sRGB">
<feFlood flood-opacity="0" result="BackgroundImageFix"/>
<feColorMatrix in="SourceAlpha" type="matrix" values="0 0 0 0 0 0 0 0 0 0 0 0 0 0 0 0 0 0 127 0"/>
<feOffset dy="4"/>
<feGaussianBlur stdDeviation="2"/>
<feColorMatrix type="matrix" values="0 0 0 0 0 0 0 0 0 0 0 0 0 0 0 0 0 0 0.25 0"/>
<feBlend mode="normal" in2="BackgroundImageFix" result="effect1_dropShadow"/>
<feBlend mode="normal" in="SourceGraphic" in2="effect1_dropShadow" result="shape"/>
</filter>
</defs>
</svg>
