<svg width="18" height="19" viewBox="0 0 18 19" fill="none" xmlns="http://www.w3.org/2000/svg">
<path d="M17.1667 9.90048C17.0942 9.75218 17.0942 9.58209 17.1667 9.43382L17.8386 8.05929C18.2127 7.29396 17.9163 6.38177 17.1638 5.98252L15.8123 5.26543C15.6665 5.18809 15.5665 5.05045 15.538 4.88793L15.2737 3.38096C15.1265 2.54192 14.3504 1.9781 13.5071 2.09742L11.9922 2.3117C11.8287 2.33478 11.667 2.28221 11.5484 2.16747L10.4488 1.10374C9.83657 0.511419 8.87741 0.511384 8.26518 1.10374L7.16556 2.16758C7.04691 2.28235 6.88523 2.33481 6.72176 2.3118L5.20691 2.09752C4.36333 1.97814 3.58749 2.54202 3.4403 3.38106L3.17599 4.88796C3.14745 5.05052 3.04749 5.18813 2.90172 5.2655L1.55023 5.98259C0.79775 6.38181 0.501346 7.29407 0.87544 8.05939L1.54731 9.43389C1.61979 9.58219 1.61979 9.75228 1.54731 9.90055L0.875405 11.275C0.50131 12.0404 0.797715 12.9526 1.5502 13.3518L2.90168 14.0689C3.04749 14.1462 3.14745 14.2839 3.17599 14.4464L3.4403 15.9534C3.57429 16.7172 4.22924 17.2529 4.98197 17.2528C5.0561 17.2528 5.13133 17.2476 5.20694 17.2369L6.72179 17.0226C6.88516 16.9994 7.04695 17.0521 7.16559 17.1668L8.26518 18.2306C8.57137 18.5268 8.96411 18.6748 9.35699 18.6748C9.74977 18.6748 10.1428 18.5267 10.4488 18.2306L11.5484 17.1668C11.6671 17.0521 11.8288 16.9997 11.9922 17.0226L13.5071 17.2369C14.3508 17.3562 15.1265 16.7924 15.2737 15.9533L15.538 14.4464C15.5666 14.2839 15.6665 14.1463 15.8123 14.0689L17.1638 13.3518C17.9163 12.9526 18.2127 12.0403 17.8386 11.275L17.1667 9.90048ZM16.6768 12.4339L15.3253 13.151C14.8944 13.3797 14.5989 13.7864 14.5146 14.2669L14.2503 15.7738C14.2005 16.0577 13.9381 16.2483 13.6526 16.2081L12.1378 15.9938C11.6547 15.9253 11.1766 16.0808 10.826 16.42L9.72637 17.4837C9.51927 17.684 9.19475 17.684 8.98758 17.4837L7.88799 16.4199C7.59166 16.1333 7.20426 15.9779 6.79984 15.9779C6.72574 15.9779 6.65104 15.9831 6.57623 15.9937L5.06138 16.208C4.77617 16.2483 4.5135 16.0576 4.46368 15.7738L4.19933 14.2668C4.11503 13.7863 3.81954 13.3796 3.38862 13.151L2.03713 12.4339C1.78253 12.2988 1.68225 11.9902 1.80881 11.7313L2.48072 10.3567C2.69493 9.91846 2.69493 9.4158 2.48072 8.97753L1.80881 7.603C1.68225 7.34407 1.78253 7.03545 2.03713 6.90037L3.38862 6.18329C3.8195 5.95462 4.11503 5.54794 4.19929 5.06744L4.46361 3.56051C4.51343 3.27663 4.77585 3.08592 5.06131 3.12625L6.57616 3.34053C7.05908 3.40889 7.53729 3.25348 7.88792 2.91432L8.98754 1.85059C9.19465 1.65024 9.51916 1.65024 9.72634 1.85059L10.8259 2.91432C11.1766 3.25351 11.6547 3.40889 12.1377 3.34053L13.6525 3.12625C13.9378 3.08589 14.2004 3.27663 14.2502 3.56051L14.5146 5.06748C14.5989 5.54797 14.8943 5.95469 15.3253 6.18329L16.6768 6.90037C16.9314 7.03545 17.0316 7.34407 16.9051 7.603L16.2332 8.97749C16.019 9.41573 16.019 9.91846 16.2332 10.3567L16.9051 11.7312C17.0317 11.9902 16.9314 12.2988 16.6768 12.4339Z" fill="#00950F"/>
<path d="M13.1524 5.87115C12.9495 5.66827 12.6206 5.66827 12.4177 5.87115L5.56036 12.7285C5.35748 12.9314 5.35748 13.2603 5.56036 13.4632C5.6618 13.5647 5.79477 13.6154 5.9277 13.6154C6.06063 13.6154 6.19364 13.5647 6.29504 13.4632L13.1524 6.6059C13.3553 6.40299 13.3553 6.07407 13.1524 5.87115Z" fill="#00950F"/>
<path d="M7.27894 4.99146C6.22858 4.99146 5.37402 5.84601 5.37402 6.89638C5.37402 7.94674 6.22858 8.8013 7.27894 8.8013C8.32931 8.8013 9.18386 7.94674 9.18386 6.89638C9.18386 5.84601 8.32931 4.99146 7.27894 4.99146ZM7.27894 7.76223C6.80151 7.76223 6.41309 7.37381 6.41309 6.89634C6.41309 6.4189 6.80151 6.03049 7.27894 6.03049C7.75638 6.03049 8.14483 6.4189 8.14483 6.89634C8.14479 7.37381 7.75638 7.76223 7.27894 7.76223Z" fill="#00950F"/>
<path d="M11.4342 10.533C10.3839 10.533 9.5293 11.3876 9.5293 12.4379C9.5293 13.4883 10.3839 14.3429 11.4342 14.3429C12.4846 14.3429 13.3391 13.4883 13.3391 12.4379C13.3391 11.3876 12.4846 10.533 11.4342 10.533ZM11.4342 13.3038C10.9568 13.3038 10.5683 12.9154 10.5683 12.4379C10.5683 11.9605 10.9567 11.5721 11.4342 11.5721C11.9117 11.5721 12.3001 11.9605 12.3001 12.4379C12.3001 12.9154 11.9117 13.3038 11.4342 13.3038Z" fill="#00950F"/>
</svg>
