<svg width="33" height="110" viewBox="0 0 33 110" fill="none" xmlns="http://www.w3.org/2000/svg">
<path d="M16.5 2L9.25 9.25M2 16.5L9.25 9.25M9.25 9.25L2 2L16.5 16.5" stroke="#F86464" stroke-width="3" stroke-linecap="round" stroke-linejoin="round"/>
<path d="M20.94 45.172L3 45.172L3 41.194L18.158 41.194L18.158 34.85L3 34.85L3 30.872L20.94 30.872L20.94 45.172ZM15.844 60.8067L3 60.8067L3 56.9847L13.192 56.9847L13.192 55.2687C13.192 54.8354 13.0967 54.5147 12.906 54.3067C12.7153 54.0987 12.3947 53.9687 11.944 53.9167C10.8867 53.7781 9.82067 53.6307 8.746 53.4747C7.67133 53.3361 6.77867 53.1714 6.068 52.9807C5.14933 52.7901 4.43867 52.4347 3.936 51.9147C3.45067 51.4121 3.13 50.7967 2.974 50.0687C2.80067 49.3581 2.766 48.5781 2.87 47.7287L5.704 47.3387C5.82533 47.9454 5.964 48.4221 6.12 48.7687C6.276 49.1327 6.60533 49.3927 7.108 49.5487C7.69733 49.7567 8.49467 49.9214 9.5 50.0427C10.5227 50.1814 11.58 50.2941 12.672 50.3807C13.712 50.4847 14.5007 50.8054 15.038 51.3427C15.5753 51.8974 15.844 52.7207 15.844 53.8127L15.844 60.8067ZM16.182 70.1355C16.182 71.7475 15.9567 73.0301 15.506 73.9835C15.0727 74.9541 14.3533 75.6561 13.348 76.0895C12.36 76.5228 11.0427 76.7395 9.396 76.7395C7.74933 76.7395 6.432 76.5228 5.444 76.0895C4.47333 75.6561 3.77133 74.9541 3.338 73.9835C2.90466 73.0301 2.688 71.7475 2.688 70.1355C2.688 68.5235 2.90466 67.2321 3.338 66.2615C3.77133 65.2908 4.47333 64.5888 5.444 64.1555C6.432 63.7221 7.74933 63.5055 9.396 63.5055C11.0427 63.5055 12.36 63.7221 13.348 64.1555C14.3533 64.5888 15.0727 65.2908 15.506 66.2615C15.9567 67.2321 16.182 68.5235 16.182 70.1355ZM13.4 70.1355C13.4 69.4595 13.2873 68.9308 13.062 68.5495C12.8367 68.1681 12.4293 67.8995 11.84 67.7435C11.268 67.6048 10.4533 67.5355 9.396 67.5355C8.356 67.5355 7.55 67.6048 6.978 67.7435C6.406 67.8995 6.00733 68.1681 5.782 68.5495C5.574 68.9308 5.47 69.4595 5.47 70.1355C5.47 70.8115 5.574 71.3315 5.782 71.6955C6.00733 72.0768 6.406 72.3455 6.978 72.5015C7.55 72.6575 8.356 72.7355 9.396 72.7355C10.4533 72.7355 11.268 72.6575 11.84 72.5015C12.4293 72.3455 12.8367 72.0768 13.062 71.6955C13.2873 71.3315 13.4 70.8115 13.4 70.1355ZM15.844 81.9427L10.826 84.7507L10.826 84.9847L15.844 87.7927L15.844 91.6927L9.578 87.9747L3 91.9787L3 88.0787L8.434 84.9327L8.434 84.8027L3 81.6567L3 77.7567L9.578 81.7607L15.844 78.0687L15.844 81.9427ZM16.182 99.6394C16.182 101.251 15.9567 102.534 15.506 103.487C15.0727 104.458 14.3533 105.16 13.348 105.593C12.36 106.027 11.0427 106.243 9.396 106.243C7.74933 106.243 6.432 106.027 5.444 105.593C4.47333 105.16 3.77133 104.458 3.338 103.487C2.90466 102.534 2.688 101.251 2.688 99.6394C2.688 98.0274 2.90466 96.736 3.338 95.7654C3.77133 94.7947 4.47333 94.0927 5.444 93.6594C6.432 93.226 7.74933 93.0094 9.396 93.0094C11.0427 93.0094 12.36 93.226 13.348 93.6594C14.3533 94.0927 15.0727 94.7947 15.506 95.7654C15.9567 96.736 16.182 98.0274 16.182 99.6394ZM13.4 99.6394C13.4 98.9634 13.2873 98.4347 13.062 98.0534C12.8367 97.672 12.4293 97.4034 11.84 97.2474C11.268 97.1087 10.4533 97.0394 9.396 97.0394C8.356 97.0394 7.55 97.1087 6.978 97.2474C6.406 97.4034 6.00733 97.672 5.782 98.0534C5.574 98.4347 5.47 98.9634 5.47 99.6394C5.47 100.315 5.574 100.835 5.782 101.199C6.00733 101.581 6.406 101.849 6.978 102.005C7.55 102.161 8.356 102.239 9.396 102.239C10.4533 102.239 11.268 102.161 11.84 102.005C12.4293 101.849 12.8367 101.581 13.062 101.199C13.2873 100.835 13.4 100.315 13.4 99.6394Z" fill="#F86464"/>
</svg>
