<svg width="19" height="16" viewBox="0 0 19 16" fill="none" xmlns="http://www.w3.org/2000/svg">
<path d="M18.6377 15.4074H14.2445L13.8322 14.2166C15.3133 14.1561 16.4822 12.9831 16.484 11.5556V10.0741H16.7917C17.3003 10.075 17.7133 9.6787 17.7143 9.18893C17.715 8.81211 17.4684 8.476 17.0993 8.35081V7.40741C17.0993 7.24378 16.9616 7.11111 16.7917 7.11111H15.8687V0.296296C15.8687 0.132667 15.7309 0 15.561 0H11.2537C11.0838 0 10.946 0.132667 10.946 0.296296V1.80148C9.88737 1.94863 9.10128 2.82174 9.10002 3.85185V4.44444C9.10002 4.60807 9.23777 4.74074 9.40768 4.74074H13.0997C13.2696 4.74074 13.4073 4.60807 13.4073 4.44444V3.85185C13.4061 2.82174 12.62 1.94863 11.5613 1.80148V0.592593H15.2533V7.11111H14.3303C14.1604 7.11111 14.0227 7.24378 14.0227 7.40741V8.2963H2.63902C2.12925 8.2963 1.71602 8.69426 1.71602 9.18519C1.71602 9.67611 2.12925 10.0741 2.63902 10.0741H2.94668V11.5556C2.94849 12.9831 4.11739 14.1561 5.59846 14.2166L5.18619 15.4074H0.793018C0.623109 15.4074 0.485352 15.5401 0.485352 15.7037C0.485352 15.8673 0.623109 16 0.793018 16H18.6377C18.8076 16 18.9453 15.8673 18.9453 15.7037C18.9453 15.5401 18.8076 15.4074 18.6377 15.4074ZM12.792 3.85185V4.14815H9.71535V3.85185C9.71535 3.03367 10.4041 2.37037 11.2537 2.37037C12.1033 2.37037 12.792 3.03367 12.792 3.85185ZM15.8687 7.7037H16.484V8.2963H15.8687V7.7037ZM14.638 7.7037H15.2533V8.2963H14.638V7.7037ZM2.63902 9.48148C2.46911 9.48148 2.33135 9.34881 2.33135 9.18519C2.33135 9.02156 2.46911 8.88889 2.63902 8.88889H16.7917C16.9616 8.88889 17.0993 9.02156 17.0993 9.18519C17.0993 9.34881 16.9616 9.48148 16.7917 9.48148H2.63902ZM6.41686 15.4074H5.83475L6.24518 14.2222H6.82728L6.41686 15.4074ZM7.06572 15.4074L7.47584 14.2222H11.9549L12.365 15.4074H7.06572ZM13.0138 15.4074L12.6034 14.2222H13.1855L13.5959 15.4074H13.0138ZM5.71568 13.6296C4.52682 13.6283 3.56336 12.7005 3.56202 11.5556V10.0741H15.8687V11.5556C15.8673 12.7005 14.9039 13.6283 13.715 13.6296H5.71568Z" fill="#00950F"/>
</svg>
