<svg width="18" height="15" viewBox="0 0 18 15" fill="none" xmlns="http://www.w3.org/2000/svg">
<path d="M16.9885 8.73319H16.7116V7.93324C16.7109 7.40373 16.3849 6.92483 15.881 6.71304V2.6002C15.8809 2.49421 15.8157 2.39835 15.7148 2.35595C15.8229 2.18923 15.8804 1.99677 15.881 1.80025C15.881 1.21118 15.3851 0.733643 14.7734 0.733643C14.1618 0.733643 13.6659 1.21118 13.6659 1.80025C13.667 1.98804 13.7202 2.17213 13.8199 2.33355H4.09789C4.19754 2.17213 4.2507 1.98804 4.25184 1.80025C4.25184 1.21118 3.75597 0.733643 3.1443 0.733643C2.53263 0.733643 2.03677 1.21118 2.03677 1.80025C2.03735 1.99677 2.09488 2.18923 2.2029 2.35595C2.10204 2.39835 2.03683 2.49421 2.03677 2.6002V6.71304C1.53284 6.92483 1.20684 7.40373 1.20611 7.93324V8.73319H0.929228C0.776319 8.73319 0.652344 8.85258 0.652344 8.99984V12.733C0.652344 12.8802 0.776319 12.9996 0.929228 12.9996H1.20611V14.3329C1.20611 14.4801 1.33009 14.5995 1.483 14.5995H2.59053C2.74344 14.5995 2.86742 14.4801 2.86742 14.3329V12.9996H15.0503V14.3329C15.0503 14.4801 15.1743 14.5995 15.3272 14.5995H16.4347C16.5877 14.5995 16.7116 14.4801 16.7116 14.3329V12.9996H16.9885C17.1414 12.9996 17.2654 12.8802 17.2654 12.733V8.99984C17.2654 8.85258 17.1414 8.73319 16.9885 8.73319ZM14.7734 1.26695C15.0793 1.26695 15.3272 1.5057 15.3272 1.80025C15.3272 2.0948 15.0793 2.33355 14.7734 2.33355C14.4676 2.33355 14.2197 2.0948 14.2197 1.80025C14.2197 1.5057 14.4676 1.26695 14.7734 1.26695ZM3.1443 1.26695C3.45016 1.26695 3.69807 1.5057 3.69807 1.80025C3.69807 2.0948 3.45016 2.33355 3.1443 2.33355C2.83845 2.33355 2.59053 2.0948 2.59053 1.80025C2.59053 1.5057 2.83845 1.26695 3.1443 1.26695ZM2.59053 2.86686H15.3272V6.59998H14.2125C14.3957 6.37056 14.4956 6.08947 14.4966 5.80002V5.26672C14.4957 4.53076 13.8763 3.93433 13.1121 3.93346H10.8971C10.1329 3.93433 9.51354 4.53076 9.51264 5.26672V5.80002C9.51364 6.08947 9.6135 6.37056 9.79672 6.59998H8.12102C8.30425 6.37056 8.4041 6.08947 8.4051 5.80002V5.26672C8.4042 4.53076 7.78488 3.93433 7.02068 3.93346H4.80561C4.04141 3.93433 3.42209 4.53076 3.42119 5.26672V5.80002C3.42219 6.08947 3.52204 6.37056 3.70527 6.59998H2.59053V2.86686ZM13.9428 5.26672V5.80002C13.9428 6.24183 13.5709 6.59998 13.1121 6.59998H10.8971C10.4383 6.59998 10.0664 6.24183 10.0664 5.80002V5.26672C10.0664 4.82491 10.4383 4.46676 10.8971 4.46676H13.1121C13.5709 4.46676 13.9428 4.82491 13.9428 5.26672ZM7.85134 5.26672V5.80002C7.85134 6.24183 7.47944 6.59998 7.02068 6.59998H4.80561C4.34685 6.59998 3.97496 6.24183 3.97496 5.80002V5.26672C3.97496 4.82491 4.34685 4.46676 4.80561 4.46676H7.02068C7.47944 4.46676 7.85134 4.82491 7.85134 5.26672ZM1.75988 7.93324C1.75988 7.49143 2.13177 7.13328 2.59053 7.13328H15.3272C15.786 7.13328 16.1579 7.49143 16.1579 7.93324V8.73319H1.75988V7.93324ZM2.31365 14.0662H1.75988V12.9996H2.31365V14.0662ZM16.1579 14.0662H15.6041V12.9996H16.1579V14.0662ZM16.7116 12.4663H1.20611V9.26649H16.7116V12.4663Z" fill="#00950F"/>
</svg>
