<svg width="24" height="28" viewBox="0 0 24 28" fill="none" xmlns="http://www.w3.org/2000/svg">
<path d="M19.6602 10.8444L16.1547 8.48748H16.51C16.9429 8.48748 17.2938 8.13665 17.2938 7.70376C17.2938 7.27108 16.9429 6.92004 16.51 6.92004H15.4216C16.6264 5.36667 17.2938 3.44839 17.2938 1.44173V1.43418C17.2938 1.00129 16.9429 0.650452 16.51 0.650452H7.10556C6.67288 0.650452 6.32183 1.00129 6.32183 1.43418V1.44173C6.32183 3.44818 6.98922 5.36606 8.1944 6.92004H7.10556C6.67288 6.92004 6.32183 7.27108 6.32183 7.70376C6.32183 8.13665 6.67288 8.48748 7.10556 8.48748H7.46109L3.95556 10.8444C1.47867 12.5096 0 15.2857 0 18.2702C0 20.4399 0.785765 22.5343 2.21259 24.1677C3.64227 25.8043 5.61342 26.8597 7.76254 27.1395C9.10467 27.3142 10.4564 27.4016 11.8079 27.4016C13.1594 27.4016 14.5111 27.3142 15.8533 27.1395C18.0024 26.8597 19.9735 25.8043 21.4032 24.1677C22.83 22.5343 23.6158 20.4399 23.6158 18.2702C23.6158 15.2857 22.1371 12.5096 19.6602 10.8444ZM15.6859 2.2179C15.4963 4.02434 14.6491 5.69629 13.2919 6.92004H10.3241C8.96609 5.69506 8.1195 4.02353 7.9299 2.2179H15.6859ZM15.651 25.5851C13.1008 25.917 10.515 25.9172 7.9648 25.5851C4.31762 25.1106 1.56745 21.9657 1.56745 18.2702C1.56745 15.8084 2.78712 13.5188 4.8299 12.1453L10.2705 8.48748H13.3453L18.7857 12.1453C20.8287 13.5188 22.0484 15.8084 22.0484 18.2702C22.0484 21.9657 19.298 25.1106 15.651 25.5851Z" fill="#00950F"/>
<path d="M11.8077 14.8094H13.3752C13.8078 14.8094 14.1589 14.4584 14.1589 14.0257C14.1589 13.5928 13.8078 13.242 13.3752 13.242H12.5914V12.4583C12.5914 12.0254 12.2406 11.6745 11.8077 11.6745C11.3748 11.6745 11.024 12.0254 11.024 12.4583V13.3767C10.1119 13.7002 9.45654 14.5715 9.45654 15.5932C9.45654 16.8896 10.5113 17.9441 11.8077 17.9441C12.2398 17.9441 12.5914 18.2958 12.5914 18.7279C12.5914 19.1601 12.2398 19.5116 11.8077 19.5116H10.2403C9.80738 19.5116 9.45654 19.8624 9.45654 20.2953C9.45654 20.7282 9.80738 21.079 10.2403 21.079H11.024V21.8627C11.024 22.2956 11.3748 22.6465 11.8077 22.6465C12.2406 22.6465 12.5914 22.2956 12.5914 21.8627V20.9443C13.5035 20.6206 14.1589 19.7496 14.1589 18.7279C14.1589 17.4314 13.1041 16.3767 11.8077 16.3767C11.3756 16.3767 11.024 16.0252 11.024 15.5932C11.024 15.1609 11.3754 14.8094 11.8077 14.8094Z" fill="#00950F"/>
</svg>
