<svg width="27" height="29" viewBox="0 0 27 29" fill="none" xmlns="http://www.w3.org/2000/svg">
<path d="M26.1143 18.5381C25.5659 16.8333 24.4512 15.3729 22.9491 14.4073C23.1696 13.5012 23.2829 12.5713 23.2829 11.6414C23.2829 5.22166 18.0612 0 11.6414 0C5.22166 0 0 5.22166 0 11.6414C0 17.9718 5.0786 23.1339 11.3732 23.2769C12.6846 27.3482 17.0419 29.5835 21.1132 28.278C25.1844 26.9667 27.4197 22.6093 26.1143 18.5381ZM1.19216 11.6414C1.19216 5.88331 5.87735 1.19216 11.6414 1.19216C17.4055 1.19216 22.0907 5.87735 22.0907 11.6414C22.0907 12.3746 22.0132 13.1018 21.8642 13.8171C21.4291 13.6264 20.9761 13.4714 20.5111 13.3641C20.6184 12.7978 20.678 12.2196 20.678 11.6355C20.678 6.65225 16.6247 2.60487 11.6474 2.60487C6.67014 2.60487 2.61083 6.65822 2.61083 11.6414C2.61083 16.4101 6.32441 20.3263 11.0096 20.6542C11.0096 20.7376 11.0036 20.8211 11.0036 20.9105C11.0036 21.3039 11.0334 21.6914 11.0931 22.0788C5.58527 21.7867 1.19216 17.2148 1.19216 11.6414ZM11.1407 19.462C7.04567 19.2057 3.80299 15.7961 3.80299 11.6414C3.80299 7.31986 7.31986 3.80299 11.6414 3.80299C15.963 3.80299 19.4859 7.3139 19.4859 11.6414C19.4859 12.16 19.4382 12.6786 19.3368 13.1853C19.1461 13.1734 18.9494 13.1614 18.7467 13.1614C15.0212 13.1555 11.8262 15.808 11.1407 19.462ZM24.4452 24.1293C23.2888 26.1858 21.1072 27.4555 18.7467 27.4555C15.7425 27.4614 13.1197 25.4169 12.3925 22.4961C12.2614 21.9775 12.1958 21.441 12.1958 20.9045C12.1958 20.6542 12.2077 20.4038 12.2435 20.1535V20.1475C12.625 16.8452 15.4206 14.3536 18.7467 14.3596C19.0686 14.3596 19.3905 14.3834 19.7064 14.4311C20.4992 14.5444 21.2681 14.8126 21.9655 15.206C25.1129 16.9823 26.2275 20.982 24.4452 24.1293Z" fill="#00950F"/>
<path d="M15.1881 11.8203H11.7547V7.07547C11.7547 6.74763 11.4864 6.47939 11.1586 6.47939C10.8307 6.47939 10.5625 6.74763 10.5625 7.07547V12.3985C10.5625 12.7263 10.8069 13.0124 11.1347 13.0124H15.1881C15.5219 13.0124 15.7842 12.7442 15.7842 12.4163C15.7842 12.0885 15.5159 11.8203 15.1881 11.8203Z" fill="#00950F"/>
<path d="M18.7464 18.3771C19.2829 18.3771 19.712 18.8123 19.712 19.3428C19.712 19.6706 19.9803 19.9389 20.3081 19.9389C20.636 19.9389 20.8982 19.6766 20.8982 19.3488V19.3428C20.9042 18.401 20.2902 17.5605 19.3842 17.2863V16.7975C19.3842 16.4697 19.116 16.2015 18.7881 16.2015C18.4603 16.2015 18.192 16.4697 18.192 16.7975V17.2565C17.2979 17.495 16.5767 18.3414 16.5767 19.3488C16.5826 20.5409 17.5483 21.5066 18.7404 21.5066C19.2769 21.5066 19.7061 21.9357 19.712 22.4722C19.712 23.0087 19.2829 23.4379 18.7464 23.4438C18.2099 23.4438 17.7807 23.0147 17.7748 22.4782C17.7748 22.4782 17.7748 22.4782 17.7748 22.4722C17.7748 22.1444 17.5065 21.8761 17.1787 21.8761C16.8509 21.8761 16.5767 22.1444 16.5767 22.4722C16.5767 23.4796 17.2979 24.326 18.192 24.5645V25.1367C18.192 25.4645 18.4603 25.7328 18.7881 25.7328C19.116 25.7328 19.3842 25.4645 19.3842 25.1367V24.5287C20.5227 24.171 21.1546 22.961 20.7969 21.8225C20.5167 20.9224 19.6822 20.3144 18.7404 20.3084C18.204 20.3025 17.7807 19.8673 17.7807 19.3309C17.7867 18.8063 18.2159 18.3771 18.7464 18.3771Z" fill="#00950F"/>
</svg>
