<svg width="140" height="326" viewBox="0 0 140 326" fill="none" xmlns="http://www.w3.org/2000/svg">
<path d="M15.1901 233.711C3.97483 233.711 -1.63281 228.186 -1.63281 217.135C-1.63281 214.332 -0.725695 208.889 1.08854 200.807C14.6128 142.092 29.1267 91.4583 44.6302 48.9063C48.2587 38.3507 52.6293 30.2691 57.7422 24.6615C63.8446 18.0642 73.2457 12.4566 85.9453 7.83855C98.645 3.05556 111.015 0.664069 123.055 0.664069C134.27 0.664069 139.878 4.53994 139.878 12.2917C139.878 21.1979 128.745 53.6892 106.479 109.766C83.3889 166.667 70.0295 197.674 66.401 202.786C63.1024 207.569 58.1545 212.352 51.5573 217.135C44.9601 221.918 38.2804 225.877 31.5182 229.01C24.7561 232.144 19.3134 233.711 15.1901 233.711ZM-2.6224 325.99C-8.88976 325.99 -14.0026 324.258 -17.9609 320.794C-21.9193 317.166 -23.8984 312.465 -23.8984 306.693C-23.8984 296.467 -18.4557 282.943 -7.57031 266.12C-5.59115 263.151 -3.61198 260.677 -1.63281 258.698C3.3151 253.75 9.58246 249.709 17.1693 246.576C24.7561 243.442 32.013 241.875 38.9401 241.875C45.5373 241.875 50.8151 243.277 54.7734 246.081C58.7318 248.885 60.7109 252.595 60.7109 257.214C60.7109 262.821 59.2266 269.913 56.2578 278.49C53.2891 286.901 49.7431 294.488 45.6198 301.25C43.3108 305.043 39.4349 308.754 33.9922 312.383C20.4679 321.454 8.26302 325.99 -2.6224 325.99Z" fill="#89E060" fill-opacity="0.9"/>
</svg>
