<svg width="10" height="20" viewBox="0 0 10 20" fill="none" xmlns="http://www.w3.org/2000/svg">
<path d="M6.17684 20H3.35538C2.8841 20 2.50074 19.5648 2.50074 19.0298V11.8057H0.854639C0.383364 11.8057 0 11.3704 0 10.8356V7.74002C0 7.20505 0.383364 6.76987 0.854639 6.76987H2.50074V5.21973C2.50074 3.68271 2.92591 2.37503 3.73014 1.43829C4.538 0.497284 5.66699 0 6.99505 0L9.14684 0.00396727C9.61731 0.00488281 10 0.440063 10 0.974121V3.84827C10 4.38324 9.61677 4.81842 9.14563 4.81842L7.69686 4.81903C7.25502 4.81903 7.14251 4.91959 7.11845 4.95041C7.0788 5.00153 7.03162 5.14603 7.03162 5.54504V6.76971H9.03675C9.1877 6.76971 9.33395 6.81198 9.45963 6.89163C9.73076 7.0636 9.89932 7.38876 9.89932 7.74017L9.89824 10.8357C9.89824 11.3704 9.51488 11.8056 9.04361 11.8056H7.03162V19.0298C7.03162 19.5648 6.64812 20 6.17684 20ZM3.53362 18.8275H5.9986V11.2808C5.9986 10.9236 6.25467 10.6331 6.56921 10.6331H8.86537L8.86631 7.94235H6.56908C6.25454 7.94235 5.9986 7.65182 5.9986 7.29462V5.54504C5.9986 5.08698 6.0396 4.56604 6.34419 4.1745C6.71223 3.70117 7.29225 3.64655 7.69659 3.64655L8.96712 3.64594V1.17615L6.99425 1.17249C4.85994 1.17249 3.53362 2.72339 3.53362 5.21973V7.29462C3.53362 7.65167 3.27768 7.94235 2.96314 7.94235H1.03288V10.6331H2.96314C3.27768 10.6331 3.53362 10.9236 3.53362 11.2808V18.8275ZM9.14482 1.17645H9.14496H9.14482Z" fill="white"/>
</svg>
