<svg width="18" height="18" viewBox="0 0 18 18" fill="none" xmlns="http://www.w3.org/2000/svg">
<path d="M17.2675 0H0.70193C0.314254 0 0 0.314254 0 0.70193C0 3.42156 0.804693 5.80258 2.53239 8.1951C3.61027 9.68779 5.54395 10.7868 6.52795 11.2789V15.5405C6.52795 15.8084 6.68048 16.053 6.92103 16.1709L10.4307 17.8906C10.5284 17.9385 10.6341 17.9622 10.7395 17.9622C10.8688 17.9622 10.9977 17.9265 11.111 17.8559C11.3165 17.7277 11.4415 17.5025 11.4415 17.2603V14.3674C11.4415 13.9797 11.1272 13.6655 10.7395 13.6655C10.3519 13.6655 10.0376 13.9797 10.0376 14.3674V16.1346L7.93181 15.1028V10.8376C7.93181 10.5634 7.77212 10.3143 7.52294 10.1998C6.2125 9.59767 4.51229 8.53894 3.67053 7.37325C2.27597 5.44206 1.5533 3.5285 1.42481 1.40386H16.5446C16.4161 3.52846 15.6934 5.44206 14.2989 7.37325C13.4093 8.60524 11.7352 9.68537 10.4708 10.2093C10.1127 10.3577 9.94266 10.7683 10.0911 11.1265C10.2395 11.4846 10.6501 11.6546 11.0083 11.5062C12.3497 10.9504 14.3145 9.74967 15.437 8.1951C17.1647 5.80258 17.9694 3.42156 17.9694 0.70193C17.9694 0.314254 17.6552 0 17.2675 0Z" fill="white"/>
</svg>
