<svg width="35" height="136" viewBox="0 0 35 136" fill="none" xmlns="http://www.w3.org/2000/svg">
<path d="M12.75 2L3.75 9L23.75 17.5" stroke="#00950F" stroke-width="3" stroke-linecap="round" stroke-linejoin="round"/>
<path d="M22.94 31.654L15.478 35.19L15.478 35.58L22.94 39.142L22.94 43.146L14.23 38.752L5 43.51L5 39.454L13.034 35.554L13.034 35.216L5 31.316L5 27.286L14.23 32.018L22.94 27.624L22.94 31.654ZM18.182 51.1237C18.182 52.7357 17.9567 54.0184 17.506 54.9717C17.0727 55.9424 16.3533 56.6444 15.348 57.0777C14.36 57.5111 13.0427 57.7277 11.396 57.7277C9.74933 57.7277 8.432 57.5111 7.444 57.0777C6.47333 56.6444 5.77133 55.9424 5.338 54.9717C4.90467 54.0184 4.688 52.7357 4.688 51.1237C4.688 49.5117 4.90467 48.2204 5.338 47.2497C5.77133 46.2791 6.47333 45.5771 7.444 45.1437C8.432 44.7104 9.74933 44.4937 11.396 44.4937C13.0427 44.4937 14.36 44.7104 15.348 45.1437C16.3533 45.5771 17.0727 46.2791 17.506 47.2497C17.9567 48.2204 18.182 49.5117 18.182 51.1237ZM15.4 51.1237C15.4 50.4477 15.2873 49.9191 15.062 49.5377C14.8367 49.1564 14.4293 48.8877 13.84 48.7317C13.268 48.5931 12.4533 48.5237 11.396 48.5237C10.356 48.5237 9.55 48.5931 8.978 48.7317C8.406 48.8877 8.00733 49.1564 7.782 49.5377C7.574 49.9191 7.47 50.4477 7.47 51.1237C7.47 51.7997 7.574 52.3197 7.782 52.6837C8.00733 53.0651 8.406 53.3337 8.978 53.4897C9.55 53.6457 10.356 53.7237 11.396 53.7237C12.4533 53.7237 13.268 53.6457 13.84 53.4897C14.4293 53.3337 14.8367 53.0651 15.062 52.6837C15.2873 52.3197 15.4 51.7997 15.4 51.1237ZM17.844 63.5211L15.92 63.8331C16.5787 64.3704 17.116 65.0897 17.532 65.9911C17.948 66.9097 18.156 67.8631 18.156 68.8511C18.156 70.4631 17.5667 71.6157 16.388 72.3091C15.2093 73.0197 13.5193 73.3751 11.318 73.3751C9.602 73.3751 8.25866 73.1931 7.288 72.8291C6.33466 72.4651 5.65866 71.9191 5.26 71.1911C4.86133 70.4804 4.662 69.5877 4.662 68.5131C4.662 67.7157 4.766 66.9444 4.974 66.1991C5.16466 65.4537 5.48533 64.7777 5.936 64.1711C5.48533 64.2057 5.026 64.2317 4.558 64.2491C4.09 64.2664 3.63066 64.2664 3.18 64.2491L0.059998 64.2491L0.0599982 60.4271L17.844 60.4271L17.844 63.5211ZM15.218 67.3171C15.218 66.7451 15.114 66.2251 14.906 65.7571C14.698 65.3064 14.4033 64.8037 14.022 64.2491L7.964 64.2491C7.82533 64.7517 7.69533 65.2197 7.574 65.6531C7.47 66.0864 7.418 66.5804 7.418 67.1351C7.418 67.6897 7.51333 68.1317 7.704 68.4611C7.89466 68.7904 8.26733 69.0331 8.822 69.1891C9.37666 69.3451 10.2 69.4231 11.292 69.4231C12.3493 69.4231 13.164 69.3451 13.736 69.1891C14.308 69.0504 14.698 68.8251 14.906 68.5131C15.114 68.2184 15.218 67.8197 15.218 67.3171ZM18.182 82.1511C18.182 83.7631 17.9567 85.0457 17.506 85.9991C17.0727 86.9697 16.3533 87.6717 15.348 88.1051C14.36 88.5384 13.0427 88.7551 11.396 88.7551C9.74933 88.7551 8.432 88.5384 7.444 88.1051C6.47333 87.6717 5.77133 86.9697 5.338 85.9991C4.90466 85.0457 4.688 83.7631 4.688 82.1511C4.688 80.5391 4.90466 79.2477 5.338 78.2771C5.77133 77.3064 6.47333 76.6044 7.444 76.1711C8.432 75.7377 9.74933 75.5211 11.396 75.5211C13.0427 75.5211 14.36 75.7377 15.348 76.1711C16.3533 76.6044 17.0727 77.3064 17.506 78.2771C17.9567 79.2477 18.182 80.5391 18.182 82.1511ZM15.4 82.1511C15.4 81.4751 15.2873 80.9464 15.062 80.5651C14.8367 80.1837 14.4293 79.9151 13.84 79.7591C13.268 79.6204 12.4533 79.5511 11.396 79.5511C10.356 79.5511 9.55 79.6204 8.978 79.7591C8.406 79.9151 8.00733 80.1837 7.782 80.5651C7.574 80.9464 7.47 81.4751 7.47 82.1511C7.47 82.8271 7.574 83.3471 7.782 83.7111C8.00733 84.0924 8.406 84.3611 8.978 84.5171C9.55 84.6731 10.356 84.7511 11.396 84.7511C12.4533 84.7511 13.268 84.6731 13.84 84.5171C14.4293 84.3611 14.8367 84.0924 15.062 83.7111C15.2873 83.3471 15.4 82.8271 15.4 82.1511ZM17.844 95.1464L7.652 95.1464L7.652 99.0204L17.844 99.0204L17.844 102.4L7.652 102.4L7.652 106.274L17.844 106.274L17.844 109.966L5 109.966L5 91.4544L17.844 91.4544L17.844 95.1464ZM18.182 119.298C18.182 120.91 17.9567 122.192 17.506 123.146C17.0727 124.116 16.3533 124.818 15.348 125.252C14.36 125.685 13.0427 125.902 11.396 125.902C9.74933 125.902 8.432 125.685 7.444 125.252C6.47333 124.818 5.77133 124.116 5.338 123.146C4.90466 122.192 4.688 120.91 4.688 119.298C4.688 117.686 4.90466 116.394 5.338 115.424C5.77133 114.453 6.47333 113.751 7.444 113.318C8.432 112.884 9.74933 112.668 11.396 112.668C13.0427 112.668 14.36 112.884 15.348 113.318C16.3533 113.751 17.0727 114.453 17.506 115.424C17.9567 116.394 18.182 117.686 18.182 119.298ZM15.4 119.298C15.4 118.622 15.2873 118.093 15.062 117.712C14.8367 117.33 14.4293 117.062 13.84 116.906C13.268 116.767 12.4533 116.698 11.396 116.698C10.356 116.698 9.55 116.767 8.978 116.906C8.406 117.062 8.00733 117.33 7.782 117.712C7.574 118.093 7.47 118.622 7.47 119.298C7.47 119.974 7.574 120.494 7.782 120.858C8.00733 121.239 8.406 121.508 8.978 121.664C9.55 121.82 10.356 121.898 11.396 121.898C12.4533 121.898 13.268 121.82 13.84 121.664C14.4293 121.508 14.8367 121.239 15.062 120.858C15.2873 120.494 15.4 119.974 15.4 119.298Z" fill="#00950F"/>
</svg>
