<svg width="25" height="26" viewBox="0 0 25 26" fill="none" xmlns="http://www.w3.org/2000/svg">
<path d="M23.5587 17.3875C24.0708 16.7344 24.3163 16.0342 24.285 15.3132C24.2536 14.519 23.8984 13.8973 23.6058 13.5159C23.9454 12.6694 24.076 11.3371 22.9422 10.3026C22.1115 9.545 20.7008 9.20538 18.7467 9.29943C17.3725 9.36213 16.2231 9.61814 16.1761 9.62859H16.1708C15.9096 9.67562 15.6327 9.73309 15.3505 9.79579C15.3296 9.4614 15.3871 8.63065 16.0036 6.76016C16.7351 4.53439 16.6933 2.83109 15.8678 1.69208C15.0005 0.495597 13.6159 0.40155 13.2084 0.40155C12.8165 0.40155 12.456 0.56352 12.2 0.861335C11.62 1.53534 11.6879 2.77885 11.7611 3.35358C11.0714 5.20317 9.13822 9.73831 7.50285 10.9975C7.4715 11.0184 7.44538 11.0445 7.41925 11.0706C6.93857 11.5775 6.61463 12.1261 6.39519 12.6067C6.08692 12.4395 5.73686 12.3455 5.36067 12.3455H2.17353C0.971818 12.3455 0 13.3225 0 14.519V23.0094C0 24.2111 0.977043 25.1829 2.17353 25.1829H5.36067C5.82568 25.1829 6.25934 25.0366 6.61463 24.7858L7.84246 24.9321C8.03056 24.9582 11.3744 25.3814 14.8072 25.3135C15.4289 25.3605 16.0141 25.3867 16.5575 25.3867C17.4927 25.3867 18.3078 25.3135 18.987 25.1672C20.5858 24.8276 21.6778 24.1484 22.2316 23.1504C22.6548 22.3876 22.6548 21.63 22.5869 21.1493C23.6267 20.2089 23.8095 19.1691 23.773 18.4376C23.7521 18.0144 23.658 17.6539 23.5587 17.3875ZM2.17353 23.7722C1.75032 23.7722 1.4107 23.4274 1.4107 23.0094V14.5138C1.4107 14.0906 1.75554 13.751 2.17353 13.751H5.36067C5.78388 13.751 6.1235 14.0958 6.1235 14.5138V23.0041C6.1235 23.4274 5.77866 23.767 5.36067 23.767H2.17353V23.7722ZM22.2212 16.7762C22.0017 17.006 21.9599 17.3561 22.1271 17.6278C22.1271 17.633 22.3414 17.9988 22.3675 18.5003C22.4041 19.1848 22.0749 19.7909 21.3852 20.3081C21.1396 20.4962 21.0404 20.8202 21.1449 21.1128C21.1449 21.118 21.3695 21.8077 21.0038 22.4608C20.6537 23.0877 19.8752 23.5371 18.6944 23.7879C17.7487 23.9916 16.4634 24.0282 14.8855 23.9028C14.8646 23.9028 14.8385 23.9028 14.8124 23.9028C11.4528 23.976 8.05668 23.5371 8.02011 23.5319H8.01488L7.48718 23.4692C7.51852 23.3229 7.5342 23.1661 7.5342 23.0094V14.5138C7.5342 14.2891 7.49763 14.0697 7.43493 13.8659C7.52897 13.5159 7.79022 12.7374 8.40674 12.0738C10.7527 10.2138 13.0464 3.93876 13.1457 3.66707C13.1875 3.55735 13.1979 3.43717 13.177 3.317C13.0882 2.73182 13.1195 2.01602 13.2449 1.8018C13.5218 1.80703 14.269 1.8854 14.7183 2.50715C15.2513 3.24386 15.2304 4.56051 14.6556 6.3056C13.7779 8.96504 13.7047 10.3653 14.3996 10.9818C14.7445 11.2901 15.2042 11.3058 15.5386 11.1856C15.8573 11.1124 16.1604 11.0497 16.4478 11.0027C16.4687 10.9975 16.4948 10.9923 16.5157 10.987C18.1197 10.637 20.9934 10.4228 21.9913 11.3319C22.8377 12.1052 22.2369 13.1292 22.1689 13.2389C21.9756 13.5315 22.0331 13.913 22.2943 14.1481C22.2996 14.1533 22.8482 14.6705 22.8743 15.3655C22.8952 15.8305 22.6757 16.3059 22.2212 16.7762Z" fill="#00950F"/>
</svg>
