<svg width="198" height="69" viewBox="0 0 198 69" fill="none" xmlns="http://www.w3.org/2000/svg">
<rect y="55" width="197" height="14" fill="#682F13"/>
<path d="M6.87646 46.8727V21.4472L17.9988 10.7403L28.8493 21.1806V39.8641H35.7258V18.2526L31.2081 13.7862V4.07918H25.8188V8.71477L17.9988 1.1922L0 18.5244V46.8727L0.000402583 52.8057H198V46.8727H6.87646Z" fill="#D37F00" fill-opacity="0.9"/>
<path d="M16.8298 27.661H14.0137V33.2932H16.8298V27.661Z" fill="#D37F00" fill-opacity="0.9"/>
<path d="M13.0749 27.661H10.2588V33.2932H13.0749V27.661Z" fill="#D37F00" fill-opacity="0.9"/>
<path d="M16.8298 34.2319H14.0137V39.8642H16.8298V34.2319Z" fill="#D37F00" fill-opacity="0.9"/>
<path d="M13.0749 34.2319H10.2588V39.8642H13.0749V34.2319Z" fill="#D37F00" fill-opacity="0.9"/>
<path d="M25.278 27.661H22.4619V33.2932H25.278V27.661Z" fill="#D37F00" fill-opacity="0.9"/>
<path d="M21.5231 27.661H18.707V33.2932H21.5231V27.661Z" fill="#D37F00" fill-opacity="0.9"/>
<path d="M25.278 34.2319H22.4619V39.8642H25.278V34.2319Z" fill="#D37F00" fill-opacity="0.9"/>
<path d="M21.5231 34.2319H18.707V39.8642H21.5231V34.2319Z" fill="#D37F00" fill-opacity="0.9"/>
<path d="M49.099 4.3642H49.6936C51.1206 4.3642 52.2274 4.70265 52.9958 5.37042C53.755 6.02903 54.1392 6.94378 54.1392 8.1238C54.1392 8.819 53.938 9.44103 53.5264 9.98988C53.133 10.5296 52.6025 10.8863 51.9347 11.0693C52.5933 11.179 53.1696 11.5358 53.6819 12.1487C54.1667 12.7524 54.4137 13.5025 54.4137 14.4081C54.4137 15.1307 54.2399 15.7894 53.8831 16.3931C53.5264 17.006 53.0141 17.5091 52.328 17.8841C51.6328 18.25 50.7272 18.433 49.6112 18.433H48.5136C47.3701 18.4055 46.3273 18.1311 45.3851 17.5914C44.4155 17.0334 43.7477 16.2467 43.3818 15.2405L45.5498 13.8044C45.9157 14.4904 46.3731 14.9935 46.9036 15.3228C47.4524 15.6521 48.0196 15.8168 48.5959 15.8168H49.3277C49.9588 15.8168 50.4437 15.6704 50.7821 15.3777C51.1389 15.085 51.3127 14.6642 51.3127 14.1154C51.3127 13.5574 51.1389 13.1457 50.7821 12.8713C50.4254 12.5969 49.9406 12.4597 49.3094 12.4597H46.9859V9.98073H49.4832C49.9589 9.98073 50.3247 9.84352 50.6083 9.5691C50.8827 9.29467 51.02 8.92877 51.02 8.48055C51.02 8.00488 50.8919 7.63899 50.6266 7.37371C50.3613 7.10843 49.9863 6.98037 49.4832 6.98037H48.916C48.1385 7.00781 47.4707 7.19076 46.9127 7.53836C46.373 7.86767 46.0437 8.18783 45.9248 8.49884L43.7569 6.88889C44.1136 6.23028 44.6442 5.68143 45.3668 5.2332C46.3639 4.65692 47.5348 4.3642 48.8886 4.3642H49.099Z" fill="#682F13"/>
<path d="M59.7189 15.2041L58.6944 18.2685H55.6025L60.4415 4.38263H63.881L68.7383 18.2685H65.6098L64.5853 15.2041H59.7189ZM62.143 7.9044L60.4873 12.8623H63.8078L62.143 7.9044Z" fill="#682F13"/>
<path d="M73.2768 18.2685H70.3496V4.38263H78.6921V6.9988H73.2768V18.2685Z" fill="#682F13"/>
<path d="M95.1663 11.3805C95.1663 13.3746 94.462 15.076 93.0441 16.4939C91.6262 17.9117 89.9157 18.6161 87.9124 18.6161C85.9182 18.6161 84.2168 17.9117 82.799 16.4939C81.3811 15.076 80.6768 13.3746 80.6768 11.3805C80.6768 9.37716 81.3811 7.66659 82.799 6.24873C84.2168 4.83088 85.9182 4.12653 87.9124 4.12653C89.9157 4.12653 91.6262 4.83088 93.0441 6.24873C94.462 7.66659 95.1663 9.37716 95.1663 11.3805ZM91.6262 9.25824C91.3152 8.59048 90.8487 8.04163 90.2267 7.63C89.5955 7.20007 88.818 6.97138 87.8849 6.94394C86.9702 6.94394 86.2018 7.16348 85.6072 7.59341C84.9669 8.02334 84.5004 8.58133 84.2077 9.2491C83.8967 9.90771 83.732 10.6121 83.732 11.3805C83.732 12.1488 83.8875 12.8623 84.2077 13.5118C84.5004 14.1796 84.9578 14.7284 85.6072 15.1675C86.211 15.5974 86.9702 15.817 87.8849 15.817C88.818 15.7895 89.5955 15.5608 90.2267 15.1309C90.8396 14.7101 91.3061 14.1704 91.6262 13.4935C91.9281 12.8075 92.0745 12.1031 92.0745 11.3805C92.0836 10.6487 91.9281 9.9443 91.6262 9.25824Z" fill="#682F13"/>
<path d="M103.215 4.38263C103.974 4.38263 104.706 4.55643 105.419 4.89489C106.115 5.23334 106.663 5.72731 107.075 6.36763C107.478 7.00795 107.688 7.79463 107.688 8.70937C107.688 9.64241 107.487 10.4291 107.075 11.0694C106.673 11.728 106.115 12.2128 105.419 12.5422C104.715 12.8806 103.974 13.0544 103.215 13.0544H100.26V18.2502H97.333V4.38263H103.215ZM104.12 9.97172C104.45 9.68815 104.614 9.25822 104.614 8.70023C104.614 8.14223 104.45 7.7123 104.12 7.42873C103.782 7.12686 103.288 6.9805 102.648 6.9805H100.269V10.4199H102.648C103.288 10.4199 103.773 10.2736 104.12 9.97172Z" fill="#682F13"/>
<path d="M124.162 11.3805C124.162 13.3746 123.458 15.076 122.04 16.4939C120.622 17.9117 118.912 18.6161 116.908 18.6161C114.914 18.6161 113.213 17.9117 111.795 16.4939C110.377 15.076 109.673 13.3746 109.673 11.3805C109.673 9.37716 110.377 7.66659 111.795 6.24873C113.213 4.83088 114.914 4.12653 116.908 4.12653C118.912 4.12653 120.622 4.83088 122.04 6.24873C123.458 7.66659 124.162 9.37716 124.162 11.3805ZM120.622 9.25824C120.311 8.59048 119.845 8.04163 119.223 7.63C118.592 7.20007 117.814 6.97138 116.881 6.94394C115.966 6.94394 115.198 7.16348 114.603 7.59341C113.963 8.02334 113.496 8.58133 113.204 9.2491C112.893 9.90771 112.728 10.6121 112.728 11.3805C112.728 12.1488 112.884 12.8623 113.204 13.5118C113.496 14.1796 113.954 14.7284 114.603 15.1675C115.207 15.5974 115.966 15.817 116.881 15.817C117.814 15.7895 118.592 15.5608 119.223 15.1309C119.836 14.7101 120.302 14.1704 120.622 13.4935C120.924 12.8075 121.071 12.1031 121.071 11.3805C121.071 10.6487 120.924 9.9443 120.622 9.25824Z" fill="#682F13"/>
<path d="M128.024 15.3962C128.874 14.582 129.442 10.9139 129.716 4.38263H138.552V15.3962H140.601V21.3603H137.711V18.2685H129.039V21.3603H126.148V15.3962H128.024ZM131.5 15.3962H135.607V7.01709H132.561L131.5 15.3962Z" fill="#682F13"/>
<path d="M154.833 18.2685H151.905V12.4049H146.536L146.554 18.2685H143.6V4.38263H146.527V9.77048H151.896V4.38263H154.824V18.2685H154.833Z" fill="#682F13"/>
<path d="M157.643 18.2502V4.38263H160.57V9.57838H163.524C164.284 9.57838 165.015 9.75218 165.729 10.0906C166.424 10.4199 166.973 10.9139 167.385 11.5634C167.787 12.2037 167.997 12.9904 167.997 13.9234C167.997 14.8382 167.796 15.6248 167.385 16.2652C166.982 16.9055 166.424 17.3994 165.729 17.7379C165.025 18.0764 164.284 18.2502 163.524 18.2502H157.643ZM162.957 12.1945H160.579V15.634H162.957C163.598 15.634 164.092 15.4876 164.43 15.1858C164.759 14.9022 164.924 14.4723 164.924 13.9143C164.924 13.3563 164.759 12.9263 164.43 12.6428C164.092 12.3409 163.598 12.1945 162.957 12.1945ZM172.187 4.38263V18.2685H169.26V4.38263H172.187Z" fill="#682F13"/>
<path d="M175.307 4.38239H178.124V13.4933L184.317 4.38239H187.034V18.2682H184.216V9.15736L178.023 18.2682H175.307V4.38239ZM180.502 1.76622L182.433 1.74793C182.533 1.74793 182.588 1.69304 182.588 1.57412V0.750854H184.335V2.47972C184.335 3.1109 184.015 3.42191 183.375 3.42191C183.1 3.42191 182.368 3.42191 181.179 3.42191C179.99 3.42191 179.258 3.42191 178.984 3.42191C178.344 3.42191 178.023 3.1109 178.023 2.47972V0.750854H179.771V1.57412C179.771 1.69304 179.825 1.74793 179.926 1.74793L180.502 1.76622Z" fill="#682F13"/>
<path d="M46.4828 35.7216C46.5468 36.3345 46.7115 36.8925 46.9768 37.3956C47.3335 38.0634 47.8183 38.5756 48.4312 38.9324C49.035 39.2891 49.721 39.4629 50.4985 39.4629C51.3218 39.4629 52.0445 39.2708 52.6665 38.8958C53.2794 38.5024 53.7367 37.9902 54.0203 37.359L56.298 38.7769C55.8955 39.8654 55.1637 40.7161 54.1118 41.3381C53.0598 41.9419 51.8615 42.2437 50.5077 42.2437C49.1996 42.2437 47.9921 41.951 46.9036 41.3747C45.8151 40.7984 44.9552 39.9752 44.324 38.8958C43.6928 37.8164 43.3818 36.5266 43.3818 35.0173C43.3818 33.5079 43.6928 32.2181 44.324 31.1387C44.9552 30.0593 45.8151 29.2361 46.9036 28.6598C47.9921 28.0835 49.1905 27.7908 50.5077 27.7908C51.8615 27.7908 53.0598 28.0926 54.1118 28.6964C55.1637 29.3092 55.8864 30.1691 56.298 31.2577L54.0203 32.6755C53.7276 32.0443 53.2794 31.5321 52.6665 31.1387C52.0536 30.7545 51.331 30.5716 50.4985 30.5716C49.721 30.5716 49.035 30.7454 48.4312 31.1021C47.8183 31.4589 47.3335 31.9712 46.9768 32.6389C46.7115 33.142 46.5468 33.6909 46.4828 34.3129C46.4554 34.6788 46.4554 35.1545 46.4828 35.7216Z" fill="#682F13"/>
<path d="M63.7519 30.6265V41.8779H60.8247V30.6265H57.6963V27.9829H66.862V30.6174H63.7519V30.6265Z" fill="#682F13"/>
<path d="M71.8771 38.8043L70.8526 41.8687H67.7607L72.5997 27.9829H76.0392L80.8965 41.8687H77.7681L76.7435 38.8043H71.8771ZM74.3012 31.5047L72.6455 36.4626H75.966L74.3012 31.5047Z" fill="#682F13"/>
<path d="M94.1227 41.8779H91.1955V36.0144H85.826L85.8443 41.8779H82.8896V27.9829H85.8168V33.3799H91.1864V27.9829H94.1136V41.8779H94.1227Z" fill="#682F13"/>
<path d="M98.6324 39.0056C99.4831 38.1915 100.05 34.5233 100.325 27.9921H109.161V39.0056H111.21V44.9697H108.31V41.8779H99.6386V44.9697H96.748V39.0056H98.6324ZM102.108 39.0056H106.216V30.6265H103.17L102.108 39.0056Z" fill="#682F13"/>
<path d="M117.019 38.8043L115.994 41.8687H112.902L117.741 27.9829H121.181L126.038 41.8687H122.91L121.885 38.8043H117.019ZM119.443 31.5047L117.787 36.4626H121.108L119.443 31.5047Z" fill="#682F13"/>
<path d="M133.513 27.9829C134.272 27.9829 135.004 28.1567 135.717 28.4952C136.412 28.8336 136.961 29.3276 137.373 29.9679C137.775 30.6082 137.986 31.3949 137.986 32.3097C137.986 33.2427 137.785 34.0294 137.373 34.6697C136.97 35.3283 136.412 35.8131 135.717 36.1424C135.013 36.4809 134.272 36.6547 133.513 36.6547H130.558V41.8504H127.631V27.9829H133.513ZM134.418 33.572C134.748 33.2884 134.912 32.8585 134.912 32.3005C134.912 31.7425 134.748 31.3126 134.418 31.029C134.08 30.7271 133.586 30.5808 132.946 30.5808H130.567V34.0202H132.946C133.577 34.0294 134.071 33.8739 134.418 33.572Z" fill="#682F13"/>
<path d="M145.777 30.6265V41.8779H142.85V30.6265H139.722V27.9829H148.887V30.6174H145.777V30.6265Z" fill="#682F13"/>
<path d="M6.4541 64.0656V62.8032H13.8067V64.0656L13.6184 66.546H11.9685V64.3092H8.28118V66.546H6.63127L6.4541 64.0656ZM10.8612 59.3484H9.43278L9.26668 60.8433C9.02307 63.0136 8.19259 63.8773 7.00776 63.9105L6.85273 62.7921C7.15171 62.626 7.38424 62.2274 7.60571 60.4003L7.90469 57.8314H12.7658V64.287H10.8612V59.3484Z" fill="white"/>
<path d="M17.9043 61.0869C17.9043 58.9387 19.4988 57.6985 21.193 57.6985C22.8983 57.6985 24.4818 58.9387 24.4818 61.0869C24.4818 63.224 22.8983 64.4642 21.193 64.4642C19.4878 64.4642 17.9043 63.224 17.9043 61.0869ZM22.5218 61.0869C22.5218 59.9685 22.0678 59.2487 21.193 59.2487C20.3072 59.2487 19.8643 59.9685 19.8643 61.0869C19.8643 62.2053 20.3183 62.925 21.193 62.925C22.0789 62.914 22.5218 62.1942 22.5218 61.0869Z" fill="white"/>
<path d="M28.833 57.8535H31.0366L31.8006 60.0681C31.9667 60.5885 32.1107 61.0425 32.2546 61.5076H32.31C32.4539 61.0425 32.6311 60.5885 32.7861 60.0681L33.4948 57.8535H35.6873V64.3091H33.982V62.6592C33.982 61.9727 34.1149 60.5996 34.1924 59.8688H34.137C33.9599 60.4335 33.6941 61.1311 33.5059 61.6737L32.7972 63.7444H31.7452L31.0033 61.6737C30.8151 61.1311 30.5604 60.4114 30.3833 59.8688H30.3279C30.3943 60.5996 30.5383 61.9616 30.5383 62.6592V64.3091H28.8441V57.8535H28.833Z" fill="white"/>
<path d="M40.2168 62.5153C40.2168 61.0647 41.4127 60.3339 44.4689 60.1457C44.4025 59.5699 43.9706 59.2155 43.0958 59.2155C42.4757 59.2155 41.8556 59.4591 41.1248 59.8245L40.4383 58.5733C41.3352 58.0639 42.365 57.6985 43.4612 57.6985C45.2772 57.6985 46.3735 58.6397 46.3735 60.6218V64.3092H44.8122L44.6793 63.5783H44.635C43.9817 64.0656 43.1733 64.4642 42.3429 64.4642C41.0251 64.4642 40.2168 63.6005 40.2168 62.5153ZM44.4578 62.3603V61.2973C42.5532 61.3969 42.0439 61.8066 42.0439 62.3603C42.0439 62.7811 42.3982 62.9804 42.9297 62.9804C43.5166 62.9804 44.0038 62.7146 44.4578 62.3603Z" fill="white"/>
<path d="M62.4072 61.0869C62.4072 58.9387 64.1568 57.6985 66.1389 57.6985C67.1576 57.6985 68.0213 58.0639 68.5528 58.5733L67.667 59.7581C67.1798 59.4038 66.7258 59.2377 66.2385 59.2377C65.1312 59.2377 64.3561 59.9574 64.3561 61.0758C64.3561 62.1942 65.1091 62.914 66.1721 62.914C66.8476 62.914 67.4123 62.615 67.8663 62.2939L68.6414 63.5008C67.8663 64.1542 66.8697 64.4531 65.9839 64.4531C63.9685 64.4642 62.4072 63.224 62.4072 61.0869Z" fill="white"/>
<path d="M86.3816 60.9539L84.2888 57.8535H86.3484L87.0128 58.8943C87.201 59.2597 87.4668 59.6362 87.6772 60.0016H87.7325C87.8986 59.6473 88.109 59.2487 88.2751 58.8943L88.851 57.8535H90.8552L88.7513 61.1643L90.9991 64.3091H88.9395L88.2087 63.2461C87.9762 62.8807 87.7104 62.482 87.4668 62.1166H87.4114C87.2121 62.482 87.0017 62.8585 86.8135 63.2461L86.1712 64.3091H84.167L86.3816 60.9539Z" fill="white"/>
<path d="M95.5283 62.5153C95.5283 61.0647 96.7242 60.3339 99.7804 60.1457C99.714 59.5699 99.2821 59.2155 98.4073 59.2155C97.7872 59.2155 97.1672 59.4591 96.4363 59.8245L95.7498 58.5733C96.6467 58.0639 97.6765 57.6985 98.7728 57.6985C100.589 57.6985 101.685 58.6397 101.685 60.6218V64.3092H100.124L99.9908 63.5783H99.9465C99.2932 64.0656 98.4849 64.4642 97.6544 64.4642C96.3367 64.4642 95.5283 63.6005 95.5283 62.5153ZM99.7694 62.3603V61.2973C97.8648 61.3969 97.3554 61.8066 97.3554 62.3603C97.3554 62.7811 97.7097 62.9804 98.2412 62.9804C98.8281 62.9804 99.3154 62.7146 99.7694 62.3603Z" fill="white"/>
<path d="M106.722 57.8535H108.283L108.416 58.5068H108.46C108.981 58.0307 109.689 57.6985 110.387 57.6985C112.004 57.6985 112.978 58.994 112.978 60.9872C112.978 63.2019 111.627 64.4753 110.177 64.4753C109.612 64.4753 109.047 64.2206 108.593 63.7777H108.549L108.637 64.8296V66.7231H106.722V57.8535ZM111.029 60.9983C111.029 59.8356 110.653 59.2598 109.833 59.2598C109.424 59.2598 109.047 59.437 108.637 59.8578V62.46C109.003 62.7811 109.412 62.8918 109.745 62.8918C110.453 62.8918 111.029 62.3271 111.029 60.9983Z" fill="white"/>
<path d="M117.651 62.5153C117.651 61.0647 118.847 60.3339 121.903 60.1457C121.837 59.5699 121.405 59.2155 120.53 59.2155C119.91 59.2155 119.29 59.4591 118.559 59.8245L117.873 58.5733C118.77 58.0639 119.8 57.6985 120.896 57.6985C122.712 57.6985 123.808 58.6397 123.808 60.6218V64.3092H122.247L122.114 63.5783H122.07C121.416 64.0656 120.608 64.4642 119.777 64.4642C118.46 64.4642 117.651 63.6005 117.651 62.5153ZM121.892 62.3603V61.2973C119.988 61.3969 119.478 61.8066 119.478 62.3603C119.478 62.7811 119.833 62.9804 120.364 62.9804C120.951 62.9804 121.438 62.7146 121.892 62.3603Z" fill="white"/>
<path d="M128.911 57.8535H130.827V60.2342H132.809L135.489 64.3092H133.385L131.857 61.7291H130.827V64.3092H128.911V57.8535ZM131.502 60.9208L132.443 59.0494C132.975 57.9642 133.562 57.6985 134.492 57.6985C134.725 57.6985 134.924 57.7317 135.112 57.8092L134.813 59.5809C134.702 59.5477 134.592 59.5145 134.459 59.5145C134.138 59.5145 133.905 59.6141 133.639 60.1678L133.097 61.2751L131.502 60.9208Z" fill="white"/>
<path d="M141.923 59.3484H139.631V57.8424H146.131V59.3484H143.839V64.3091H141.923V59.3484Z" fill="white"/>
<path d="M150.749 61.0758C150.749 58.9608 152.377 57.6985 154.104 57.6985C156.097 57.6985 157.149 59.0383 157.149 60.799C157.149 61.1533 157.094 61.4966 157.072 61.6516H152.177V60.3671H155.776L155.477 60.7325C155.477 59.6917 155.023 59.1491 154.182 59.1491C153.24 59.1491 152.62 59.7913 152.62 61.0758C152.62 62.4157 153.351 63.0025 154.602 63.0025C155.189 63.0025 155.688 62.8475 156.263 62.5485L156.895 63.7002C156.153 64.1763 155.2 64.4531 154.337 64.4531C152.321 64.4642 150.749 63.224 150.749 61.0758Z" fill="white"/>
<path d="M162.044 57.8535H163.605L163.738 58.5068H163.782C164.303 58.0307 165.012 57.6985 165.709 57.6985C167.326 57.6985 168.3 58.994 168.3 60.9872C168.3 63.2019 166.949 64.4753 165.499 64.4753C164.934 64.4753 164.369 64.2206 163.915 63.7777H163.871L163.96 64.8296V66.7231H162.044V57.8535ZM166.34 60.9983C166.34 59.8356 165.964 59.2598 165.144 59.2598C164.735 59.2598 164.358 59.437 163.949 59.8578V62.46C164.314 62.7811 164.724 62.8918 165.056 62.8918C165.765 62.8918 166.34 62.3271 166.34 60.9983Z" fill="white"/>
<path d="M172.773 61.0869C172.773 58.9387 174.368 57.6985 176.062 57.6985C177.767 57.6985 179.351 58.9387 179.351 61.0869C179.351 63.224 177.767 64.4642 176.062 64.4642C174.368 64.4642 172.773 63.224 172.773 61.0869ZM177.402 61.0869C177.402 59.9685 176.948 59.2487 176.073 59.2487C175.187 59.2487 174.744 59.9685 174.744 61.0869C174.744 62.2053 175.198 62.925 176.073 62.925C176.948 62.914 177.402 62.1942 177.402 61.0869Z" fill="white"/>
<path d="M183.703 57.8535H185.907L186.671 60.0681C186.837 60.5885 186.981 61.0425 187.125 61.5076H187.18C187.324 61.0425 187.501 60.5885 187.656 60.0681L188.365 57.8535H190.557V64.3091H188.852V62.6592C188.852 61.9727 188.985 60.5996 189.063 59.8688H189.007C188.83 60.4335 188.564 61.1311 188.376 61.6737L187.667 63.7444H186.615L185.873 61.6737C185.685 61.1311 185.431 60.4114 185.253 59.8688H185.198C185.264 60.5996 185.408 61.9616 185.408 62.6592V64.3091H183.714V57.8535H183.703Z" fill="white"/>
</svg>
