<svg width="70" height="108" viewBox="0 0 70 108" fill="none" xmlns="http://www.w3.org/2000/svg">
<circle cx="35" cy="35" r="17" fill="white"/>
<path d="M0.5 34.8049C0.5 15.8895 15.8895 0.5 34.8047 0.5C53.7198 0.5 69.1093 15.8895 69.1093 34.8049C69.1093 47.7694 64.0039 62.1617 57.3981 75.1092C50.7968 88.0478 42.7248 99.4909 36.8518 106.542C35.7866 107.82 33.8214 107.819 32.7578 106.542C25.9732 98.3968 17.9017 86.5959 11.5288 73.7525C5.15164 60.9007 0.5 47.0542 0.5 34.8049ZM20.5937 34.8051C20.5937 42.6414 26.9683 49.016 34.8047 49.016C42.641 49.016 49.0156 42.6414 49.0156 34.8051C49.0156 26.9687 42.641 20.5942 34.8047 20.5942C26.9683 20.5942 20.5937 26.9687 20.5937 34.8051Z" fill="#00950F" stroke="#00950F"/>
</svg>
