<svg width="12" height="15" viewBox="0 0 12 15" fill="none" xmlns="http://www.w3.org/2000/svg">
<path d="M11.7187 1.32525C11.4131 1.01961 10.9175 1.01961 10.6119 1.32525L0.281473 11.6557C-0.0241628 11.9613 -0.0241628 12.4569 0.281473 12.7625C0.434291 12.9153 0.634602 12.9918 0.834861 12.9918C1.03512 12.9918 1.23548 12.9154 1.38825 12.7625L11.7186 2.43213C12.0244 2.12644 12.0244 1.63094 11.7187 1.32525Z" fill="#FF0000"/>
<path d="M2.86972 0C1.28737 0 0 1.28737 0 2.86972C0 4.45207 1.28737 5.73944 2.86972 5.73944C4.45207 5.73944 5.73944 4.45207 5.73944 2.86972C5.73944 1.28737 4.45207 0 2.86972 0ZM2.86972 4.1741C2.15047 4.1741 1.56533 3.58896 1.56533 2.86967C1.56533 2.15042 2.15047 1.56528 2.86972 1.56528C3.58896 1.56528 4.17416 2.15042 4.17416 2.86967C4.1741 3.58896 3.58896 4.1741 2.86972 4.1741Z" fill="#FF0000"/>
<path d="M9.13046 8.34824C7.54811 8.34824 6.26074 9.63561 6.26074 11.218C6.26074 12.8003 7.54811 14.0877 9.13046 14.0877C10.7128 14.0877 12.0002 12.8003 12.0002 11.218C12.0002 9.63561 10.7128 8.34824 9.13046 8.34824ZM9.13046 12.5223C8.41122 12.5223 7.82602 11.9372 7.82602 11.218C7.82602 10.4987 8.41116 9.91357 9.13046 9.91357C9.84971 9.91357 10.4348 10.4987 10.4348 11.218C10.4348 11.9372 9.84971 12.5223 9.13046 12.5223Z" fill="#FF0000"/>
</svg>
