<svg width="17" height="19" viewBox="0 0 17 19" fill="none" xmlns="http://www.w3.org/2000/svg">
<path d="M12.2178 19C11.6691 19 11.125 18.8916 10.5929 18.6755C8.24893 17.7239 6.07322 16.1739 4.30091 14.1931C2.5286 12.2123 1.14176 9.78059 0.290302 7.16085C0.016686 6.31895 -0.0640607 5.44988 0.0503858 4.5777C0.157594 3.76073 0.440739 2.96763 0.869241 2.2841C1.29964 1.59757 1.87343 1.02655 2.52856 0.6328C3.2272 0.212925 3.98974 0 4.79508 0C5.04556 0 5.26203 0.195596 5.31452 0.469303L6.14835 4.81831C6.1861 5.01524 6.13195 5.22015 6.00456 5.36257L4.57977 6.95494C5.92384 9.9416 8.1048 12.3791 10.7771 13.8813L12.2018 12.2889C12.3293 12.1466 12.5126 12.0861 12.6888 12.1282L16.58 13.0601C16.8249 13.1188 16.9999 13.3608 16.9999 13.6407C16.9999 14.5408 16.8094 15.3931 16.4337 16.1739C16.0814 16.9061 15.5705 17.5474 14.9562 18.0284C14.3447 18.5074 13.6351 18.8238 12.904 18.9436C12.675 18.9812 12.446 19 12.2178 19Z" fill="#00950F"/>
</svg>
