<svg width="11" height="16" viewBox="0 0 11 16" fill="none" xmlns="http://www.w3.org/2000/svg">
<path d="M0.5 5.15628C0.5 2.58923 2.58924 0.5 5.15625 0.5C7.72326 0.5 9.8125 2.58923 9.8125 5.15628C9.8125 6.97797 9.09077 9.03886 8.12402 10.9337C7.17083 12.802 6.00613 14.4574 5.15626 15.4825C4.17594 14.3006 3.01039 12.5928 2.0895 10.737C1.15692 8.85754 0.5 6.87551 0.5 5.15628ZM2.625 5.15631C2.625 6.55248 3.76007 7.68756 5.15625 7.68756C6.55242 7.68756 7.6875 6.55248 7.6875 5.15631C7.6875 3.76014 6.55242 2.62506 5.15625 2.62506C3.76007 2.62506 2.625 3.76014 2.625 5.15631Z" stroke="#00950F"/>
</svg>
