<svg width="48" height="49" viewBox="0 0 48 49" fill="none" xmlns="http://www.w3.org/2000/svg">
<g filter="url(#filter0_d)">
<path d="M21.9141 2.01789C23.0771 0.892787 24.9229 0.892786 26.0859 2.01789L28.1375 4.00261C28.8025 4.64599 29.7273 4.94646 30.6435 4.81687L33.4699 4.4171C35.0721 4.19047 36.5653 5.27537 36.8449 6.8692L37.3381 9.68077C37.498 10.5922 38.0695 11.3788 38.8869 11.8125L41.4085 13.1504C42.8379 13.9088 43.4083 15.6642 42.6976 17.118L41.444 19.6825C41.0377 20.5138 41.0377 21.4862 41.444 22.3175L42.6976 24.882C43.4083 26.3358 42.8379 28.0912 41.4085 28.8496L38.8869 30.1875C38.0695 30.6212 37.498 31.4078 37.3381 32.3192L36.8449 35.1308C36.5653 36.7246 35.0721 37.8095 33.4699 37.5829L30.6435 37.1831C29.7273 37.0535 28.8025 37.354 28.1375 37.9974L26.0859 39.9821C24.9229 41.1072 23.0771 41.1072 21.9141 39.9821L19.8625 37.9974C19.1975 37.354 18.2727 37.0535 17.3565 37.1831L14.5301 37.5829C12.9279 37.8095 11.4347 36.7246 11.1551 35.1308L10.6619 32.3192C10.502 31.4078 9.93048 30.6212 9.11307 30.1875L6.59151 28.8496C5.16209 28.0912 4.59172 26.3358 5.30236 24.882L6.55597 22.3175C6.96234 21.4862 6.96234 20.5138 6.55597 19.6825L5.30236 17.118C4.59172 15.6642 5.16209 13.9088 6.59151 13.1504L9.11307 11.8125C9.93048 11.3788 10.502 10.5922 10.6619 9.68077L11.1551 6.8692C11.4347 5.27537 12.9279 4.19047 14.5301 4.4171L17.3565 4.81687C18.2727 4.94646 19.1975 4.64599 19.8625 4.00261L21.9141 2.01789Z" fill="white"/>
</g>
<path d="M36.6709 21.6191C36.5498 21.3712 36.5498 21.087 36.6709 20.8392L37.7937 18.5423C38.4189 17.2633 37.9235 15.739 36.6661 15.0718L34.4076 13.8735C34.164 13.7442 33.9969 13.5142 33.9492 13.2426L33.5075 10.7243C33.2616 9.32223 31.9646 8.38004 30.5554 8.57943L28.0239 8.93751C27.7507 8.97608 27.4805 8.88824 27.2823 8.6965L25.4448 6.9189C24.4216 5.92908 22.8188 5.92902 21.7957 6.9189L19.9581 8.69667C19.7599 8.88847 19.4897 8.97614 19.2165 8.93769L16.685 8.5796C15.2753 8.3801 13.9788 9.32241 13.7329 10.7245L13.2912 13.2427C13.2435 13.5143 13.0765 13.7443 12.8329 13.8736L10.5744 15.0719C9.31693 15.739 8.82161 17.2635 9.44676 18.5424L10.5695 20.8393C10.6906 21.0872 10.6906 21.3714 10.5695 21.6192L9.4467 23.9161C8.82156 25.195 9.31688 26.7194 10.5743 27.3866L12.8328 28.5849C13.0765 28.7141 13.2435 28.9441 13.2912 29.2157L13.7329 31.734C13.9568 33.0104 15.0513 33.9056 16.3091 33.9054C16.433 33.9054 16.5587 33.8967 16.6851 33.8789L19.2166 33.5208C19.4896 33.482 19.7599 33.57 19.9582 33.7618L21.7957 35.5394C22.3074 36.0344 22.9637 36.2818 23.6202 36.2817C24.2766 36.2817 24.9333 36.0342 25.4447 35.5394L27.2823 33.7618C27.4806 33.57 27.7508 33.4824 28.0239 33.5208L30.5554 33.8789C31.9653 34.0783 33.2616 33.1361 33.5075 31.7339L33.9493 29.2158C33.997 28.9441 34.164 28.7142 34.4076 28.5849L36.6661 27.3866C37.9235 26.7194 38.4189 25.195 37.7937 23.916L36.6709 21.6191ZM35.8523 25.8527L33.5938 27.051C32.8738 27.4331 32.3799 28.1127 32.2391 28.9157L31.7974 31.4339C31.7142 31.9083 31.2756 32.2269 30.7986 32.1596L28.2671 31.8015C27.4598 31.6871 26.661 31.947 26.0751 32.5137L24.2375 34.2913C23.8914 34.6261 23.3491 34.6261 23.0029 34.2913L21.1654 32.5137C20.6702 32.0346 20.0228 31.775 19.347 31.775C19.2231 31.775 19.0983 31.7837 18.9733 31.8014L16.4418 32.1595C15.9652 32.2269 15.5263 31.9082 15.443 31.4338L15.0013 28.9156C14.8604 28.1126 14.3666 27.4329 13.6465 27.0509L11.3881 25.8526C10.9626 25.6269 10.795 25.1112 11.0065 24.6785L12.1293 22.3815C12.4873 21.6491 12.4873 20.8091 12.1293 20.0767L11.0065 17.7798C10.795 17.3471 10.9626 16.8313 11.3881 16.6056L13.6465 15.4073C14.3666 15.0252 14.8604 14.3456 15.0012 13.5426L15.4429 11.0244C15.5262 10.55 15.9647 10.2313 16.4417 10.2987L18.9732 10.6568C19.7802 10.771 20.5793 10.5113 21.1653 9.94455L23.0028 8.16696C23.3489 7.83216 23.8912 7.83216 24.2374 8.16696L26.0749 9.94455C26.6609 10.5114 27.4599 10.771 28.267 10.6568L30.7985 10.2987C31.2751 10.2313 31.7141 10.55 31.7973 11.0244L32.239 13.5427C32.3798 14.3456 32.8736 15.0253 33.5937 15.4073L35.8522 16.6056C36.2777 16.8313 36.4452 17.3471 36.2337 17.7798L35.1109 20.0767C34.753 20.809 34.753 21.6491 35.1109 22.3814L36.2337 24.6784C36.4453 25.1112 36.2777 25.627 35.8523 25.8527Z" fill="#FF0000"/>
<path d="M29.9637 14.8857C29.6247 14.5467 29.075 14.5467 28.7359 14.8857L17.2767 26.345C16.9377 26.684 16.9377 27.2337 17.2767 27.5728C17.4463 27.7423 17.6685 27.8271 17.8906 27.8271C18.1127 27.8271 18.335 27.7423 18.5044 27.5728L29.9636 16.1136C30.3028 15.7745 30.3028 15.2248 29.9637 14.8857Z" fill="#FF0000"/>
<path d="M20.1472 13.4158C18.3919 13.4158 16.9639 14.8438 16.9639 16.5991C16.9639 18.3543 18.3919 19.7824 20.1472 19.7824C21.9024 19.7824 23.3305 18.3543 23.3305 16.5991C23.3305 14.8438 21.9024 13.4158 20.1472 13.4158ZM20.1472 18.046C19.3493 18.046 18.7002 17.3969 18.7002 16.599C18.7002 15.8012 19.3493 15.1521 20.1472 15.1521C20.945 15.1521 21.5941 15.8012 21.5941 16.599C21.5941 17.3969 20.945 18.046 20.1472 18.046Z" fill="#FF0000"/>
<path d="M27.0915 22.6761C25.3362 22.6761 23.9082 24.1042 23.9082 25.8594C23.9082 27.6147 25.3362 29.0427 27.0915 29.0427C28.8468 29.0427 30.2748 27.6147 30.2748 25.8594C30.2748 24.1042 28.8468 22.6761 27.0915 22.6761ZM27.0915 27.3064C26.2937 27.3064 25.6445 26.6573 25.6445 25.8594C25.6445 25.0616 26.2936 24.4125 27.0915 24.4125C27.8893 24.4125 28.5384 25.0616 28.5384 25.8594C28.5384 26.6573 27.8893 27.3064 27.0915 27.3064Z" fill="#FF0000"/>
<defs>
<filter id="filter0_d" x="0.99707" y="1.17407" width="46.006" height="47.6519" filterUnits="userSpaceOnUse" color-interpolation-filters="sRGB">
<feFlood flood-opacity="0" result="BackgroundImageFix"/>
<feColorMatrix in="SourceAlpha" type="matrix" values="0 0 0 0 0 0 0 0 0 0 0 0 0 0 0 0 0 0 127 0"/>
<feOffset dy="4"/>
<feGaussianBlur stdDeviation="2"/>
<feColorMatrix type="matrix" values="0 0 0 0 0 0 0 0 0 0 0 0 0 0 0 0 0 0 0.25 0"/>
<feBlend mode="normal" in2="BackgroundImageFix" result="effect1_dropShadow"/>
<feBlend mode="normal" in="SourceGraphic" in2="effect1_dropShadow" result="shape"/>
</filter>
</defs>
</svg>
