<svg width="42" height="42" viewBox="0 0 42 42" fill="none" xmlns="http://www.w3.org/2000/svg">
<path d="M23.3283 19.5039L20.4405 18.863C19.3421 18.6128 18.0776 18.2821 18.0776 17.2464C18.0776 16.2086 18.9646 15.4834 20.5658 15.4834C23.7929 15.4834 23.4981 17.7011 25.1003 17.7011C25.9433 17.7011 26.6813 17.2054 26.6813 16.3531C26.6813 14.3641 23.4981 12.8716 20.7978 12.8716C17.8665 12.8716 14.7448 14.1164 14.7448 17.432C14.7448 19.0287 15.3152 20.7273 18.4573 21.5153L22.3589 22.4894C23.5397 22.7803 23.8352 23.4446 23.8352 24.0438C23.8352 25.0404 22.8454 26.0139 21.0522 26.0139C17.5495 26.0139 18.0356 23.3184 16.1585 23.3184C15.3152 23.3184 14.7031 23.8993 14.7031 24.7283C14.7031 26.3445 16.6655 28.5014 21.0522 28.5014C25.2259 28.5014 27.294 26.4897 27.294 23.7955C27.294 22.0558 26.4919 20.2089 23.3283 19.5039Z" fill="#44B7EF"/>
<path d="M21 0C9.40379 0 0 9.40379 0 21C0 32.5962 9.40379 42 21 42C32.5962 42 42 32.5962 42 21C42 9.40379 32.5962 0 21 0ZM31.9335 31.9025C30.5528 33.2839 28.718 34.043 26.7659 34.043C25.5015 34.043 24.2633 33.7142 23.1697 33.0954C22.4599 33.2214 21.7328 33.2877 21.0074 33.2877C19.3405 33.2877 17.7229 32.9609 16.2012 32.3158C14.7297 31.6955 13.4099 30.8043 12.2752 29.6703C11.1418 28.5366 10.2517 27.2168 9.63034 25.746C8.98563 24.2233 8.65942 22.6067 8.65942 20.9394C8.65942 20.2255 8.72351 19.5106 8.84528 18.8111C8.2451 17.7316 7.92563 16.5101 7.92563 15.2671C7.92563 13.3147 8.68634 11.4789 10.0665 10.0985C11.4472 8.71742 13.283 7.95703 15.2354 7.95703C16.4312 7.95703 17.613 8.25536 18.6634 8.81387C18.6653 8.81355 18.6676 8.81355 18.6692 8.81291C19.435 8.66615 20.2217 8.59213 21.0074 8.59213C22.674 8.59213 24.2912 8.91866 25.8129 9.56241C27.2828 10.1844 28.6042 11.0745 29.7373 12.2082C30.8719 13.3423 31.7618 14.6628 32.3838 16.1332C33.0285 17.6556 33.3547 19.2725 33.3547 20.9394C33.3547 21.6909 33.2839 22.4429 33.149 23.1777C33.7533 24.2614 34.0747 25.487 34.0747 26.7342C34.0744 28.6866 33.3146 30.5227 31.9335 31.9025Z" fill="#44B7EF"/>
</svg>
