<svg width="18" height="19" viewBox="0 0 18 19" fill="none" xmlns="http://www.w3.org/2000/svg">
<path d="M17.3494 10.3837L13.7378 11.562L12.2815 10.7703V9.5V8.24806L13.7378 7.4564L17.3494 8.63469C17.6018 8.72674 17.8931 8.57946 17.9708 8.34012C18.0679 8.10077 17.9125 7.82461 17.6601 7.75097L14.864 6.84884L17.4853 5.41279C17.7184 5.28391 17.796 4.98934 17.6601 4.76841C17.5242 4.54748 17.2135 4.47384 16.9805 4.60271L14.3592 6.03876L14.9223 3.29554C14.9805 3.03779 14.8058 2.79845 14.5339 2.74322C14.2621 2.68798 14.0097 2.85368 13.9514 3.11143L13.2135 6.66473L11.7573 7.4564L10.6505 6.84884L10.6311 6.83043L9.50485 6.20446V4.62112L12.3786 2.24612C12.5922 2.08043 12.6116 1.78585 12.4174 1.58333C12.2427 1.38081 11.932 1.3624 11.7184 1.54651L9.50485 3.3876V0.478682C9.50485 0.22093 9.29126 0 9 0C8.72816 0 8.49515 0.202519 8.49515 0.478682V3.35078L6.28158 1.5281C6.06799 1.3624 5.75732 1.38081 5.58256 1.56492C5.4078 1.76744 5.42722 2.06202 5.6214 2.22771L8.49515 4.60271V6.18605L7.36895 6.81202L6.24275 7.43798L4.78645 6.64632L4.0486 3.09302C3.99034 2.83527 3.73792 2.66957 3.46608 2.72481C3.19424 2.78004 3.01948 3.01938 3.07773 3.27713L3.64083 6.02035L1.0195 4.5843C0.786495 4.45543 0.475819 4.52907 0.339898 4.75C0.203977 4.97093 0.281646 5.2655 0.514654 5.39438L3.13598 6.83043L0.339898 7.73256C0.0874738 7.82461 -0.0678644 8.08236 0.029222 8.32171C0.126308 8.56105 0.39815 8.70833 0.650575 8.61628L4.26219 7.43798L5.71848 8.22965V9.5V10.7519H5.7379L4.2816 11.5436L0.669992 10.3653C0.417567 10.2733 0.126308 10.4205 0.0486392 10.6599C-0.0484471 10.8992 0.106891 11.1754 0.359316 11.249L3.1554 12.1512L0.534071 13.5872C0.301064 13.7161 0.223395 14.0107 0.359316 14.2316C0.495236 14.4525 0.805913 14.5262 1.03892 14.3973L3.66025 12.9612L3.09715 15.7045C3.0389 15.9622 3.21365 16.2016 3.4855 16.2568C3.75734 16.312 4.00976 16.1463 4.06801 15.8886L4.80587 12.3353L6.26217 11.5436L7.40778 12.1696L8.53399 12.7955V14.3789L5.66023 16.7539C5.44664 16.9196 5.42722 17.2141 5.6214 17.4167C5.79615 17.6192 6.10683 17.6376 6.32042 17.4535L8.53399 15.6124V18.5213C8.53399 18.7791 8.74758 19 9.03883 19C9.31068 19 9.54368 18.7975 9.54368 18.5213V15.6492L11.7573 17.4903C11.9708 17.656 12.2815 17.6376 12.4563 17.4535C12.631 17.251 12.6116 16.9564 12.4174 16.7907L9.50485 14.3973V12.814L10.6311 12.188L11.7573 11.562L13.2135 12.3537L13.9514 15.907C14.0097 16.1647 14.2621 16.3304 14.5339 16.2752C14.8058 16.22 14.9805 15.9806 14.9223 15.7229L14.3592 12.9797L16.9805 14.4157C17.2135 14.5446 17.5242 14.4709 17.6601 14.25C17.796 14.0291 17.7184 13.7345 17.4853 13.6056L14.864 12.1696L17.6601 11.2674C17.9125 11.1754 18.0679 10.9176 17.9708 10.6783C17.8737 10.439 17.6018 10.2917 17.3494 10.3837ZM11.233 9.5V10.7519L10.1068 11.3779L9 11.9855L7.85438 11.3595L6.72818 10.7335V9.5V8.24806L7.85438 7.62209L8.98058 6.99612L10.1068 7.62209L10.1262 7.6405L11.233 8.24806V9.5Z" fill="black" fill-opacity="0.4"/>
</svg>
