<svg width="19" height="18" viewBox="0 0 19 18" fill="none" xmlns="http://www.w3.org/2000/svg">
<path d="M4.35547 8.99999C4.35547 11.617 6.53525 13.7461 9.21455 13.7461C11.8939 13.7461 14.0736 11.617 14.0736 8.99999C14.0736 6.383 11.8939 4.25391 9.21455 4.25391C6.53525 4.25391 4.35547 6.383 4.35547 8.99999ZM9.21455 5.30859C11.2985 5.30859 12.9938 6.96455 12.9938 8.99999C12.9938 11.0354 11.2985 12.6914 9.21455 12.6914C7.13065 12.6914 5.43527 11.0354 5.43527 8.99999C5.43527 6.96455 7.13065 5.30859 9.21455 5.30859Z" fill="black" fill-opacity="0.4"/>
<path d="M13.414 13.1018C13.2031 13.3077 13.2031 13.6416 13.414 13.8475L16.0208 16.3938C16.2316 16.5997 16.5735 16.5998 16.7844 16.3938C16.9952 16.1878 16.9952 15.8539 16.7844 15.648L14.1775 13.1018C13.9667 12.8958 13.6248 12.8958 13.414 13.1018Z" fill="black" fill-opacity="0.4"/>
<path d="M2.40799 1.60621C2.19718 1.40027 1.85531 1.40027 1.64446 1.60621C1.43362 1.81216 1.43362 2.14603 1.64446 2.35198L4.25131 4.8982C4.46212 5.10415 4.80399 5.10418 5.01483 4.8982C5.22568 4.69226 5.22568 4.35838 5.01483 4.15243L2.40799 1.60621Z" fill="black" fill-opacity="0.4"/>
<path d="M1.64446 16.3937C1.85528 16.5997 2.19714 16.5997 2.40799 16.3937L5.01483 13.8475C5.22568 13.6416 5.22568 13.3077 5.01483 13.1018C4.80402 12.8958 4.46216 12.8958 4.25131 13.1018L1.64446 15.648C1.43362 15.8539 1.43362 16.1878 1.64446 16.3937Z" fill="black" fill-opacity="0.4"/>
<path d="M16.7844 1.60621C16.5735 1.40027 16.2317 1.40027 16.0208 1.60621L13.414 4.15243C13.2031 4.35838 13.2031 4.69226 13.414 4.8982C13.6248 5.10415 13.9667 5.10418 14.1775 4.8982L16.7844 2.35198C16.9952 2.14603 16.9952 1.81216 16.7844 1.60621Z" fill="black" fill-opacity="0.4"/>
<path d="M11.4858 14.3592C11.2103 14.4706 11.0795 14.7791 11.1936 15.0482L11.6068 16.0226C11.7207 16.2912 12.0363 16.4196 12.3122 16.308C12.5877 16.1965 12.7185 15.888 12.6044 15.619L12.1912 14.6446C12.0771 14.3755 11.7613 14.2478 11.4858 14.3592Z" fill="black" fill-opacity="0.4"/>
<path d="M6.94112 3.64081C7.21661 3.52936 7.34741 3.22087 7.23331 2.95178L6.82011 1.97739C6.70598 1.70831 6.39017 1.58059 6.11468 1.692C5.83919 1.80344 5.70839 2.11194 5.82249 2.38102L6.23569 3.35541C6.34968 3.62408 6.66523 3.75243 6.94112 3.64081Z" fill="black" fill-opacity="0.4"/>
<path d="M3.02242 10.9344L2.02484 11.338C1.74934 11.4494 1.61854 11.7579 1.73264 12.027C1.8466 12.2957 2.16219 12.424 2.43807 12.3124L3.43566 11.9088C3.71116 11.7974 3.84195 11.4889 3.72786 11.2198C3.61376 10.9508 3.29795 10.823 3.02242 10.9344Z" fill="black" fill-opacity="0.4"/>
<path d="M15.4068 7.06552L16.4044 6.66193C16.6799 6.55049 16.8107 6.24199 16.6966 5.97291C16.5825 5.70382 16.2667 5.5761 15.9912 5.68751L14.9936 6.0911C14.7181 6.20255 14.5873 6.51104 14.7014 6.78013C14.8153 7.04879 15.1309 7.17711 15.4068 7.06552Z" fill="black" fill-opacity="0.4"/>
<path d="M6.23569 14.6446L5.82249 15.619C5.70839 15.888 5.83919 16.1965 6.11468 16.308C6.39129 16.4199 6.70645 16.2906 6.82011 16.0226L7.23331 15.0482C7.34741 14.7791 7.21661 14.4707 6.94112 14.3592C6.66559 14.2478 6.34979 14.3755 6.23569 14.6446Z" fill="black" fill-opacity="0.4"/>
<path d="M12.1912 3.35541L12.6044 2.38102C12.7185 2.11194 12.5877 1.80348 12.3122 1.692C12.0367 1.58059 11.7209 1.70831 11.6068 1.97739L11.1936 2.95178C11.0795 3.22087 11.2103 3.52933 11.4858 3.64081C11.7624 3.75268 12.0776 3.62341 12.1912 3.35541Z" fill="black" fill-opacity="0.4"/>
<path d="M3.43566 6.09112L2.43807 5.68752C2.16258 5.57608 1.84678 5.70384 1.73264 5.97292C1.61854 6.24201 1.74934 6.55047 2.02484 6.66195L3.02242 7.06554C3.29903 7.17741 3.61419 7.04814 3.72786 6.78014C3.84195 6.51106 3.71116 6.20256 3.43566 6.09112Z" fill="black" fill-opacity="0.4"/>
<path d="M16.4044 11.338L15.4068 10.9344C15.1313 10.823 14.8155 10.9507 14.7014 11.2198C14.5873 11.4889 14.7181 11.7974 14.9936 11.9089L15.9912 12.3124C16.2678 12.4243 16.5829 12.295 16.6966 12.027C16.8107 11.758 16.6799 11.4495 16.4044 11.338Z" fill="black" fill-opacity="0.4"/>
<path d="M8.67383 15.3281V17.4726C8.67383 17.7638 8.91556 17.9999 9.21373 17.9999C9.51189 17.9999 9.75362 17.7638 9.75362 17.4726V15.3281C9.75362 15.0368 9.51189 14.8007 9.21373 14.8007C8.91556 14.8007 8.67383 15.0368 8.67383 15.3281Z" fill="black" fill-opacity="0.4"/>
<path d="M9.75362 2.67187V0.527343C9.75362 0.236109 9.51189 0 9.21373 0C8.91556 0 8.67383 0.236109 8.67383 0.527343V2.67187C8.67383 2.9631 8.91556 3.19921 9.21373 3.19921C9.51189 3.19921 9.75362 2.9631 9.75362 2.67187Z" fill="black" fill-opacity="0.4"/>
<path d="M0 8.99997C0 9.2912 0.24173 9.52731 0.539898 9.52731H2.73549C3.03365 9.52731 3.27538 9.2912 3.27538 8.99997C3.27538 8.70873 3.03365 8.47263 2.73549 8.47263H0.539898C0.24173 8.47263 0 8.70873 0 8.99997Z" fill="black" fill-opacity="0.4"/>
<path d="M17.8898 8.47263H15.6942C15.396 8.47263 15.1543 8.70873 15.1543 8.99997C15.1543 9.2912 15.396 9.52731 15.6942 9.52731H17.8898C18.1879 9.52731 18.4297 9.2912 18.4297 8.99997C18.4297 8.70873 18.1879 8.47263 17.8898 8.47263Z" fill="black" fill-opacity="0.4"/>
</svg>