<svg width="28" height="31" viewBox="0 0 28 31" fill="none" xmlns="http://www.w3.org/2000/svg">
<path d="M26.9788 17.5685C27.8637 10.1202 26.5537 5.41782 24.1908 3.29095L24.192 3.28972C20.3783 -0.342394 7.49842 -0.879981 2.93573 3.45285C0.886723 5.5723 0.164997 8.68289 0.085904 12.5337C0.00681072 16.3858 -0.0871126 23.6018 6.63705 25.5594H6.64323L6.63705 28.5489C6.63705 28.5489 6.59132 29.76 7.36495 30.0035C8.24981 30.2902 8.65022 29.7279 11.4024 26.4406C16.0047 26.8397 19.5391 25.9252 19.9408 25.7917C20.8701 25.4803 26.1286 24.7845 26.9788 17.5685ZM11.856 24.3372C11.856 24.3372 8.94311 27.9693 8.03725 28.9122C7.74065 29.2187 7.41562 29.1903 7.42057 28.5822C7.42057 28.1831 7.44281 23.6191 7.44281 23.6191C1.74192 21.9854 2.07806 15.8408 2.13986 12.6264C2.20165 9.41079 2.7899 6.77723 4.52501 5.00381C8.52787 1.25059 19.8197 2.08972 22.6967 4.79372C26.2139 7.91173 24.962 16.7207 24.9694 17.021C24.2464 23.0445 19.9853 23.4264 19.2017 23.6871C18.8668 23.7983 15.7587 24.5979 11.856 24.3372Z" fill="white"/>
<path d="M13.4682 5.7095C12.9924 5.7095 12.9924 6.451 13.4682 6.45718C17.1596 6.48561 20.1997 9.05861 20.2331 13.7782C20.2331 14.2763 20.9623 14.2701 20.9561 13.7721H20.9548C20.9153 8.68662 17.5959 5.73793 13.4682 5.7095Z" fill="white"/>
<path d="M18.3213 12.996C18.3101 13.4878 19.038 13.5113 19.0442 13.0133C19.1048 10.2092 17.3758 7.89941 14.1268 7.65595C13.651 7.62135 13.6016 8.36902 14.0762 8.40363C16.8939 8.61743 18.3781 10.5404 18.3213 12.996Z" fill="white"/>
<path d="M17.5455 16.1857C16.935 15.8322 16.3134 16.0522 16.0563 16.3995L15.5187 17.0952C15.2456 17.4487 14.7352 17.4017 14.7352 17.4017C11.0104 16.4168 10.0143 12.5189 10.0143 12.5189C10.0143 12.5189 9.96862 11.9912 10.3097 11.7082L10.982 11.1521C11.3181 10.8852 11.5307 10.2425 11.1884 9.61103C10.2739 7.95872 9.65966 7.389 9.347 6.95152C9.01827 6.53999 8.52393 6.4473 8.00983 6.72536H7.9987C6.92971 7.35069 5.75938 8.52103 6.13383 9.72596C6.77276 10.9964 7.9468 15.0462 11.6889 18.1061C13.4475 19.5533 16.2306 21.0363 17.412 21.3786L17.4232 21.3959C18.5873 21.784 19.7193 20.5679 20.3237 19.4668V19.4581C20.5918 18.9255 20.5029 18.4213 20.1111 18.0913C19.4166 17.4141 18.3686 16.6664 17.5455 16.1857Z" fill="white"/>
<path d="M14.6345 10.4143C15.8222 10.4835 16.3981 11.1039 16.4599 12.378C16.4821 12.876 17.2051 12.8414 17.1828 12.3434C17.1037 10.68 16.2362 9.7531 14.6741 9.66659C14.1983 9.63817 14.1538 10.3858 14.6345 10.4143Z" fill="white"/>
</svg>
