<svg width="18" height="13" viewBox="0 0 18 13" fill="none" xmlns="http://www.w3.org/2000/svg">
<path d="M9.10865 13C11.7126 13 10.7841 11.0951 10.9851 10.5473C10.9821 10.1383 10.9791 9.7448 10.9911 9.5056C11.1561 9.55933 11.5454 9.78727 12.3494 10.6903C13.5906 12.1377 13.9078 13 14.9106 13H16.7563C17.3413 13 17.6458 12.7201 17.7981 12.4852C17.9451 12.2581 18.0891 11.8595 17.9316 11.2389C17.5198 9.7448 15.1183 7.16473 14.9691 6.8926C14.9916 6.84233 15.0276 6.7756 15.0463 6.74093H15.0448C15.5188 6.01727 17.3278 2.88513 17.5941 1.63193C17.5948 1.6302 17.5956 1.6276 17.5956 1.625C17.7396 1.053 17.6076 0.682067 17.4711 0.472333C17.2656 0.1586 16.9386 0 16.4968 0H14.6511C14.0331 0 13.5644 0.359667 13.3274 1.01573C12.9306 2.1814 11.8161 4.5786 10.9806 5.42707C10.9551 4.225 10.9724 3.3072 10.9859 2.62513C11.0129 1.2948 11.0999 0 9.90514 0H7.00417C6.25568 0 5.53944 0.944667 6.31493 2.06613C6.99292 3.04893 6.55868 3.59667 6.70493 6.3232C6.13493 5.61687 5.12094 3.70933 4.40395 1.2714C4.20295 0.611867 3.89846 0.000866604 3.04122 0.000866604H1.19549C0.446995 0.000866604 0 0.472333 0 1.26187C0 3.03507 3.39671 13 9.10865 13ZM3.04122 1.30087C3.20396 1.30087 3.22046 1.30087 3.34121 1.69693C4.07546 4.19553 5.72244 7.89273 6.92542 7.89273C7.82916 7.89273 7.82916 6.8224 7.82916 6.4194L7.82841 3.211C7.77891 2.14933 7.44442 1.62067 7.22467 1.3L9.85564 1.30347C9.85714 1.3182 9.84064 4.85247 9.86314 5.70873C9.86314 6.92467 10.6986 7.62147 12.0029 6.09613C13.3791 4.30127 14.3308 1.61807 14.3691 1.50887C14.4253 1.35287 14.4741 1.3 14.6511 1.3H16.4968H16.5043C16.5036 1.3026 16.5036 1.3052 16.5028 1.3078C16.3341 2.2178 14.6683 5.11767 14.1111 6.01813C14.1021 6.032 14.0938 6.04673 14.0856 6.06147C13.8403 6.52427 13.6409 7.0356 14.1193 7.75493H14.1201C14.1636 7.8156 14.2768 7.95773 14.4418 8.15533C14.9548 8.7672 16.7143 10.8593 16.8703 11.6913C16.7668 11.7104 16.6543 11.6965 14.9106 11.7009C14.5393 11.7009 14.2491 11.0595 13.1414 9.7682C12.1454 8.64847 11.4989 8.19087 10.9101 8.19087C9.76714 8.19087 9.85039 9.26293 9.86089 10.5595C9.86464 11.9652 9.85714 11.5206 9.86539 11.609C9.79864 11.6393 9.6074 11.7 9.10865 11.7C4.34995 11.7 1.25099 2.9718 1.13174 1.30347C1.17299 1.29913 1.74073 1.30173 3.04122 1.30087Z" fill="white"/>
</svg>
