<svg width="29" height="28" viewBox="0 0 29 28" fill="none" xmlns="http://www.w3.org/2000/svg">
<path d="M4.01469 22.3359L4.09678 22.0912L3.94485 21.8825C2.33281 19.6687 1.38477 16.9426 1.38477 13.9999C1.38477 6.58209 7.41622 0.549133 14.8321 0.549133H14.8391C22.2549 0.549133 28.2864 6.58379 28.2864 13.9999C28.2864 21.4161 22.2549 27.4507 14.8391 27.4507C12.1028 27.4507 9.56695 26.6372 7.44051 25.2285L7.24057 25.0961L7.01213 25.1691L2.59001 26.5828L4.01469 22.3359Z" stroke="white"/>
<path d="M22.957 19.7494C22.6204 20.6998 21.2846 21.488 20.2192 21.7182C19.4902 21.8734 18.5381 21.9972 15.3329 20.6684C11.2331 18.9699 8.5929 14.8038 8.38713 14.5335C8.19007 14.2632 6.73047 12.3276 6.73047 10.3256C6.73047 8.32369 7.74713 7.34888 8.15694 6.93036C8.4935 6.58682 9.04979 6.42987 9.58341 6.42987C9.75605 6.42987 9.91125 6.43859 10.0508 6.44557C10.4606 6.463 10.6663 6.48742 10.9366 7.13439C11.2732 7.94528 12.0928 9.94722 12.1905 10.153C12.2899 10.3588 12.3893 10.6378 12.2498 10.9081C12.119 11.1871 12.0039 11.3109 11.7981 11.5481C11.5923 11.7852 11.397 11.9666 11.1912 12.2212C11.0029 12.4427 10.7902 12.6798 11.0273 13.0896C11.2645 13.4907 12.0841 14.8283 13.2908 15.9025C14.8481 17.2888 16.1106 17.7318 16.5623 17.9201C16.8989 18.0596 17.2999 18.0265 17.5458 17.7649C17.858 17.4283 18.2434 16.8703 18.6357 16.321C18.9148 15.9269 19.267 15.8781 19.6367 16.0176C20.0134 16.1484 22.0066 17.1336 22.4164 17.3377C22.8262 17.5434 23.0965 17.6411 23.1959 17.8137C23.2936 17.9864 23.2936 18.7973 22.957 19.7494Z" fill="white"/>
</svg>
