<svg width="491" height="490" viewBox="0 0 491 490" fill="none" xmlns="http://www.w3.org/2000/svg">
<path d="M278.8 189.2H229.5V139.9C229.5 128.6 220.4 119.5 209.1 119.5C197.8 119.5 188.7 128.6 188.7 139.9V189.2H139.4C128.1 189.2 119 198.3 119 209.6C119 220.9 128.1 230 139.4 230H188.7V279.3C188.7 290.6 197.8 299.7 209.1 299.7C220.4 299.7 229.5 290.6 229.5 279.3V230H278.8C290.1 230 299.2 220.9 299.2 209.6C299.2 198.3 290 189.2 278.8 189.2Z" fill="white"/>
<path d="M209.2 377.7C116.3 377.7 41 302.5 41 209.6C41 116.7 116.3 41.5 209.2 41.5C302.1 41.5 377.3 116.8 377.3 209.6C377.3 302.4 302 377.7 209.2 377.7V377.7ZM484 455.7L370.7 342.4C400.4 306.3 418.3 260 418.3 209.6C418.3 94.1 324.7 0.400024 209.1 0.400024C93.5 0.400024 0 94.1 0 209.6C0 325.1 93.6 418.8 209.2 418.8C259.6 418.8 305.8 401 341.9 371.3L455.2 484.6C460.4 489.9 476.3 492.5 484.1 484.6C492 476.6 492 463.7 484 455.7V455.7Z" fill="white"/>
</svg>
