<svg width="279" height="290" viewBox="0 0 279 290" fill="none" xmlns="http://www.w3.org/2000/svg">
<path fill-rule="evenodd" clip-rule="evenodd" d="M128.373 76.2726L209.031 151.061L80.657 289.509L80.0283 285.765L69.1615 221.02L3.78206 215.067L-0.00070728 214.721L128.373 76.2726Z" fill="url(#paint0_radial)"/>
<path fill-rule="evenodd" clip-rule="evenodd" d="M84.6504 129.346L177.766 70.793L278.272 230.626L274.492 230.264L209.141 224.003L186.469 285.614L185.156 289.178L84.6504 129.346Z" fill="url(#paint1_radial)"/>
<path d="M141.897 213.794C200.935 213.794 248.794 165.935 248.794 106.897C248.794 47.8595 200.935 0 141.897 0C82.8595 0 35 47.8595 35 106.897C35 165.935 82.8595 213.794 141.897 213.794Z" fill="url(#paint2_linear)"/>
<path d="M141.9 205.274C196.232 205.274 240.276 161.229 240.276 106.897C240.276 52.5655 196.232 8.52087 141.9 8.52087C87.568 8.52087 43.5234 52.5655 43.5234 106.897C43.5234 161.229 87.568 205.274 141.9 205.274Z" fill="url(#paint3_linear)"/>
<path d="M61.8873 85.6481L64.4287 86.475L63.9451 87.9612L56.7321 85.6143L57.6476 82.8004C57.8239 82.2587 58.0777 81.8154 58.4091 81.4703C58.7416 81.122 59.1271 80.8968 59.5657 80.7948C60.001 80.6917 60.4515 80.716 60.9172 80.8675C61.624 81.0974 62.1031 81.5218 62.3547 82.1405C62.604 82.7549 62.5895 83.4898 62.3112 84.3452L61.8873 85.6481ZM60.6835 85.2564L61.1154 83.9287C61.2433 83.5357 61.2481 83.2067 61.1298 82.9418C61.0125 82.6735 60.7822 82.4835 60.4387 82.3718C60.0853 82.2568 59.7658 82.2679 59.4801 82.405C59.1944 82.5422 58.9886 82.7929 58.8627 83.1574L58.4195 84.5198L60.6835 85.2564Z" fill="#333333"/>
<path d="M67.6864 70.1279L67.0873 71.2194L69.5215 72.5554L68.7696 73.9254L62.1201 70.2761L63.4761 67.8053C63.9072 67.0198 64.4148 66.51 64.9989 66.276C65.5829 66.0419 66.1947 66.1003 66.834 66.4512C67.2877 66.7001 67.6124 67.0071 67.8083 67.3721C68.0027 67.7324 68.0804 68.1613 68.0411 68.6587L71.5479 68.7114L71.6119 68.7465L70.8048 70.2171L67.6864 70.1279ZM65.9776 70.6104L66.5841 69.5052C66.7729 69.1611 66.8324 68.8471 66.7624 68.5631C66.6895 68.2774 66.4992 68.0502 66.1917 67.8814C65.8781 67.7093 65.5822 67.6638 65.304 67.7448C65.0274 67.8228 64.7881 68.046 64.5859 68.4144L63.9818 69.515L65.9776 70.6104Z" fill="#333333"/>
<path d="M76.5254 55.3624L74.646 57.7019L76.23 58.9744L78.4357 56.2288L79.4145 57.0152L76.2299 60.9793L70.3163 56.2285L73.4944 52.2725L74.4813 53.0654L72.2821 55.8029L73.6915 56.9351L75.5709 54.5956L76.5254 55.3624Z" fill="#333333"/>
<path d="M81.3901 43.3241L86.3931 46.3297L84.389 40.8518L85.9728 39.5461L90.7979 45.3991L89.5879 46.3966L88.269 44.7967L86.1129 41.9356L88.1287 47.5996L87.3006 48.2823L82.1325 45.2238L84.5265 47.882L85.8454 49.4819L84.6394 50.4761L79.8143 44.6231L81.3901 43.3241Z" fill="#333333"/>
<path d="M101.34 37.97L99.9875 38.7529L96.1879 32.1876L97.5407 31.4047L101.34 37.97Z" fill="#333333"/>
<path d="M108.477 25.9493L110.352 30.5803C110.663 31.3497 110.668 32.0559 110.366 32.6989C110.068 33.3406 109.502 33.8303 108.668 34.1679C107.847 34.5003 107.107 34.5469 106.448 34.3078C105.789 34.0687 105.301 33.5713 104.984 32.8154L103.087 28.1313L104.536 27.5447L106.415 32.1854C106.602 32.6458 106.847 32.9379 107.152 33.0617C107.459 33.181 107.807 33.1618 108.197 33.0041C109.011 32.6743 109.252 32.0786 108.918 31.2171L107.023 26.5378L108.477 25.9493Z" fill="#333333"/>
<path d="M121.555 21.4784L124.363 26.5951L125.391 20.8535L127.417 20.5234L128.637 28.0103L127.089 28.2624L126.755 26.2159L126.334 22.6581L125.222 28.5665L124.163 28.7391L121.239 23.4935L121.968 26.9958L122.302 29.0424L120.759 29.2937L119.539 21.8068L121.555 21.4784Z" fill="#333333"/>
<path d="M147.81 24.3227L147.476 26.9745L145.925 26.7793L146.872 19.253L149.808 19.6226C150.374 19.6937 150.857 19.8596 151.258 20.1201C151.663 20.3811 151.957 20.7174 152.139 21.129C152.323 21.5371 152.384 21.9842 152.322 22.4701C152.23 23.2075 151.903 23.758 151.343 24.1216C150.786 24.4821 150.062 24.6062 149.169 24.4939L147.81 24.3227ZM147.968 23.0666L149.353 23.241C149.763 23.2926 150.087 23.2354 150.325 23.0693C150.566 22.9037 150.71 22.6416 150.755 22.2832C150.801 21.9145 150.73 21.6027 150.542 21.348C150.353 21.0932 150.068 20.9383 149.687 20.8832L148.265 20.7043L147.968 23.0666Z" fill="#333333"/>
<path d="M164.148 27.0993L162.963 26.7158L162.108 29.3577L160.621 28.8763L162.957 21.6595L165.639 22.5276C166.491 22.8035 167.087 23.2064 167.427 23.7362C167.767 24.266 167.824 24.8778 167.599 25.5718C167.44 26.0641 167.2 26.4407 166.878 26.7016C166.56 26.9603 166.154 27.1171 165.658 27.1719L166.264 30.6265L166.242 30.6959L164.646 30.1792L164.148 27.0993ZM163.353 25.5113L164.553 25.8997C164.926 26.0205 165.246 26.02 165.512 25.8979C165.778 25.7726 165.966 25.5431 166.074 25.2093C166.184 24.869 166.173 24.5698 166.041 24.3117C165.913 24.0547 165.649 23.8615 165.249 23.732L164.054 23.3453L163.353 25.5113Z" fill="#333333"/>
<path d="M182.16 33.6309C181.798 34.2842 181.365 34.7929 180.862 35.1573C180.358 35.5216 179.817 35.718 179.237 35.7464C178.661 35.7765 178.094 35.6376 177.538 35.3296C176.988 35.025 176.571 34.6211 176.286 34.1178C176.001 33.6145 175.875 33.0527 175.909 32.4322C175.945 31.8088 176.138 31.1772 176.488 30.5374L176.67 30.2093C177.032 29.556 177.467 29.0466 177.975 28.6809C178.488 28.3138 179.032 28.1168 179.607 28.0897C180.186 28.0613 180.752 28.2002 181.305 28.5065C181.858 28.8127 182.275 29.2182 182.555 29.7229C182.84 30.2261 182.962 30.7917 182.92 31.4196C182.883 32.0461 182.684 32.6845 182.324 33.3347L182.16 33.6309ZM180.941 32.5628C181.326 31.867 181.494 31.2693 181.445 30.7698C181.397 30.2702 181.141 29.8925 180.679 29.6368C180.221 29.3827 179.767 29.3659 179.32 29.5864C178.874 29.8039 178.458 30.2567 178.073 30.9447L177.894 31.2683C177.519 31.9459 177.352 32.5405 177.394 33.0522C177.436 33.5639 177.691 33.9493 178.159 34.2085C178.618 34.4626 179.07 34.4785 179.514 34.2563C179.961 34.031 180.376 33.5744 180.762 32.8863L180.941 32.5628Z" fill="#333333"/>
<path d="M188.356 41.5222L193.211 35.6942L195.004 37.1882C195.517 37.6151 195.878 38.1124 196.087 38.6803C196.302 39.2477 196.344 39.8394 196.215 40.4553C196.089 41.0686 195.8 41.646 195.348 42.1877L195.125 42.4559C194.674 42.9976 194.16 43.3859 193.585 43.6208C193.012 43.8579 192.426 43.9235 191.827 43.8178C191.228 43.712 190.673 43.4481 190.161 43.0262L188.356 41.5222ZM193.602 37.6673L190.36 41.558L190.941 42.0415C191.41 42.4328 191.897 42.5784 192.401 42.4783C192.905 42.3781 193.397 42.0448 193.878 41.4782L194.135 41.17C194.629 40.5776 194.879 40.027 194.887 39.5183C194.897 39.0068 194.666 38.5544 194.194 38.1609L193.602 37.6673Z" fill="#333333"/>
<path d="M209.222 50.9262L205.357 54.0928C204.715 54.6189 204.042 54.8334 203.339 54.7365C202.637 54.6421 202.002 54.2471 201.431 53.5513C200.87 52.8662 200.606 52.1736 200.638 51.4734C200.671 50.7733 201.001 50.1594 201.628 49.6318L205.537 46.4289L206.527 47.6379L202.655 50.8111C202.271 51.1259 202.065 51.4472 202.037 51.7752C202.014 52.1037 202.136 52.4304 202.403 52.7555C202.96 53.4352 203.6 53.4876 204.323 52.9128L208.228 49.7132L209.222 50.9262Z" fill="#333333"/>
<path d="M214.416 67.5392C213.671 67.8779 212.962 67.9201 212.289 67.6656C211.618 67.4142 211.07 66.8981 210.645 66.1174C210.179 65.2634 210.1 64.4347 210.405 63.6312C210.716 62.8292 211.373 62.1547 212.376 61.6079L212.783 61.3861C213.424 61.0371 214.05 60.8425 214.661 60.8022C215.272 60.762 215.821 60.8802 216.307 61.1568C216.799 61.4347 217.196 61.8512 217.499 62.4063C217.917 63.1748 218.049 63.9061 217.893 64.6002C217.737 65.2942 217.307 65.8806 216.603 66.3593L215.855 64.9869C216.267 64.719 216.512 64.429 216.591 64.1169C216.675 63.8062 216.603 63.4404 216.373 63.0195C216.124 62.5621 215.772 62.3087 215.318 62.2594C214.869 62.2116 214.298 62.3724 213.605 62.7419L213.102 63.0161C212.382 63.4083 211.915 63.8033 211.701 64.201C211.488 64.6017 211.51 65.0369 211.766 65.5066C211.997 65.9305 212.265 66.1938 212.57 66.2965C212.88 66.4006 213.246 66.3574 213.668 66.1668L214.416 67.5392Z" fill="#333333"/>
<path d="M223.715 79.374L222.96 77.1764L216.983 79.229L216.475 77.7507L222.452 75.6982L221.708 73.5301L222.905 73.1189L224.912 78.9629L223.715 79.374Z" fill="#333333"/>
<path d="M60.2138 133.905L59.6132 132.408L65.3834 130.093L64.1121 128.529L65.3293 128.04L67.7014 130.715L67.7658 130.875L60.2138 133.905Z" fill="#333333"/>
<path d="M69.7776 146.336C68.8168 146.919 67.9613 147.165 67.2112 147.076C66.461 146.987 65.8536 146.559 65.3887 145.792C64.9297 145.035 64.8284 144.305 65.0849 143.601C65.3413 142.897 65.9328 142.258 66.8592 141.684L68.1381 140.908C69.1085 140.32 69.9665 140.074 70.7122 140.17C71.4599 140.269 72.0632 140.698 72.5223 141.455C72.9813 142.212 73.0826 142.942 72.8261 143.646C72.5728 144.348 71.983 144.986 71.0566 145.561L69.7776 146.336ZM70.3445 144.106C70.9204 143.757 71.2906 143.424 71.455 143.107C71.6246 142.791 71.6081 142.466 71.4055 142.132C71.2088 141.807 70.9375 141.643 70.5917 141.64C70.2509 141.637 69.812 141.793 69.2749 142.105L67.5855 143.129C67.0192 143.473 66.644 143.805 66.4597 144.125C66.2806 144.447 66.2943 144.778 66.5007 145.118C66.7051 145.456 66.9847 145.619 67.3394 145.608C67.6941 145.598 68.1454 145.431 68.6933 145.107L70.3445 144.106Z" fill="#333333"/>
<path d="M77.565 157.508C76.7109 158.238 75.9065 158.62 75.1518 158.653C74.3971 158.687 73.7284 158.363 73.1458 157.681C72.5704 157.008 72.3523 156.303 72.4917 155.567C72.6311 154.832 73.1115 154.105 73.9328 153.388L75.0697 152.416C75.9323 151.679 76.7393 151.298 77.4907 151.272C78.2446 151.249 78.9093 151.574 79.4847 152.247C80.0601 152.92 80.2781 153.625 80.1387 154.361C80.0022 155.094 79.5232 155.819 78.7018 156.536L77.565 157.508ZM77.7641 155.216C78.2759 154.778 78.5874 154.39 78.6984 154.05C78.8147 153.711 78.7459 153.393 78.492 153.096C78.2454 152.807 77.9512 152.689 77.6093 152.742C77.2727 152.795 76.8646 153.019 76.385 153.414L74.8833 154.698C74.3799 155.128 74.0632 155.516 73.9333 155.862C73.8085 156.209 73.8755 156.533 74.1342 156.836C74.3904 157.136 74.6928 157.252 75.0411 157.184C75.3895 157.116 75.8079 156.879 76.2963 156.471L77.7641 155.216Z" fill="#333333"/>
<path d="M84.6472 161.282C84.96 160.894 85.3393 160.681 85.7852 160.644C86.2333 160.603 86.6616 160.748 87.0701 161.077C87.4845 161.411 87.7208 161.799 87.7791 162.243C87.8397 162.684 87.7055 163.108 87.3763 163.517L87.1242 163.83C86.8091 164.221 86.4298 164.434 85.9863 164.468C85.5428 164.503 85.1168 164.355 84.7083 164.026C84.2969 163.695 84.0594 163.307 83.9959 162.864C83.9376 162.421 84.0718 161.996 84.3986 161.591L84.6472 161.282ZM85.212 162.289C85.072 162.463 85.008 162.643 85.0202 162.83C85.0375 163.016 85.1273 163.174 85.2896 163.305C85.4518 163.435 85.6239 163.486 85.8059 163.456C85.9879 163.425 86.1512 163.32 86.296 163.141L86.5551 162.819C86.6951 162.645 86.7606 162.466 86.7513 162.282C86.7421 162.098 86.6534 161.938 86.4854 161.803C86.326 161.674 86.1539 161.624 85.9691 161.652C85.7865 161.677 85.6194 161.783 85.4676 161.972L85.212 162.289ZM84.8043 167.278C85.1194 166.887 85.5001 166.676 85.9465 166.643C86.3952 166.608 86.8224 166.754 87.228 167.081C87.6394 167.413 87.8754 167.799 87.9361 168.239C88.002 168.679 87.868 169.107 87.5342 169.521L87.2821 169.834C86.9693 170.222 86.5914 170.436 86.1485 170.476C85.7079 170.513 85.2805 170.364 84.8662 170.03C84.449 169.694 84.2112 169.304 84.1529 168.861C84.0946 168.417 84.2253 167.997 84.5451 167.6L84.8043 167.278ZM85.3656 168.29C85.2372 168.449 85.1796 168.627 85.1929 168.824C85.2061 169.021 85.291 169.183 85.4474 169.309C85.8009 169.594 86.1352 169.54 86.4503 169.149L86.7165 168.819C86.8565 168.645 86.9193 168.466 86.9048 168.283C86.8927 168.096 86.8055 167.938 86.6433 167.807C86.481 167.676 86.3074 167.625 86.1226 167.653C85.94 167.677 85.7752 167.781 85.6282 167.964L85.3656 168.29ZM82.5365 167.229L82.1899 166.405L89.2645 163.949L89.6111 164.773L82.5365 167.229Z" fill="#333333"/>
<path d="M106.669 182.658C106.249 182.869 105.747 182.958 105.162 182.925C104.578 182.887 103.979 182.736 103.364 182.47C102.718 182.191 102.212 181.807 101.844 181.315C101.481 180.822 101.283 180.25 101.248 179.599C101.217 178.949 101.354 178.261 101.66 177.533L101.879 177.026C102.2 176.281 102.603 175.691 103.087 175.256C103.576 174.819 104.118 174.558 104.713 174.475C105.313 174.39 105.931 174.484 106.567 174.759C107.451 175.141 108.052 175.651 108.367 176.29C108.685 176.926 108.715 177.666 108.459 178.512L106.963 177.866C107.079 177.41 107.062 177.032 106.912 176.732C106.765 176.433 106.487 176.195 106.077 176.018C105.555 175.793 105.072 175.817 104.629 176.092C104.186 176.367 103.795 176.891 103.457 177.665L103.251 178.142C102.913 178.924 102.807 179.579 102.931 180.107C103.056 180.635 103.405 181.023 103.979 181.271C104.556 181.52 105.021 181.575 105.373 181.435L105.929 180.149L104.53 179.545L105.019 178.413L107.955 179.681L106.669 182.658Z" fill="#333333"/>
<path d="M123.266 180.926L122.133 186.156C121.945 187.025 121.523 187.654 120.868 188.041C120.217 188.429 119.421 188.521 118.479 188.317C117.552 188.116 116.869 187.711 116.429 187.102C115.99 186.493 115.858 185.758 116.033 184.898L117.179 179.607L118.816 179.962L117.68 185.203C117.568 185.723 117.609 186.13 117.804 186.423C118.004 186.714 118.324 186.907 118.764 187.002C119.684 187.202 120.256 186.819 120.48 185.855L121.625 180.57L123.266 180.926Z" fill="#333333"/>
<path d="M136.54 189.469L133.606 189.387L133.002 191.045L131.222 190.996L134.472 182.957L136.022 183.001L138.837 191.208L137.057 191.158L136.54 189.469ZM134.096 188.044L136.126 188.101L135.19 185.032L134.096 188.044Z" fill="#333333"/>
<path d="M150.235 188.016L148.918 188.224L149.38 191.162L147.726 191.423L146.463 183.395L149.446 182.926C150.394 182.777 151.159 182.873 151.74 183.215C152.321 183.556 152.672 184.113 152.794 184.885C152.88 185.433 152.832 185.909 152.651 186.314C152.473 186.715 152.161 187.062 151.713 187.355L153.966 190.362L153.978 190.439L152.203 190.718L150.235 188.016ZM148.707 186.884L150.041 186.674C150.456 186.609 150.762 186.453 150.957 186.208C151.151 185.959 151.219 185.649 151.16 185.278C151.101 184.899 150.946 184.618 150.695 184.436C150.447 184.252 150.101 184.196 149.657 184.266L148.328 184.475L148.707 186.884Z" fill="#333333"/>
<path d="M167.679 185.667L164.915 186.654L164.952 188.419L163.276 189.018L163.391 180.348L164.852 179.826L170.45 186.455L168.773 187.054L167.679 185.667ZM164.884 185.225L166.797 184.542L164.812 182.021L164.884 185.225Z" fill="#333333"/>
<path d="M184.51 180.101L183.07 180.956L177.538 178.023L180.268 182.62L178.828 183.475L174.679 176.489L176.118 175.634L181.661 178.573L178.925 173.966L180.36 173.114L184.51 180.101Z" fill="#333333"/>
<path d="M194.026 165.16L192.15 166.796L196.598 171.899L195.336 172.999L190.888 167.896L189.037 169.51L188.146 168.487L193.135 164.138L194.026 165.16Z" fill="#333333"/>
<path d="M204.872 158.959L202.819 161.432L204.494 162.823L206.903 159.919L207.938 160.778L204.459 164.97L198.206 159.78L201.678 155.597L202.722 156.463L200.319 159.358L201.809 160.595L203.863 158.121L204.872 158.959Z" fill="#333333"/>
<path d="M212.939 147.972L211.315 150.746L213.193 151.846L215.1 148.591L216.26 149.27L213.507 153.971L206.496 149.864L209.243 145.173L210.413 145.859L208.512 149.104L210.183 150.083L211.808 147.309L212.939 147.972Z" fill="#333333"/>
<path d="M220.675 141.793L213.054 138.971L213.923 136.626C214.171 135.956 214.544 135.414 215.043 135C215.539 134.58 216.122 134.326 216.79 134.236C217.454 134.145 218.141 134.231 218.849 134.493L219.2 134.623C219.908 134.885 220.484 135.265 220.927 135.762C221.371 136.256 221.646 136.824 221.753 137.467C221.86 138.11 221.792 138.765 221.549 139.433L220.675 141.793ZM214.908 137.872L219.995 139.756L220.276 138.997C220.503 138.383 220.477 137.839 220.196 137.366C219.914 136.893 219.402 136.515 218.658 136.231L218.255 136.082C217.48 135.795 216.835 135.739 216.318 135.912C215.798 136.085 215.423 136.48 215.195 137.097L214.908 137.872Z" fill="#333333"/>
<path d="M65.2279 98.5315L67.9439 104.041L74.0221 104.922L69.624 109.213L70.662 115.264L65.2279 112.403L59.786 115.264L60.8278 109.213L56.4316 104.922L62.5079 104.041L65.2279 98.5315Z" fill="#333333"/>
<path d="M215.687 98.5315L218.403 104.041L224.483 104.922L220.085 109.213L221.123 115.264L215.687 112.403L210.247 115.264L211.289 109.213L206.891 104.922L212.969 104.041L215.687 98.5315Z" fill="#333333"/>
<path d="M196.86 123.566H88.4863V124.769H196.86V123.566Z" fill="#333333"/>
<path d="M169.919 92.6991C169.919 97.7234 168.554 102.035 165.823 105.633C163.158 109.164 159.861 111.71 155.931 113.271C152.001 114.833 147.771 115.614 143.242 115.614C136.381 115.614 130.386 114.018 125.257 110.827C120.128 107.636 116.664 102.849 114.865 96.4673L130.452 92.2918C131.118 94.8039 132.517 96.9426 134.649 98.7078C136.78 100.405 139.378 101.254 142.442 101.254C145.173 101.254 147.571 100.507 149.636 99.0134C151.701 97.5197 152.734 95.2112 152.734 92.0881C152.734 88.6933 151.335 86.283 148.537 84.8572C145.806 83.3635 142.409 82.6167 138.346 82.6167H133.849V70.09H138.745C147.005 70.09 151.135 67.2384 151.135 61.5352C151.135 59.091 150.269 57.156 148.537 55.7302C146.805 54.3044 144.707 53.5915 142.242 53.5915C139.844 53.5915 137.746 54.3383 135.948 55.832C134.216 57.2578 133.083 59.1929 132.551 61.6371L116.963 57.9707C118.629 52.1318 121.893 47.6167 126.755 44.4257C131.618 41.2346 137.147 39.639 143.342 39.639C150.136 39.639 155.964 41.4043 160.827 44.9349C165.756 48.4654 168.221 53.4897 168.221 60.0076C168.221 63.8776 167.122 67.2384 164.924 70.09C162.725 72.8737 159.861 74.7408 156.331 75.6914V75.9969C160.327 76.9474 163.591 78.9843 166.123 82.1075C168.654 85.1628 169.919 88.6933 169.919 92.6991Z" fill="black"/>
<path d="M115.538 132.583L108.521 142.848V150.395H104.11V142.848L97.248 132.583H102.588L106.483 139.174L110.378 132.583H115.538Z" fill="black"/>
<path d="M129.647 150.395H116.903V132.583H129.182V136.231H121.16V139.577H128.744V143.024H121.16V146.722H129.647V150.395Z" fill="black"/>
<path d="M149.856 150.395H144.955L143.536 146.898H136.468L135.126 150.395H130.328L137.99 132.583H142.272L149.856 150.395ZM142.324 143.451L140.054 137.338L137.732 143.451H142.324Z" fill="black"/>
<path d="M166.302 150.395H161.142L157.196 143.326H155.699V150.395H151.366V132.583H158.331C159.259 132.583 160.119 132.675 160.91 132.859C161.701 133.044 162.441 133.338 163.129 133.74C163.817 134.143 164.35 134.705 164.728 135.426C165.124 136.147 165.321 136.994 165.321 137.967C165.321 139.141 164.986 140.147 164.315 140.986C163.645 141.825 162.716 142.42 161.529 142.772L166.302 150.395ZM160.962 138.042C160.962 136.717 159.982 136.055 158.021 136.055H155.674V140.206H157.763C159.896 140.206 160.962 139.485 160.962 138.042Z" fill="black"/>
<path d="M180.93 134.319L178.119 137.212C177.757 136.759 177.267 136.39 176.648 136.105C176.046 135.82 175.453 135.677 174.868 135.677C174.18 135.677 173.578 135.82 173.062 136.105C172.564 136.373 172.314 136.826 172.314 137.464C172.314 137.749 172.375 138 172.495 138.218C172.615 138.42 172.813 138.604 173.088 138.772C173.381 138.923 173.664 139.057 173.94 139.174C174.215 139.275 174.61 139.401 175.126 139.552C175.797 139.77 176.321 139.946 176.7 140.08C177.078 140.214 177.56 140.441 178.144 140.759C178.746 141.061 179.211 141.38 179.537 141.716C179.864 142.051 180.156 142.504 180.414 143.074C180.672 143.628 180.801 144.24 180.801 144.911C180.801 146.84 180.122 148.316 178.763 149.339C177.422 150.345 175.771 150.848 173.811 150.848C172.486 150.848 171.214 150.622 169.993 150.169C168.772 149.716 167.766 149.087 166.975 148.282L169.864 145.414C170.311 145.967 170.896 146.42 171.618 146.773C172.357 147.125 173.088 147.301 173.811 147.301C174.55 147.301 175.152 147.15 175.616 146.848C176.098 146.529 176.339 146.035 176.339 145.364C176.339 145.095 176.27 144.86 176.132 144.659C176.012 144.441 175.874 144.265 175.719 144.131C175.565 143.98 175.29 143.82 174.894 143.653C174.498 143.485 174.163 143.359 173.888 143.275C173.613 143.175 173.166 143.024 172.547 142.823C171.876 142.604 171.3 142.378 170.818 142.143C170.337 141.908 169.855 141.598 169.374 141.212C168.892 140.827 168.522 140.34 168.264 139.753C168.006 139.166 167.877 138.487 167.877 137.715C167.877 136.776 168.084 135.937 168.497 135.199C168.909 134.445 169.46 133.857 170.147 133.438C170.835 133.002 171.583 132.675 172.392 132.457C173.217 132.239 174.069 132.13 174.946 132.13C176.012 132.13 177.078 132.323 178.144 132.709C179.228 133.078 180.156 133.614 180.93 134.319Z" fill="black"/>
<defs>
<radialGradient id="paint0_radial" cx="0" cy="0" r="1" gradientUnits="userSpaceOnUse" gradientTransform="translate(135.298 153.444) rotate(42.8377) scale(192.636)">
<stop/>
<stop offset="0.0977" stop-color="#002200"/>
<stop offset="0.2284" stop-color="#004800"/>
<stop offset="0.3643" stop-color="#006800"/>
<stop offset="0.5047" stop-color="#008100"/>
<stop offset="0.6515" stop-color="#009200"/>
<stop offset="0.8089" stop-color="#009D00"/>
<stop offset="0.9954" stop-color="#00A000"/>
</radialGradient>
<radialGradient id="paint1_radial" cx="0" cy="0" r="1" gradientUnits="userSpaceOnUse" gradientTransform="translate(160.985 142.63) rotate(-32.1623) scale(192.636)">
<stop/>
<stop offset="0.0977" stop-color="#002200"/>
<stop offset="0.2284" stop-color="#004800"/>
<stop offset="0.3643" stop-color="#006800"/>
<stop offset="0.5047" stop-color="#008100"/>
<stop offset="0.6515" stop-color="#009200"/>
<stop offset="0.8089" stop-color="#009D00"/>
<stop offset="0.9954" stop-color="#00A000"/>
</radialGradient>
<linearGradient id="paint2_linear" x1="141.898" y1="238.298" x2="141.898" y2="-255.454" gradientUnits="userSpaceOnUse">
<stop offset="0.0046" stop-color="#007D00"/>
<stop offset="0.2121" stop-color="#007A00"/>
<stop offset="0.3873" stop-color="#006F00"/>
<stop offset="0.5506" stop-color="#005E00"/>
<stop offset="0.7068" stop-color="#004500"/>
<stop offset="0.8565" stop-color="#002600"/>
<stop offset="1"/>
</linearGradient>
<linearGradient id="paint3_linear" x1="141.901" y1="-22.7266" x2="141.901" y2="358.59" gradientUnits="userSpaceOnUse">
<stop stop-color="#A4A4A4"/>
<stop offset="0.0894" stop-color="#C0C0C0"/>
<stop offset="0.1838" stop-color="#D7D7D7"/>
<stop offset="0.2433" stop-color="#DFDFDF"/>
<stop offset="0.3539" stop-color="#DFDFDF"/>
<stop offset="0.4232" stop-color="#D8D8D8"/>
<stop offset="0.5274" stop-color="#C3C3C3"/>
<stop offset="0.6529" stop-color="#A2A2A2"/>
<stop offset="0.7601" stop-color="#808080"/>
<stop offset="0.8918" stop-color="#616161"/>
</linearGradient>
</defs>
</svg>
