<svg width="279" height="277" viewBox="0 0 279 277" fill="none" xmlns="http://www.w3.org/2000/svg">
<path fill-rule="evenodd" clip-rule="evenodd" d="M128.373 63.2726L209.031 138.061L80.657 276.509L80.0283 272.765L69.1615 208.02L3.78206 202.067L-0.00070728 201.721L128.373 63.2726Z" fill="url(#paint0_radial)"/>
<path fill-rule="evenodd" clip-rule="evenodd" d="M84.6504 116.346L177.766 57.793L278.272 217.626L274.492 217.264L209.141 211.003L186.469 272.614L185.156 276.178L84.6504 116.346Z" fill="url(#paint1_radial)"/>
<path d="M138.897 213.794C197.935 213.794 245.794 165.935 245.794 106.897C245.794 47.8595 197.935 0 138.897 0C79.8595 0 32 47.8595 32 106.897C32 165.935 79.8595 213.794 138.897 213.794Z" fill="url(#paint2_linear)"/>
<path d="M138.9 205.273C193.232 205.273 237.276 161.229 237.276 106.897C237.276 52.5652 193.232 8.52063 138.9 8.52063C84.568 8.52063 40.5234 52.5652 40.5234 106.897C40.5234 161.229 84.568 205.273 138.9 205.273Z" fill="url(#paint3_linear)"/>
<path d="M115.047 130.985L108.229 140.961V148.296H103.942V140.961L97.2734 130.985H102.463L106.248 137.391L110.034 130.985H115.047Z" fill="black"/>
<path d="M128.759 148.296H116.375V130.985H128.308V134.53H120.511V137.782H127.881V141.132H120.511V144.726H128.759V148.296Z" fill="black"/>
<path d="M148.398 148.296H143.635L142.256 144.897H135.388L134.084 148.296H129.421L136.867 130.985H141.028L148.398 148.296ZM141.078 141.547L138.872 135.606L136.616 141.547H141.078Z" fill="black"/>
<path d="M164.38 148.296H159.366L155.531 141.425H154.077V148.296H149.865V130.985H156.634C157.536 130.985 158.372 131.075 159.141 131.254C159.91 131.433 160.628 131.719 161.297 132.11C161.965 132.501 162.483 133.047 162.851 133.748C163.235 134.449 163.428 135.272 163.428 136.217C163.428 137.358 163.102 138.336 162.45 139.151C161.798 139.966 160.896 140.545 159.742 140.887L164.38 148.296ZM159.191 136.291C159.191 135.003 158.238 134.359 156.333 134.359H154.052V138.393H156.082C158.155 138.393 159.191 137.693 159.191 136.291Z" fill="black"/>
<path d="M178.597 132.672L175.864 135.484C175.513 135.044 175.037 134.685 174.435 134.408C173.85 134.131 173.274 133.992 172.705 133.992C172.037 133.992 171.452 134.131 170.95 134.408C170.466 134.669 170.223 135.109 170.223 135.728C170.223 136.006 170.282 136.25 170.399 136.462C170.516 136.658 170.708 136.837 170.976 137C171.26 137.147 171.535 137.277 171.803 137.391C172.07 137.489 172.455 137.611 172.956 137.758C173.608 137.97 174.118 138.141 174.485 138.271C174.853 138.402 175.321 138.622 175.889 138.931C176.474 139.225 176.925 139.534 177.243 139.86C177.56 140.186 177.844 140.627 178.095 141.181C178.346 141.719 178.471 142.314 178.471 142.966C178.471 144.84 177.811 146.274 176.491 147.269C175.187 148.247 173.583 148.736 171.677 148.736C170.391 148.736 169.154 148.516 167.967 148.076C166.781 147.635 165.803 147.024 165.034 146.242L167.842 143.455C168.276 143.992 168.845 144.433 169.547 144.775C170.265 145.117 170.976 145.288 171.677 145.288C172.396 145.288 172.981 145.142 173.432 144.848C173.9 144.539 174.134 144.058 174.134 143.406C174.134 143.145 174.067 142.917 173.934 142.721C173.817 142.509 173.683 142.338 173.533 142.208C173.382 142.061 173.115 141.906 172.73 141.743C172.346 141.58 172.02 141.458 171.753 141.376C171.485 141.279 171.051 141.132 170.449 140.936C169.797 140.724 169.237 140.504 168.769 140.276C168.302 140.048 167.834 139.746 167.366 139.371C166.898 138.997 166.538 138.524 166.288 137.953C166.037 137.383 165.912 136.723 165.912 135.973C165.912 135.06 166.112 134.245 166.513 133.528C166.914 132.794 167.449 132.224 168.118 131.816C168.786 131.393 169.513 131.075 170.299 130.863C171.101 130.651 171.928 130.545 172.781 130.545C173.817 130.545 174.853 130.732 175.889 131.107C176.942 131.466 177.844 131.988 178.597 132.672Z" fill="black"/>
<path d="M58.8853 85.6486L61.4267 86.4755L60.9432 87.9617L53.7301 85.6147L54.6457 82.8009C54.8219 82.2592 55.0757 81.8159 55.4072 81.4708C55.7396 81.1225 56.1252 80.8973 56.5638 80.7953C56.9991 80.6922 57.4496 80.7164 57.9152 80.868C58.622 81.0979 59.1012 81.5223 59.3527 82.141C59.6021 82.7554 59.5876 83.4903 59.3093 84.3457L58.8853 85.6486ZM57.6815 85.2569L58.1135 83.9292C58.2414 83.5362 58.2461 83.2072 58.1278 82.9423C58.0106 82.674 57.7802 82.484 57.4367 82.3723C57.0833 82.2573 56.7638 82.2684 56.4781 82.4055C56.1925 82.5426 55.9867 82.7934 55.8608 83.1579L55.4175 84.5202L57.6815 85.2569Z" fill="#333333"/>
<path d="M64.6844 70.1282L64.0854 71.2197L66.5196 72.5556L65.7676 73.9257L59.1182 70.2763L60.4742 67.8056C60.9053 67.0201 61.4129 66.5103 61.9969 66.2762C62.581 66.0421 63.1927 66.1005 63.8321 66.4514C64.2857 66.7004 64.6105 67.0074 64.8063 67.3724C65.0008 67.7327 65.0784 68.1615 65.0391 68.6589L68.546 68.7117L68.6099 68.7468L67.8028 70.2173L64.6844 70.1282ZM62.9756 70.6106L63.5822 69.5054C63.771 69.1614 63.8304 68.8473 63.7605 68.5633C63.6875 68.2776 63.4973 68.0504 63.1897 67.8817C62.8762 67.7095 62.5802 67.664 62.302 67.7451C62.0255 67.8231 61.7861 68.0463 61.5839 68.4147L60.9799 69.5153L62.9756 70.6106Z" fill="#333333"/>
<path d="M73.5215 55.3625L71.6421 57.702L73.2261 58.9745L75.4318 56.2289L76.4106 57.0153L73.226 60.9794L67.3124 56.2286L70.4905 52.2726L71.4774 53.0655L69.2782 55.803L70.6876 56.9352L72.567 54.5958L73.5215 55.3625Z" fill="#333333"/>
<path d="M78.3921 43.3241L83.3951 46.3297L81.3909 40.8518L82.9747 39.5461L87.7999 45.3991L86.5899 46.3966L85.2709 44.7967L83.1148 41.9356L85.1307 47.5996L84.3026 48.2823L79.1344 45.2238L81.5284 47.882L82.8474 49.4819L81.6414 50.4761L76.8163 44.6231L78.3921 43.3241Z" fill="#333333"/>
<path d="M98.3422 37.9701L96.9894 38.753L93.1899 32.1877L94.5426 31.4049L98.3422 37.9701Z" fill="#333333"/>
<path d="M105.479 25.9494L107.354 30.5804C107.665 31.3498 107.67 32.056 107.368 32.699C107.07 33.3407 106.504 33.8304 105.67 34.168C104.849 34.5004 104.109 34.547 103.45 34.3079C102.791 34.0689 102.303 33.5714 101.986 32.8155L100.089 28.1314L101.538 27.5449L103.417 32.1855C103.603 32.6459 103.849 32.938 104.154 33.0618C104.461 33.1811 104.809 33.1619 105.199 33.0042C106.013 32.6744 106.253 32.0787 105.92 31.2172L104.025 26.5379L105.479 25.9494Z" fill="#333333"/>
<path d="M118.555 21.4785L121.363 26.5953L122.391 20.8536L124.417 20.5235L125.637 28.0104L124.089 28.2626L123.755 26.216L123.334 22.6583L122.222 28.5667L121.163 28.7392L118.239 23.4936L118.968 26.9959L119.302 29.0425L117.759 29.2938L116.539 21.8069L118.555 21.4785Z" fill="#333333"/>
<path d="M144.811 24.3228L144.478 26.9746L142.927 26.7794L143.874 19.2531L146.81 19.6227C147.376 19.6938 147.859 19.8597 148.26 20.1203C148.665 20.3812 148.959 20.7175 149.141 21.1291C149.324 21.5373 149.385 21.9843 149.324 22.4702C149.231 23.2076 148.905 23.7582 148.345 24.1217C147.788 24.4822 147.064 24.6063 146.171 24.494L144.811 24.3228ZM144.97 23.0667L146.355 23.2411C146.765 23.2927 147.089 23.2355 147.327 23.0694C147.568 22.9038 147.712 22.6417 147.757 22.2834C147.803 21.9146 147.732 21.6029 147.544 21.3481C147.355 21.0933 147.07 20.9384 146.688 20.8834L145.267 20.7044L144.97 23.0667Z" fill="#333333"/>
<path d="M161.148 27.0993L159.963 26.7158L159.108 29.3577L157.621 28.8763L159.957 21.6595L162.639 22.5276C163.491 22.8035 164.087 23.2064 164.427 23.7362C164.767 24.266 164.824 24.8778 164.599 25.5718C164.44 26.0641 164.2 26.4407 163.878 26.7016C163.56 26.9603 163.154 27.1171 162.658 27.1719L163.264 30.6265L163.242 30.6959L161.646 30.1792L161.148 27.0993ZM160.353 25.5113L161.553 25.8997C161.926 26.0205 162.246 26.02 162.512 25.8979C162.778 25.7726 162.966 25.5431 163.074 25.2093C163.184 24.869 163.173 24.5698 163.041 24.3117C162.913 24.0547 162.649 23.8615 162.249 23.732L161.054 23.3453L160.353 25.5113Z" fill="#333333"/>
<path d="M179.158 33.6309C178.796 34.2842 178.363 34.7929 177.86 35.1573C177.356 35.5216 176.815 35.718 176.235 35.7464C175.659 35.7765 175.092 35.6376 174.536 35.3296C173.986 35.025 173.569 34.6211 173.284 34.1178C172.999 33.6145 172.873 33.0527 172.907 32.4322C172.943 31.8088 173.136 31.1772 173.486 30.5374L173.668 30.2093C174.03 29.556 174.465 29.0466 174.973 28.6809C175.486 28.3138 176.03 28.1168 176.605 28.0897C177.184 28.0613 177.75 28.2002 178.303 28.5065C178.856 28.8127 179.273 29.2182 179.553 29.7229C179.838 30.2261 179.96 30.7917 179.918 31.4196C179.881 32.0461 179.682 32.6845 179.322 33.3347L179.158 33.6309ZM177.939 32.5628C178.324 31.867 178.492 31.2693 178.443 30.7698C178.395 30.2702 178.139 29.8925 177.677 29.6368C177.219 29.3827 176.765 29.3659 176.318 29.5864C175.872 29.8039 175.456 30.2567 175.071 30.9447L174.892 31.2683C174.517 31.9459 174.35 32.5405 174.392 33.0522C174.434 33.5639 174.689 33.9493 175.157 34.2085C175.616 34.4626 176.068 34.4785 176.512 34.2563C176.959 34.031 177.375 33.5744 177.76 32.8863L177.939 32.5628Z" fill="#333333"/>
<path d="M185.358 41.5224L190.213 35.6945L192.006 37.1885C192.519 37.6153 192.88 38.1127 193.089 38.6805C193.304 39.248 193.346 39.8396 193.217 40.4556C193.091 41.0688 192.802 41.6463 192.35 42.188L192.127 42.4562C191.676 42.9979 191.162 43.3862 190.587 43.621C190.014 43.8581 189.428 43.9238 188.829 43.818C188.23 43.7122 187.675 43.4484 187.163 43.0264L185.358 41.5224ZM190.604 37.6676L187.362 41.5582L187.943 42.0417C188.412 42.433 188.899 42.5786 189.403 42.4785C189.907 42.3784 190.399 42.045 190.88 41.4784L191.137 41.1702C191.63 40.5778 191.881 40.0272 191.889 39.5185C191.899 39.0071 191.668 38.5546 191.196 38.1611L190.604 37.6676Z" fill="#333333"/>
<path d="M206.214 50.9267L202.35 54.0933C201.707 54.6194 201.035 54.8339 200.331 54.7369C199.63 54.6426 198.994 54.2476 198.424 53.5518C197.862 52.8667 197.598 52.1741 197.63 51.4739C197.663 50.7738 197.993 50.1599 198.62 49.6323L202.529 46.4294L203.52 47.6384L199.647 50.8116C199.263 51.1263 199.057 51.4477 199.029 51.7757C199.007 52.1041 199.128 52.4309 199.395 52.756C199.952 53.4357 200.592 53.4881 201.315 52.9133L205.22 49.7137L206.214 50.9267Z" fill="#333333"/>
<path d="M211.414 67.5391C210.669 67.8778 209.96 67.9199 209.288 67.6655C208.617 67.4141 208.068 66.898 207.643 66.1172C207.178 65.2633 207.098 64.4346 207.404 63.6311C207.714 62.829 208.371 62.1546 209.374 61.6078L209.782 61.386C210.422 61.037 211.048 60.8423 211.659 60.8021C212.27 60.7619 212.819 60.8801 213.305 61.1566C213.797 61.4346 214.194 61.8511 214.497 62.4062C214.915 63.1747 215.047 63.906 214.891 64.6C214.735 65.2941 214.305 65.8804 213.601 66.3592L212.853 64.9867C213.265 64.7188 213.51 64.4289 213.59 64.1168C213.673 63.8061 213.601 63.4403 213.371 63.0194C213.122 62.5619 212.77 62.3086 212.316 62.2593C211.867 62.2115 211.296 62.3723 210.603 62.7418L210.1 63.016C209.38 63.4082 208.913 63.8032 208.699 64.2009C208.486 64.6016 208.508 65.0368 208.764 65.5065C208.995 65.9304 209.263 66.1937 209.568 66.2964C209.878 66.4005 210.244 66.3572 210.666 66.1667L211.414 67.5391Z" fill="#333333"/>
<path d="M220.711 79.374L219.956 77.1764L213.979 79.229L213.471 77.7507L219.448 75.6982L218.704 73.5301L219.901 73.1189L221.908 78.9629L220.711 79.374Z" fill="#333333"/>
<path d="M60.5127 136.695L59.912 135.198L65.6822 132.882L64.4109 131.318L65.6282 130.829L68.0002 133.504L68.0646 133.664L60.5127 136.695Z" fill="#333333"/>
<path d="M69.8675 148.603C68.9066 149.185 68.0512 149.432 67.301 149.343C66.5509 149.254 65.9434 148.826 65.4786 148.059C65.0195 147.302 64.9182 146.572 65.1747 145.868C65.4312 145.164 66.0226 144.525 66.949 143.95L68.228 143.175C69.1983 142.587 70.0564 142.341 70.8021 142.437C71.5497 142.536 72.1531 142.964 72.6121 143.721C73.0712 144.479 73.1724 145.209 72.916 145.913C72.6627 146.615 72.0728 147.253 71.1464 147.827L69.8675 148.603ZM70.4344 146.373C71.0102 146.024 71.3804 145.691 71.5448 145.374C71.7144 145.058 71.6979 144.733 71.4954 144.398C71.2987 144.074 71.0274 143.91 70.6815 143.906C70.3408 143.904 69.9019 144.059 69.3648 144.372L67.6754 145.396C67.1091 145.739 66.7338 146.071 66.5496 146.392C66.3705 146.714 66.3841 147.045 66.5905 147.385C66.795 147.722 67.0745 147.886 67.4293 147.875C67.784 147.865 68.2353 147.698 68.7832 147.374L70.4344 146.373Z" fill="#333333"/>
<path d="M77.3775 159.29C76.5234 160.02 75.719 160.402 74.9643 160.435C74.2096 160.469 73.5409 160.145 72.9583 159.463C72.3829 158.79 72.1648 158.085 72.3042 157.349C72.4436 156.614 72.924 155.887 73.7453 155.17L74.8822 154.198C75.7448 153.461 76.5518 153.079 77.3032 153.054C78.0571 153.031 78.7218 153.356 79.2972 154.029C79.8726 154.702 80.0906 155.407 79.9512 156.143C79.8147 156.876 79.3357 157.601 78.5143 158.318L77.3775 159.29ZM77.5766 156.998C78.0884 156.56 78.3999 156.172 78.5109 155.832C78.6272 155.493 78.5584 155.175 78.3045 154.878C78.0579 154.589 77.7637 154.471 77.4218 154.524C77.0852 154.577 76.6771 154.801 76.1975 155.196L74.6958 156.48C74.1924 156.91 73.8757 157.298 73.7458 157.644C73.621 157.991 73.688 158.315 73.9467 158.618C74.2029 158.918 74.5053 159.034 74.8536 158.966C75.202 158.898 75.6204 158.661 76.1088 158.253L77.5766 156.998Z" fill="#333333"/>
<path d="M84.1101 162.633C84.4229 162.245 84.8022 162.032 85.248 161.995C85.6962 161.955 86.1245 162.099 86.533 162.428C86.9473 162.762 87.1837 163.151 87.242 163.594C87.3026 164.035 87.1684 164.459 86.8392 164.868L86.5871 165.181C86.272 165.572 85.8927 165.785 85.4492 165.819C85.0057 165.854 84.5797 165.706 84.1712 165.377C83.7598 165.046 83.5223 164.659 83.4588 164.216C83.4005 163.772 83.5347 163.347 83.8615 162.942L84.1101 162.633ZM84.6749 163.64C84.5349 163.814 84.4709 163.994 84.483 164.181C84.5004 164.367 84.5902 164.525 84.7525 164.656C84.9147 164.787 85.0868 164.837 85.2688 164.807C85.4508 164.777 85.6141 164.672 85.7589 164.492L86.018 164.17C86.158 163.997 86.2234 163.818 86.2142 163.633C86.205 163.449 86.1163 163.289 85.9483 163.154C85.7889 163.025 85.6168 162.975 85.4319 163.003C85.2494 163.028 85.0823 163.135 84.9305 163.323L84.6749 163.64ZM84.2671 168.63C84.5823 168.238 84.963 168.027 85.4094 167.995C85.8581 167.96 86.2853 168.105 86.6909 168.432C87.1023 168.764 87.3383 169.15 87.399 169.59C87.4649 170.031 87.3309 170.458 86.9971 170.872L86.745 171.185C86.4322 171.573 86.0543 171.787 85.6114 171.827C85.1708 171.864 84.7434 171.715 84.3291 171.381C83.9119 171.045 83.6741 170.655 83.6158 170.212C83.5575 169.768 83.6882 169.348 84.008 168.951L84.2671 168.63ZM84.8284 169.641C84.7001 169.8 84.6425 169.978 84.6558 170.175C84.669 170.372 84.7539 170.534 84.9103 170.66C85.2638 170.945 85.5981 170.892 85.9132 170.501L86.1793 170.17C86.3194 169.996 86.3822 169.818 86.3677 169.634C86.3556 169.447 86.2684 169.289 86.1061 169.158C85.9439 169.027 85.7703 168.976 85.5855 169.004C85.4029 169.029 85.2381 169.132 85.0911 169.315L84.8284 169.641ZM81.9994 168.58L81.6527 167.756L88.7274 165.3L89.074 166.124L81.9994 168.58Z" fill="#333333"/>
<path d="M105.364 183.416C104.945 183.628 104.442 183.716 103.857 183.683C103.273 183.645 102.674 183.494 102.059 183.228C101.413 182.95 100.907 182.565 100.539 182.074C100.177 181.581 99.9781 181.008 99.9432 180.357C99.9118 179.707 100.049 179.019 100.355 178.291L100.574 177.784C100.896 177.04 101.298 176.449 101.782 176.014C102.271 175.577 102.813 175.316 103.409 175.233C104.009 175.148 104.627 175.242 105.262 175.517C106.147 175.899 106.747 176.409 107.063 177.048C107.38 177.684 107.411 178.424 107.155 179.27L105.659 178.624C105.775 178.168 105.758 177.79 105.607 177.49C105.461 177.191 105.182 176.954 104.772 176.776C104.25 176.551 103.767 176.575 103.324 176.85C102.881 177.125 102.491 177.649 102.152 178.423L101.947 178.9C101.609 179.682 101.502 180.337 101.627 180.865C101.751 181.393 102.1 181.781 102.674 182.029C103.252 182.278 103.716 182.333 104.069 182.193L104.624 180.907L103.225 180.303L103.714 179.171L106.65 180.439L105.364 183.416Z" fill="#333333"/>
<path d="M121.366 181.414L120.233 186.645C120.045 187.514 119.623 188.142 118.968 188.529C118.317 188.917 117.52 189.009 116.579 188.805C115.651 188.604 114.968 188.199 114.529 187.59C114.09 186.981 113.958 186.247 114.133 185.386L115.279 180.095L116.915 180.45L115.78 185.691C115.667 186.211 115.708 186.618 115.904 186.912C116.103 187.202 116.423 187.395 116.863 187.491C117.783 187.69 118.355 187.308 118.579 186.344L119.724 181.058L121.366 181.414Z" fill="#333333"/>
<path d="M133.997 189.807L131.063 189.725L130.459 191.383L128.679 191.334L131.929 183.295L133.479 183.338L136.294 191.546L134.514 191.496L133.997 189.807ZM131.553 188.382L133.583 188.439L132.647 185.37L131.553 188.382Z" fill="#333333"/>
<path d="M147.073 188.325L145.755 188.533L146.218 191.471L144.564 191.731L143.301 183.704L146.284 183.235C147.232 183.085 147.997 183.182 148.578 183.523C149.159 183.865 149.51 184.422 149.632 185.194C149.718 185.742 149.67 186.218 149.489 186.623C149.311 187.024 148.998 187.371 148.551 187.663L150.804 190.671L150.816 190.748L149.041 191.027L147.073 188.325ZM145.545 187.193L146.879 186.983C147.294 186.918 147.599 186.762 147.794 186.517C147.989 186.268 148.057 185.958 147.998 185.586C147.939 185.208 147.784 184.927 147.533 184.744C147.285 184.561 146.939 184.504 146.494 184.574L145.166 184.783L145.545 187.193Z" fill="#333333"/>
<path d="M163.863 186.066L161.098 187.053L161.136 188.818L159.459 189.417L159.574 180.747L161.035 180.225L166.633 186.854L164.957 187.453L163.863 186.066ZM161.068 185.624L162.981 184.941L160.996 182.42L161.068 185.624Z" fill="#333333"/>
<path d="M180.11 180.695L178.67 181.55L173.137 178.618L175.868 183.215L174.428 184.07L170.278 177.083L171.718 176.228L177.261 179.168L174.525 174.561L175.96 173.709L180.11 180.695Z" fill="#333333"/>
<path d="M189.013 166.113L187.136 167.748L191.585 172.851L190.323 173.951L185.874 168.848L184.023 170.462L183.132 169.44L188.122 165.09L189.013 166.113Z" fill="#333333"/>
<path d="M199.43 160.272L197.377 162.745L199.052 164.136L201.462 161.233L202.497 162.092L199.018 166.283L192.765 161.093L196.237 156.91L197.28 157.776L194.878 160.671L196.368 161.908L198.421 159.434L199.43 160.272Z" fill="#333333"/>
<path d="M207.137 149.713L205.512 152.487L207.39 153.587L209.297 150.332L210.458 151.011L207.705 155.712L200.693 151.605L203.44 146.914L204.61 147.6L202.709 150.845L204.38 151.824L206.005 149.05L207.137 149.713Z" fill="#333333"/>
<path d="M214.583 144.004L206.963 141.182L207.831 138.837C208.079 138.167 208.452 137.625 208.951 137.21C209.448 136.791 210.03 136.537 210.698 136.447C211.363 136.356 212.049 136.441 212.757 136.704L213.108 136.834C213.816 137.096 214.392 137.476 214.835 137.973C215.279 138.467 215.554 139.035 215.662 139.678C215.769 140.32 215.701 140.976 215.457 141.643L214.583 144.004ZM208.816 140.083L213.903 141.967L214.184 141.208C214.412 140.594 214.385 140.05 214.104 139.577C213.823 139.104 213.31 138.726 212.566 138.442L212.163 138.293C211.388 138.006 210.743 137.949 210.226 138.123C209.706 138.295 209.332 138.69 209.103 139.308L208.816 140.083Z" fill="#333333"/>
<path d="M62.2298 98.5315L64.9459 104.041L71.0241 104.922L66.626 109.213L67.6639 115.264L62.2298 112.403L56.788 115.264L57.8298 109.213L53.4336 104.922L59.5098 104.041L62.2298 98.5315Z" fill="#333333"/>
<path d="M212.685 98.5315L215.401 104.041L221.481 104.922L217.083 109.213L218.121 115.264L212.685 112.403L207.245 115.264L208.287 109.213L203.889 104.922L209.967 104.041L212.685 98.5315Z" fill="#333333"/>
<path d="M193.858 123.566H85.4844V124.769H193.858V123.566Z" fill="#333333"/>
<path d="M122.779 112.668H106.597V62.6949L93.8821 72.4974L85.502 61.0612L107.945 44.6276H122.779V112.668Z" fill="black"/>
<path d="M183.475 64.7131C184.502 68.8776 185.016 73.4585 185.016 78.4558C185.016 83.4531 184.502 88.0661 183.475 92.2946C182.511 96.5231 181.002 100.335 178.947 103.731C176.957 107.062 174.195 109.689 170.664 111.611C167.196 113.533 163.118 114.494 158.43 114.494C152.266 114.494 147.096 112.797 142.922 109.401C138.812 106.005 135.891 101.713 134.157 96.5231C132.487 91.2695 131.652 85.2471 131.652 78.4558C131.652 73.4585 132.134 68.8776 133.097 64.7131C134.125 60.5486 135.666 56.8006 137.721 53.4691C139.776 50.1375 142.569 47.5427 146.101 45.6847C149.633 43.7627 153.743 42.8016 158.43 42.8016C163.118 42.8016 167.196 43.7627 170.664 45.6847C174.195 47.5427 176.957 50.1375 178.947 53.4691C181.002 56.8006 182.511 60.5486 183.475 64.7131ZM168.448 78.4558C168.448 75.9571 168.32 73.5866 168.063 71.3442C167.806 69.0377 167.324 66.6992 166.618 64.3287C165.976 61.9581 164.948 60.0681 163.536 58.6586C162.123 57.185 160.421 56.4482 158.43 56.4482C156.44 56.4482 154.706 57.185 153.229 58.6586C151.816 60.0681 150.757 61.9581 150.05 64.3287C149.408 66.6992 148.926 69.0377 148.605 71.3442C148.349 73.5866 148.22 75.9571 148.22 78.4558C148.22 80.9545 148.349 83.357 148.605 85.6635C148.926 87.97 149.408 90.3405 150.05 92.7751C150.757 95.1457 151.816 97.0677 153.229 98.5413C154.642 99.9508 156.376 100.656 158.43 100.656C160.421 100.656 162.123 99.9508 163.536 98.5413C164.948 97.0677 165.976 95.1457 166.618 92.7751C167.324 90.3405 167.806 88.002 168.063 85.7596C168.32 83.4531 168.448 81.0185 168.448 78.4558Z" fill="black"/>
<defs>
<radialGradient id="paint0_radial" cx="0" cy="0" r="1" gradientUnits="userSpaceOnUse" gradientTransform="translate(135.298 140.444) rotate(42.8377) scale(192.636)">
<stop/>
<stop offset="0.0977" stop-color="#002200"/>
<stop offset="0.2284" stop-color="#004800"/>
<stop offset="0.3643" stop-color="#006800"/>
<stop offset="0.5047" stop-color="#008100"/>
<stop offset="0.6515" stop-color="#009200"/>
<stop offset="0.8089" stop-color="#009D00"/>
<stop offset="0.9954" stop-color="#00A000"/>
</radialGradient>
<radialGradient id="paint1_radial" cx="0" cy="0" r="1" gradientUnits="userSpaceOnUse" gradientTransform="translate(160.985 129.63) rotate(-32.1623) scale(192.636)">
<stop/>
<stop offset="0.0977" stop-color="#002200"/>
<stop offset="0.2284" stop-color="#004800"/>
<stop offset="0.3643" stop-color="#006800"/>
<stop offset="0.5047" stop-color="#008100"/>
<stop offset="0.6515" stop-color="#009200"/>
<stop offset="0.8089" stop-color="#009D00"/>
<stop offset="0.9954" stop-color="#00A000"/>
</radialGradient>
<linearGradient id="paint2_linear" x1="138.898" y1="238.298" x2="138.898" y2="-255.454" gradientUnits="userSpaceOnUse">
<stop offset="0.0046" stop-color="#007D00"/>
<stop offset="0.2121" stop-color="#007A00"/>
<stop offset="0.3873" stop-color="#006F00"/>
<stop offset="0.5506" stop-color="#005E00"/>
<stop offset="0.7068" stop-color="#004500"/>
<stop offset="0.8565" stop-color="#002600"/>
<stop offset="1"/>
</linearGradient>
<linearGradient id="paint3_linear" x1="138.901" y1="-22.7269" x2="138.901" y2="358.59" gradientUnits="userSpaceOnUse">
<stop stop-color="#D3A039"/>
<stop offset="0.0266" stop-color="#D9AA45"/>
<stop offset="0.1203" stop-color="#EBC86A"/>
<stop offset="0.1959" stop-color="#F7DA82"/>
<stop offset="0.2433" stop-color="#FBE18A"/>
<stop offset="0.3539" stop-color="#FBE18A"/>
<stop offset="0.4146" stop-color="#F7DA83"/>
<stop offset="0.5058" stop-color="#EAC86E"/>
<stop offset="0.6163" stop-color="#D6A94C"/>
<stop offset="0.7408" stop-color="#BA7F1E"/>
<stop offset="0.7601" stop-color="#B57816"/>
<stop offset="0.8918" stop-color="#8C581C"/>
</linearGradient>
</defs>
</svg>
