<svg width="84" height="77" viewBox="0 0 84 77" fill="none" xmlns="http://www.w3.org/2000/svg">
<path d="M75.8254 37.2238L38.9614 0.359777C38.7309 0.129412 38.4184 0 38.0926 0C37.7668 0 37.4543 0.129412 37.2238 0.359777L0.359777 37.2238C0.187979 37.3957 0.0709892 37.6146 0.0235973 37.853C-0.0237946 38.0913 0.000539384 38.3383 0.0935229 38.5628C0.186506 38.7873 0.343965 38.9792 0.545992 39.1142C0.748019 39.2493 0.985544 39.3214 1.22854 39.3214H7.37255V68.8127H6.14375C5.81785 68.8127 5.5053 68.9421 5.27486 69.1726C5.04441 69.403 4.91495 69.7156 4.91495 70.0415V74.9567C4.91495 75.2826 5.04441 75.5951 5.27486 75.8256C5.5053 76.056 5.81785 76.1855 6.14375 76.1855H70.0415C70.3674 76.1855 70.6799 76.056 70.9104 75.8256C71.1408 75.5951 71.2703 75.2826 71.2703 74.9567V70.0415C71.2703 69.7156 71.1408 69.403 70.9104 69.1726C70.6799 68.9421 70.3674 68.8127 70.0415 68.8127H68.8127V39.3214H74.9567C75.1997 39.3214 75.4372 39.2493 75.6392 39.1142C75.8412 38.9792 75.9987 38.7873 76.0917 38.5628C76.1847 38.3383 76.209 38.0913 76.1616 37.853C76.1142 37.6146 75.9972 37.3957 75.8254 37.2238ZM68.8127 73.7279H7.37255V71.2703H68.8127V73.7279ZM31.9486 68.8127H17.203V46.6942H31.9486V68.8127ZM34.4062 68.8127V45.4654C34.4062 45.1395 34.2767 44.827 34.0463 44.5965C33.8158 44.3661 33.5033 44.2366 33.1774 44.2366H15.9742C15.6483 44.2366 15.3357 44.3661 15.1053 44.5965C14.8748 44.827 14.7454 45.1395 14.7454 45.4654V68.8127H9.83016V38.6013L38.0926 10.3389L66.3551 38.6013V68.8127H34.4062ZM68.0926 36.8638L38.9614 7.73259C38.7309 7.50223 38.4184 7.37281 38.0926 7.37281C37.7668 7.37281 37.4543 7.50223 37.2238 7.73259L8.09263 36.8638H4.19487L38.0926 2.96607L71.9903 36.8638H68.0926Z" fill="#631E01"/>
<path d="M46.694 30.7198C46.694 29.0185 46.1895 27.3555 45.2443 25.941C44.2992 24.5265 42.9558 23.424 41.384 22.7729C39.8123 22.1219 38.0828 21.9516 36.4142 22.2834C34.7457 22.6153 33.213 23.4346 32.0101 24.6375C30.8071 25.8405 29.9879 27.3731 29.656 29.0417C29.3241 30.7102 29.4944 32.4397 30.1455 34.0115C30.7965 35.5832 31.899 36.9266 33.3135 37.8718C34.7281 38.8169 36.3911 39.3214 38.0923 39.3214C40.3728 39.3188 42.5592 38.4117 44.1717 36.7992C45.7843 35.1866 46.6914 33.0003 46.694 30.7198ZM31.9483 30.7198C31.9483 29.5046 32.3087 28.3167 32.9838 27.3064C33.6589 26.296 34.6185 25.5085 35.7411 25.0435C36.8638 24.5784 38.0992 24.4568 39.291 24.6938C40.4828 24.9309 41.5776 25.5161 42.4368 26.3753C43.2961 27.2346 43.8812 28.3293 44.1183 29.5211C44.3554 30.713 44.2337 31.9483 43.7687 33.071C43.3036 34.1937 42.5161 35.1532 41.5058 35.8283C40.4954 36.5035 39.3075 36.8638 38.0923 36.8638C36.4634 36.8618 34.9018 36.2139 33.75 35.0621C32.5982 33.9103 31.9503 32.3487 31.9483 30.7198Z" fill="#631E01"/>
<path d="M62.6686 44.2366H38.0926C37.7667 44.2366 37.4541 44.3661 37.2237 44.5965C36.9932 44.827 36.8638 45.1395 36.8638 45.4654V62.6687C36.8638 62.9946 36.9932 63.3071 37.2237 63.5376C37.4541 63.768 37.7667 63.8975 38.0926 63.8975H62.6686C62.9945 63.8975 63.3071 63.768 63.5375 63.5376C63.768 63.3071 63.8974 62.9946 63.8974 62.6687V45.4654C63.8974 45.1395 63.768 44.827 63.5375 44.5965C63.3071 44.3661 62.9945 44.2366 62.6686 44.2366ZM61.4398 52.8382H51.6094V46.6942H61.4398V52.8382ZM49.1518 46.6942V52.8382H39.3214V46.6942H49.1518ZM39.3214 55.2959H49.1518V61.4399H39.3214V55.2959ZM51.6094 61.4399V55.2959H61.4398V61.4399H51.6094Z" fill="#631E01"/>
<path d="M22.1182 54.067H19.6606V58.9822H22.1182V54.067Z" fill="#631E01"/>
<path d="M80.1294 72.158C80.2074 72.158 80.2074 72.08 80.2853 72.002L83.4048 68.1027C83.6387 67.7908 83.6387 67.2449 83.2488 67.0109C83.0928 66.9329 82.9369 66.8549 82.7809 66.8549L80.4413 66.8549L80.4413 46.5786L82.7809 46.5786C83.2488 46.5786 83.5608 46.2667 83.5608 45.7987C83.5608 45.6428 83.4828 45.4868 83.4048 45.3308L80.2854 41.4315C80.0514 41.1196 79.5055 41.0416 79.1935 41.2756C79.1156 41.2756 79.1156 41.3535 79.0376 41.4315L75.9181 45.3308C75.6842 45.6428 75.6842 46.1887 76.0741 46.4226C76.2301 46.5006 76.3861 46.5786 76.542 46.5786L78.8816 46.5786L78.8816 66.8549L76.542 66.8549C76.0741 66.8549 75.7622 67.1669 75.7622 67.6348C75.7622 67.7908 75.8402 67.9467 75.9181 68.1027L79.0376 72.002C79.2715 72.314 79.8174 72.3919 80.1294 72.158ZM78.1797 45.0189L79.6615 43.1472L81.1432 45.0189L78.1797 45.0189ZM78.1797 68.4147L81.1432 68.4147L79.6615 70.2863L78.1797 68.4147Z" fill="#631E01"/>
<path d="M82.5771 75.9825L82.5771 74.1499L67 74.1499L67 75.9825L82.5771 75.9825Z" fill="#631E01"/>
<path d="M82 39L82 37L73.8489 37L73.8489 39L82 39Z" fill="#631E01"/>
</svg>
