<svg width="85" height="80" viewBox="0 0 85 80" fill="none" xmlns="http://www.w3.org/2000/svg">
<path d="M75.8254 40.2238L38.9614 3.35978C38.7309 3.12941 38.4184 3 38.0926 3C37.7668 3 37.4543 3.12941 37.2238 3.35978L0.359777 40.2238C0.187979 40.3957 0.0709892 40.6146 0.0235973 40.853C-0.0237946 41.0913 0.000539384 41.3383 0.0935229 41.5628C0.186506 41.7873 0.343965 41.9792 0.545992 42.1142C0.748019 42.2493 0.985544 42.3214 1.22854 42.3214H7.37255V71.8127H6.14375C5.81785 71.8127 5.5053 71.9421 5.27486 72.1726C5.04441 72.403 4.91495 72.7156 4.91495 73.0415V77.9567C4.91495 78.2826 5.04441 78.5951 5.27486 78.8256C5.5053 79.056 5.81785 79.1855 6.14375 79.1855H70.0415C70.3674 79.1855 70.6799 79.056 70.9104 78.8256C71.1408 78.5951 71.2703 78.2826 71.2703 77.9567V73.0415C71.2703 72.7156 71.1408 72.403 70.9104 72.1726C70.6799 71.9421 70.3674 71.8127 70.0415 71.8127H68.8127V42.3214H74.9567C75.1997 42.3214 75.4372 42.2493 75.6392 42.1142C75.8412 41.9792 75.9987 41.7873 76.0917 41.5628C76.1847 41.3383 76.209 41.0913 76.1616 40.853C76.1142 40.6146 75.9972 40.3957 75.8254 40.2238ZM68.8127 76.7279H7.37255V74.2703H68.8127V76.7279ZM31.9486 71.8127H17.203V49.6942H31.9486V71.8127ZM34.4062 71.8127V48.4654C34.4062 48.1395 34.2767 47.827 34.0463 47.5965C33.8158 47.3661 33.5033 47.2366 33.1774 47.2366H15.9742C15.6483 47.2366 15.3357 47.3661 15.1053 47.5965C14.8748 47.827 14.7454 48.1395 14.7454 48.4654V71.8127H9.83016V41.6013L38.0926 13.3389L66.3551 41.6013V71.8127H34.4062ZM68.0926 39.8638L38.9614 10.7326C38.7309 10.5022 38.4184 10.3728 38.0926 10.3728C37.7668 10.3728 37.4543 10.5022 37.2238 10.7326L8.09263 39.8638H4.19487L38.0926 5.96607L71.9903 39.8638H68.0926Z" fill="#631E01"/>
<path d="M46.694 33.7198C46.694 32.0185 46.1895 30.3555 45.2443 28.941C44.2992 27.5265 42.9558 26.424 41.384 25.7729C39.8123 25.1219 38.0828 24.9516 36.4142 25.2834C34.7457 25.6153 33.213 26.4346 32.0101 27.6375C30.8071 28.8405 29.9879 30.3731 29.656 32.0417C29.3241 33.7102 29.4944 35.4397 30.1455 37.0115C30.7965 38.5832 31.899 39.9266 33.3135 40.8718C34.7281 41.8169 36.3911 42.3214 38.0923 42.3214C40.3728 42.3188 42.5592 41.4117 44.1717 39.7992C45.7843 38.1866 46.6914 36.0003 46.694 33.7198ZM31.9483 33.7198C31.9483 32.5046 32.3087 31.3167 32.9838 30.3064C33.6589 29.296 34.6185 28.5085 35.7411 28.0435C36.8638 27.5784 38.0992 27.4568 39.291 27.6938C40.4828 27.9309 41.5776 28.5161 42.4368 29.3753C43.2961 30.2346 43.8812 31.3293 44.1183 32.5211C44.3554 33.713 44.2337 34.9483 43.7687 36.071C43.3036 37.1937 42.5161 38.1532 41.5058 38.8283C40.4954 39.5035 39.3075 39.8638 38.0923 39.8638C36.4634 39.8618 34.9018 39.2139 33.75 38.0621C32.5982 36.9103 31.9503 35.3487 31.9483 33.7198Z" fill="#631E01"/>
<path d="M62.6686 47.2366H38.0926C37.7667 47.2366 37.4541 47.3661 37.2237 47.5965C36.9932 47.827 36.8638 48.1395 36.8638 48.4654V65.6687C36.8638 65.9946 36.9932 66.3071 37.2237 66.5376C37.4541 66.768 37.7667 66.8975 38.0926 66.8975H62.6686C62.9945 66.8975 63.3071 66.768 63.5375 66.5376C63.768 66.3071 63.8974 65.9946 63.8974 65.6687V48.4654C63.8974 48.1395 63.768 47.827 63.5375 47.5965C63.3071 47.3661 62.9945 47.2366 62.6686 47.2366ZM61.4398 55.8382H51.6094V49.6942H61.4398V55.8382ZM49.1518 49.6942V55.8382H39.3214V49.6942H49.1518ZM39.3214 58.2959H49.1518V64.4399H39.3214V58.2959ZM51.6094 64.4399V58.2959H61.4398V64.4399H51.6094Z" fill="#631E01"/>
<path d="M22.1182 57.067H19.6606V61.9822H22.1182V57.067Z" fill="#631E01"/>
<path d="M80.378 40.1342C80.4696 40.1342 80.4696 40.0426 80.5613 39.951L84.2265 35.3694C84.5014 35.0029 84.5014 34.3615 84.0432 34.0866C83.8599 33.995 83.6767 33.9034 83.4934 33.9034L80.7445 33.9034L80.7445 10.0795L83.4934 10.0795C84.0432 10.0795 84.4097 9.71301 84.4097 9.16322C84.4097 8.97996 84.3181 8.7967 84.2265 8.61344L80.5613 4.03194C80.2864 3.66542 79.645 3.57379 79.2784 3.84868C79.1868 3.84868 79.1868 3.94031 79.0952 4.03194L75.43 8.61344C75.1551 8.97996 75.1551 9.62137 75.6132 9.89627C75.7965 9.9879 75.9797 10.0795 76.163 10.0795L78.9119 10.0795L78.9119 33.9034L76.163 33.9034C75.6132 33.9034 75.2467 34.2699 75.2467 34.8197C75.2467 35.0029 75.3383 35.1862 75.43 35.3694L79.0952 39.951C79.3701 40.3175 80.0115 40.4091 80.378 40.1342ZM78.0872 8.24692L79.8282 6.0478L81.5692 8.24692L78.0872 8.24692ZM78.0872 35.736L81.5692 35.736L79.8282 37.9351L78.0872 35.736Z" fill="#631E01"/>
<path d="M82.5771 43.9825L82.5771 42.1499L67 42.1499L67 43.9825L82.5771 43.9825Z" fill="#631E01"/>
<path d="M82.5771 1.8326L82.5771 0L38 -1.94853e-06L38 1.8326L82.5771 1.8326Z" fill="#631E01"/>
</svg>
