<svg width="79" height="79" viewBox="0 0 79 79" fill="none" xmlns="http://www.w3.org/2000/svg">
<path d="M59.8871 40.7742C56.6659 40.7742 53.6334 41.5833 50.9677 42.9964V36.0049C53.6334 37.4167 56.6659 38.2258 59.8871 38.2258C70.4259 38.2258 79 29.6518 79 19.1129C79 8.57405 70.4259 0 59.8871 0C52.4165 0 45.9512 4.31824 42.8091 10.5796L29.8136 1.00279C28.0552 -0.29179 25.4609 -0.293065 23.7025 1.00406L0 18.4694V25.4839H2.54839V50.3918C0.936532 53.1938 0 56.4302 0 59.8871C0 70.4259 8.57405 79 19.1129 79C29.6518 79 38.2258 70.4259 38.2258 59.8871C38.2258 58.5785 38.092 57.3005 37.841 56.0645H41.1603C40.908 57.3005 40.7742 58.5785 40.7742 59.8871C40.7742 70.4259 49.3482 79 59.8871 79C70.4259 79 79 70.4259 79 59.8871C79 49.3482 70.4259 40.7742 59.8871 40.7742ZM59.8871 2.54839C69.0205 2.54839 76.4516 9.97948 76.4516 19.1129C76.4516 28.2463 69.0205 35.6774 59.8871 35.6774C50.7537 35.6774 43.3226 28.2463 43.3226 19.1129C43.3226 9.97948 50.7537 2.54839 59.8871 2.54839ZM40.8392 20.3871C40.8965 21.251 40.9908 22.106 41.1603 22.9355H28.0323V20.3871H40.8392ZM33.8196 7.12019L30.5806 11.0065V15.2903H33.129V13.5294L36.382 15.1553L37.5224 12.8757L33.8655 11.0473L35.8762 8.63393L41.7974 12.9968C41.2762 14.5335 40.9526 16.1555 40.8405 17.8374H28.0323V2.91918C28.1202 2.9676 28.2208 2.99435 28.3024 3.05424L33.8196 7.12019ZM25.2137 3.05552C25.2953 2.99563 25.3947 2.96887 25.4839 2.92045V17.8387H5.15029L14.4315 11.0001L15.6573 13.8594L22.6857 15.2661L23.1865 12.7674L17.473 11.6257L16.539 9.44814L25.2137 3.05552ZM2.54839 20.3871H25.4839V22.9355H2.54839V20.3871ZM5.09677 25.4839H25.4839V41.8891C24.6556 41.5948 23.8109 41.3374 22.9355 41.159V28.0323H7.64516V44.6325C6.72774 45.3243 5.87531 46.0939 5.09677 46.9362V25.4839ZM20.3871 40.8392C19.9641 40.8111 19.5436 40.7742 19.1129 40.7742C15.8917 40.7742 12.8592 41.5833 10.1935 42.9964V30.5806H20.3871V40.8392ZM19.1129 76.4516C9.97948 76.4516 2.54839 69.0205 2.54839 59.8871C2.54839 50.7537 9.97948 43.3226 19.1129 43.3226C28.2463 43.3226 35.6774 50.7537 35.6774 59.8871C35.6774 69.0205 28.2463 76.4516 19.1129 76.4516ZM37.1109 53.5161C35.5003 48.98 32.2371 45.2249 28.0323 42.9964V25.4839H41.8891C42.5453 27.3302 43.4742 29.044 44.6325 30.5806H30.5806V43.3226H45.871V32.0638C46.6495 32.906 47.5019 33.6757 48.4194 34.3675V44.6337C45.4492 46.8712 43.1569 49.9484 41.8891 53.5161H37.1109ZM43.3226 33.129V40.7742H33.129V33.129H43.3226ZM59.8871 76.4516C50.7537 76.4516 43.3226 69.0205 43.3226 59.8871C43.3226 50.7537 50.7537 43.3226 59.8871 43.3226C69.0205 43.3226 76.4516 50.7537 76.4516 59.8871C76.4516 69.0205 69.0205 76.4516 59.8871 76.4516Z" fill="#631E01"/>
<path d="M26.7579 48.4194H16.5644C14.9054 48.4194 13.5038 49.4884 12.9762 50.9678H7.64502V58.3339L17.8386 60.8823V63.9441C16.3592 64.4717 15.2902 65.8733 15.2902 67.5323V70.0807C15.2902 72.1882 17.0052 73.9032 19.1128 73.9032C21.2203 73.9032 22.9353 72.1882 22.9353 70.0807V67.5323C22.9353 65.8733 21.8663 64.4717 20.387 63.9441V58.8907L10.1934 56.3423V53.5161H12.9762C13.5038 54.9955 14.9054 56.0645 16.5644 56.0645H26.7579C28.8654 56.0645 30.5805 54.3495 30.5805 52.242C30.5805 50.1344 28.8654 48.4194 26.7579 48.4194ZM20.387 70.0807C20.387 70.784 19.8148 71.3549 19.1128 71.3549C18.4107 71.3549 17.8386 70.784 17.8386 70.0807V67.5323C17.8386 66.8289 18.4107 66.2581 19.1128 66.2581C19.8148 66.2581 20.387 66.8289 20.387 67.5323V70.0807ZM26.7579 53.5161H16.5644C15.8623 53.5161 15.2902 52.9453 15.2902 52.242C15.2902 51.5386 15.8623 50.9678 16.5644 50.9678H26.7579C27.46 50.9678 28.0321 51.5386 28.0321 52.242C28.0321 52.9453 27.46 53.5161 26.7579 53.5161Z" fill="#631E01"/>
<path d="M54.7902 22.9355C55.4502 22.9355 56.1102 22.8463 56.7614 22.6667L63.5554 29.4607C64.2766 30.1831 65.2373 30.5807 66.2579 30.5807C67.2785 30.5807 68.2393 30.1819 68.9605 29.4607C69.683 28.7395 70.0805 27.7787 70.0805 26.7581C70.0805 25.7375 69.683 24.7767 68.9605 24.0555L62.1665 17.2615C62.3449 16.6104 62.4353 15.9517 62.4353 15.2904C62.4353 11.0741 59.0065 7.6452 54.7902 7.6452H54.2627L51.7143 10.1936L54.7443 13.2236C54.5494 14.2443 53.7428 15.0495 52.7247 15.2445L49.6934 12.2145L47.145 14.7628V15.2904C47.145 19.5067 50.5739 22.9355 54.7902 22.9355ZM51.7143 17.8387H52.2418C55.0527 17.8387 57.3386 15.5528 57.3386 12.742V12.2145L55.3483 10.2229C57.8967 10.5019 59.887 12.6681 59.887 15.2904C59.887 15.9058 59.7646 16.5302 59.5251 17.1418L59.2193 17.9178L67.1588 25.856C67.4021 26.1006 67.5321 26.4128 67.5321 26.7581C67.5321 27.1034 67.4021 27.4156 67.1588 27.659C66.6695 28.147 65.8464 28.147 65.3571 27.659L57.4188 19.7207L56.6429 20.0253C56.0287 20.2648 55.4056 20.3871 54.7902 20.3871C52.1679 20.3871 50.003 18.3968 49.724 15.8485L51.7143 17.8387Z" fill="#631E01"/>
<path d="M56.048 52.1515L53.7953 53.0498L59.3597 58.6129L56.4163 61.5576C55.0006 60.9192 53.218 61.1511 52.0891 62.2813L49.5407 64.8297C48.817 65.5509 48.4194 66.5116 48.4194 67.5323C48.4194 68.5529 48.817 69.5136 49.5395 70.2348C50.2606 70.9573 51.2214 71.3548 52.242 71.3548C53.2626 71.3548 54.2234 70.956 54.9446 70.2348L57.493 67.6864C58.2154 66.9652 58.613 66.0045 58.613 64.9839C58.613 64.4054 58.4728 63.8537 58.2307 63.3465L61.1614 60.4159L66.7232 65.9777L67.6241 63.7275C69.2538 59.6488 70.0807 55.3561 70.0807 50.9677V49.6935H68.8065C64.4144 49.6935 60.1216 50.5205 56.048 52.1515ZM55.6913 65.8847L53.1429 68.4331C52.6536 68.9211 51.8304 68.9211 51.3412 68.4331C51.0978 68.1897 50.9678 67.8776 50.9678 67.5323C50.9678 67.1869 51.0978 66.8748 51.3412 66.6314L53.8895 64.083C54.1342 63.8396 54.4451 63.7097 54.7904 63.7097C55.1357 63.7097 55.4466 63.8396 55.6913 64.083C55.9346 64.3264 56.0646 64.6386 56.0646 64.9839C56.0646 65.3292 55.9346 65.6414 55.6913 65.8847ZM65.7676 61.4161L58.3581 54.0067C61.3117 52.9771 64.3787 52.3948 67.5069 52.2687C67.3794 55.3956 66.7971 58.4625 65.7676 61.4161Z" fill="#631E01"/>
</svg>
