<svg width="267" height="97" viewBox="0 0 267 97" fill="none" xmlns="http://www.w3.org/2000/svg">
<g filter="url(#filter0_d)">
<mask id="path-1-inside-1" fill="white">
<path fill-rule="evenodd" clip-rule="evenodd" d="M86.7632 2H17C11.4772 2 7 6.47715 7 12V75C7 80.5229 11.4772 85 17 85H250C255.523 85 260 80.5229 260 75V12C260 6.47715 255.523 2 250 2H181.237C170.253 16.0031 153.177 25 134 25C114.823 25 97.7471 16.0031 86.7632 2Z"/>
</mask>
<path fill-rule="evenodd" clip-rule="evenodd" d="M86.7632 2H17C11.4772 2 7 6.47715 7 12V75C7 80.5229 11.4772 85 17 85H250C255.523 85 260 80.5229 260 75V12C260 6.47715 255.523 2 250 2H181.237C170.253 16.0031 153.177 25 134 25C114.823 25 97.7471 16.0031 86.7632 2Z" fill="white"/>
<path d="M86.7632 2L87.5501 1.38282L87.2498 1H86.7632V2ZM181.237 2V1H180.75L180.45 1.38282L181.237 2ZM86.7632 1H17V3H86.7632V1ZM17 1C10.9249 1 6 5.92487 6 12H8C8 7.02944 12.0294 3 17 3V1ZM6 12V75H8V12H6ZM6 75C6 81.0751 10.9249 86 17 86V84C12.0294 84 8 79.9706 8 75H6ZM17 86H250V84H17V86ZM250 86C256.075 86 261 81.0751 261 75H259C259 79.9706 254.971 84 250 84V86ZM261 75V12H259V75H261ZM261 12C261 5.92487 256.075 1 250 1V3C254.971 3 259 7.02944 259 12H261ZM250 1H181.237V3H250V1ZM180.45 1.38282C169.647 15.1547 152.857 24 134 24V26C153.497 26 170.858 16.8516 182.024 2.61718L180.45 1.38282ZM134 24C115.143 24 98.3525 15.1547 87.5501 1.38282L85.9764 2.61718C97.1417 16.8516 114.503 26 134 26V24Z" fill="#DFDFDF" mask="url(#path-1-inside-1)"/>
</g>
<mask id="path-3-inside-2" fill="white">
<path fill-rule="evenodd" clip-rule="evenodd" d="M83.8441 13H28C22.4772 13 18 17.4772 18 23V64C18 69.5229 22.4771 74 28 74H239C244.523 74 249 69.5229 249 64V23C249 17.4772 244.523 13 239 13H184.156C173.748 26.2066 155.177 35 134 35C112.823 35 94.2518 26.2066 83.8441 13Z"/>
</mask>
<path fill-rule="evenodd" clip-rule="evenodd" d="M83.8441 13H28C22.4772 13 18 17.4772 18 23V64C18 69.5229 22.4771 74 28 74H239C244.523 74 249 69.5229 249 64V23C249 17.4772 244.523 13 239 13H184.156C173.748 26.2066 155.177 35 134 35C112.823 35 94.2518 26.2066 83.8441 13Z" fill="white"/>
<path d="M83.8441 13L84.6295 12.381L84.3293 12H83.8441V13ZM184.156 13V12H183.671L183.37 12.381L184.156 13ZM83.8441 12H28V14H83.8441V12ZM28 12C21.9249 12 17 16.9249 17 23H19C19 18.0294 23.0294 14 28 14V12ZM17 23V64H19V23H17ZM17 64C17 70.0751 21.9249 75 28 75V73C23.0294 73 19 68.9706 19 64H17ZM28 75H239V73H28V75ZM239 75C245.075 75 250 70.0751 250 64H248C248 68.9706 243.971 73 239 73V75ZM250 64V23H248V64H250ZM250 23C250 16.9249 245.075 12 239 12V14C243.971 14 248 18.0294 248 23H250ZM239 12H184.156V14H239V12ZM183.37 12.381C173.179 25.3127 154.917 34 134 34V36C155.437 36 174.317 27.1005 184.941 13.619L183.37 12.381ZM134 34C113.083 34 94.8206 25.3127 84.6295 12.381L83.0587 13.619C93.6831 27.1005 112.563 36 134 36V34Z" fill="#DFDFDF" mask="url(#path-3-inside-2)"/>
<defs>
<filter id="filter0_d" x="0" y="0" width="267" height="97" filterUnits="userSpaceOnUse" color-interpolation-filters="sRGB">
<feFlood flood-opacity="0" result="BackgroundImageFix"/>
<feColorMatrix in="SourceAlpha" type="matrix" values="0 0 0 0 0 0 0 0 0 0 0 0 0 0 0 0 0 0 127 0"/>
<feOffset dy="5"/>
<feGaussianBlur stdDeviation="3.5"/>
<feColorMatrix type="matrix" values="0 0 0 0 0 0 0 0 0 0 0 0 0 0 0 0 0 0 0.1 0"/>
<feBlend mode="normal" in2="BackgroundImageFix" result="effect1_dropShadow"/>
<feBlend mode="normal" in="SourceGraphic" in2="effect1_dropShadow" result="shape"/>
</filter>
</defs>
</svg>
