<svg width="69" height="66" viewBox="0 0 69 66" fill="none" xmlns="http://www.w3.org/2000/svg">
<path d="M65.5857 56.9606C65.5874 56.9125 65.5883 56.8648 65.5883 56.8175C65.5869 55.6124 65.1076 54.457 64.2555 53.6049C63.4034 52.7527 62.248 52.2734 61.0429 52.2721V31.2496L65.1338 28.1815C65.2758 28.0749 65.391 27.9365 65.4699 27.7774C65.5488 27.6183 65.5894 27.4429 65.5882 27.2653C65.5872 27.0877 65.5444 26.9129 65.4635 26.7548C65.3826 26.5967 65.2658 26.4597 65.1224 26.3549L55.3612 19.2216V6.8181C55.6625 6.8181 55.9516 6.69837 56.1647 6.48527C56.3778 6.27216 56.4975 5.98312 56.4975 5.68175V1.13635C56.4975 0.834971 56.3778 0.545936 56.1647 0.332829C55.9516 0.119722 55.6625 0 55.3612 0H43.9977C43.6963 0 43.4072 0.119722 43.1941 0.332829C42.981 0.545936 42.8613 0.834971 42.8613 1.13635V5.68175C42.8613 5.98312 42.981 6.27216 43.1941 6.48527C43.4072 6.69837 43.6963 6.8181 43.9977 6.8181V10.9176L35.5773 4.76429C35.3827 4.62207 35.1479 4.54543 34.9069 4.54543C34.6658 4.54543 34.431 4.62207 34.2364 4.76429L4.69134 26.3549C4.54795 26.4597 4.43111 26.5967 4.35021 26.7548C4.26931 26.9129 4.22659 27.0877 4.22548 27.2653C4.22438 27.4429 4.26492 27.6183 4.34385 27.7774C4.42278 27.9365 4.5379 28.0749 4.67998 28.1815L8.77084 31.2496V52.2721C7.56574 52.2734 6.41039 52.7527 5.55825 53.6049C4.70612 54.457 4.22679 55.6124 4.22544 56.8175C4.22544 56.8648 4.22629 56.9125 4.228 56.9606C3.15598 57.2363 2.22138 57.8936 1.59954 58.8093C0.977706 59.725 0.711377 60.8362 0.850522 61.9343C0.989668 63.0324 1.52473 64.042 2.35531 64.7736C3.18589 65.5053 4.25491 65.9087 5.36179 65.9083H64.4519C65.5588 65.9087 66.6279 65.5053 67.4584 64.7736C68.289 64.042 68.8241 63.0324 68.9632 61.9343C69.1024 60.8362 68.836 59.725 68.2142 58.8093C67.5924 57.8936 66.6578 57.2363 65.5857 56.9606ZM45.134 2.2727H54.2248V4.5454H45.134V2.2727ZM46.2704 12.4998V6.8181H53.0885V17.5609L46.1628 12.4998H46.2704ZM34.9069 7.08911L62.5422 27.2843L59.8962 29.2688L35.5753 11.5808C35.3811 11.4395 35.1471 11.3634 34.9069 11.3634C34.6667 11.3634 34.4327 11.4395 34.2384 11.5808L9.91756 29.2688L7.27157 27.2843L34.9069 7.08911ZM3.08909 61.3629C3.08972 60.7662 3.32471 60.1936 3.74343 59.7685C4.16215 59.3434 4.73109 59.0998 5.3277 59.0902H5.3304C5.38849 59.0983 5.44659 59.1052 5.50582 59.1091C5.69413 59.1209 5.88244 59.0857 6.05374 59.0066C6.22505 58.9276 6.37396 58.807 6.48705 58.656C6.60013 58.505 6.67383 58.3281 6.70148 58.1415C6.72913 57.9548 6.70987 57.7643 6.64544 57.5869C6.5514 57.3411 6.50153 57.0806 6.49814 56.8175C6.49885 56.2149 6.73853 55.6373 7.16459 55.2112C7.59064 54.7851 8.1683 54.5455 8.77084 54.5448V63.6356H5.36179C4.75925 63.6348 4.1816 63.3952 3.75554 62.9691C3.32948 62.5431 3.08981 61.9654 3.08909 61.3629ZM51.9521 63.6356H38.3159V38.6359H51.9521V63.6356ZM54.2248 63.6356V37.4995C54.2248 37.1981 54.1051 36.9091 53.892 36.696C53.6789 36.4829 53.3898 36.3632 53.0885 36.3632H37.1796C36.8782 36.3632 36.5892 36.4829 36.376 36.696C36.1629 36.9091 36.0432 37.1981 36.0432 37.4995V63.6356H11.0435V31.2601L34.9069 13.9049L58.7702 31.2601V63.6356H54.2248ZM64.4519 63.6356H61.0429V54.5448C61.6454 54.5455 62.2231 54.7851 62.6492 55.2112C63.0752 55.6373 63.3149 56.2149 63.3156 56.8175C63.3123 57.0808 63.2624 57.3415 63.1683 57.5875C63.1039 57.7648 63.0846 57.9554 63.1123 58.1421C63.1399 58.3287 63.2136 58.5055 63.3267 58.6566C63.4398 58.8076 63.5887 58.9281 63.76 59.0072C63.9313 59.0863 64.1196 59.1215 64.3079 59.1096C64.3671 59.1058 64.4252 59.0988 64.4833 59.0907H64.486C65.0888 59.0952 65.6651 59.339 66.0881 59.7684C66.5111 60.1978 66.7462 60.7777 66.7417 61.3805C66.7372 61.9832 66.4934 62.5595 66.064 62.9825C65.6346 63.4055 65.0547 63.6406 64.4519 63.6361V63.6356Z" fill="#682F13"/>
<path d="M30.3624 36.3632H16.7262C16.4248 36.3632 16.1358 36.4829 15.9227 36.696C15.7096 36.9091 15.5898 37.1981 15.5898 37.4995V53.4084C15.5898 53.7098 15.7096 53.9988 15.9227 54.2119C16.1358 54.425 16.4248 54.5447 16.7262 54.5447H30.3624C30.6638 54.5447 30.9528 54.425 31.1659 54.2119C31.379 53.9988 31.4987 53.7098 31.4987 53.4084V37.4995C31.4987 37.1981 31.379 36.9091 31.1659 36.696C30.9528 36.4829 30.6638 36.3632 30.3624 36.3632ZM29.226 44.3176H24.6806V38.6359H29.226V44.3176ZM22.4079 38.6359V44.3176H17.8625V38.6359H22.4079ZM17.8625 46.5903H22.4079V52.272H17.8625V46.5903ZM24.6806 52.272V46.5903H29.226V52.272H24.6806Z" fill="#682F13"/>
<path d="M42.7748 50.4342C43.015 49.8544 42.7396 49.1896 42.1598 48.9495C41.58 48.7093 40.9153 48.9847 40.6751 49.5645C40.4349 50.1443 40.7103 50.809 41.2901 51.0492C41.8699 51.2893 42.5346 51.014 42.7748 50.4342Z" fill="#682F13"/>
</svg>
