<svg width="105" height="51" viewBox="0 0 105 51" fill="none" xmlns="http://www.w3.org/2000/svg">
<path d="M73.8787 16.3006L73.8787 16.3005C74.177 15.7894 74.7243 15.4751 75.3163 15.4751C75.9083 15.4751 76.4557 15.7894 76.7543 16.3006C76.7543 16.3006 76.7543 16.3006 76.7543 16.3007L90.4592 39.7755C90.7598 40.2906 90.7622 40.9267 90.4652 41.4438L90.4652 41.4439C90.1684 41.9608 89.6177 42.2798 89.0215 42.2798H61.6111C61.015 42.2798 60.4643 41.9608 60.1675 41.4439L60.1675 41.4438C59.8705 40.9267 59.873 40.2903 60.1735 39.7756L60.1735 39.7756L73.8787 16.3006ZM64.9497 38.198L64.5106 38.9501H65.3815H85.2509H86.1218L85.6827 38.198L75.7481 21.1811L75.3164 20.4414L74.8845 21.1811L64.9497 38.198Z" fill="#682F13" stroke="#F2F2F2"/>
<path d="M51.4251 46.3884L50.986 47.1405H51.8569H102.546C103.466 47.1405 104.211 47.886 104.211 48.8052C104.211 49.7246 103.466 50.47 102.546 50.47H48.0869H37.5271C37.525 50.47 37.523 50.47 37.5211 50.47C37.5188 50.47 37.5164 50.47 37.5138 50.47H27.1553C27.153 50.47 27.1508 50.47 27.1487 50.47C27.1465 50.47 27.1443 50.47 27.142 50.47H2.16472C1.56859 50.47 1.01788 50.151 0.721116 49.6341L0.721082 49.634C0.424102 49.1168 0.426544 48.4805 0.727069 47.9658L0.295281 47.7136L0.727078 47.9657L27.9568 1.3255L27.9569 1.32542C28.2551 0.814304 28.8025 0.5 29.3945 0.5H75.3157C75.3784 0.5 75.4439 0.504855 75.5156 0.51351C75.5228 0.514436 75.5263 0.515015 75.5328 0.516095C75.5395 0.517217 75.5495 0.518881 75.5703 0.522038C75.6214 0.52983 75.6713 0.539813 75.7205 0.552006L75.7226 0.552508L75.7365 0.555882C75.7534 0.559987 75.7593 0.561427 75.766 0.563359L75.769 0.564191C75.8322 0.581959 75.8915 0.602009 75.947 0.624631L75.9558 0.628251L75.9636 0.631066C76.0179 0.653947 76.0734 0.681654 76.131 0.713993C76.1318 0.714477 76.1339 0.715753 76.1384 0.718523L76.1507 0.726196L76.1679 0.736719C76.2134 0.764183 76.2563 0.79261 76.2974 0.822717L76.2974 0.82274L76.3017 0.825834C76.3189 0.838132 76.3314 0.847378 76.3417 0.855462L76.3418 0.855519C76.3892 0.892738 76.4327 0.9302 76.4721 0.968309L76.4735 0.969699C76.4813 0.97719 76.4881 0.983322 76.4927 0.987441L76.496 0.990333C76.5366 1.03133 76.5766 1.07698 76.6171 1.12769C76.621 1.13287 76.6234 1.1361 76.6272 1.14127C76.6311 1.14664 76.6365 1.1541 76.6469 1.16799C76.6793 1.2116 76.7087 1.25483 76.7354 1.29852C76.7439 1.31287 76.7516 1.32459 76.7571 1.33276C76.7589 1.33526 76.7605 1.33768 76.762 1.33986L96.785 35.637L96.7851 35.6371C97.2487 36.431 96.9808 37.4504 96.1869 37.9138L96.1868 37.9139C95.3934 38.3773 94.3735 38.1096 93.9101 37.3155L93.91 37.3154L75.7478 6.20624L75.316 5.46664L74.8842 6.20625L51.4251 46.3884ZM37.4903 50.4712C37.4897 50.4713 37.4903 50.4712 37.4916 50.4711L37.4903 50.4712ZM37.5507 50.4712L37.5494 50.4711L37.5507 50.4712ZM27.1185 50.4712C27.1179 50.4713 27.1185 50.4712 27.1198 50.4711L27.1185 50.4712ZM76.5018 0.995441C76.5034 0.996836 76.5022 0.995772 76.5002 0.993968L76.5018 0.995441ZM76.7536 1.32534L76.7537 1.3255L76.7536 1.32534ZM46.8437 47.1405H47.1308L47.2755 46.8926L71.9775 4.58151L72.4166 3.82942H71.5457H55.5009H55.2131L55.0686 4.07819L30.4798 46.3893L30.0432 47.1405H30.9121H36.2765H36.5642L36.7088 46.8918L58.0124 10.234L58.0125 10.2339C58.4742 9.43885 59.4936 9.16883 60.288 9.63103L60.2882 9.63116C61.083 10.093 61.353 11.1118 60.891 11.9069C60.891 11.907 60.891 11.907 60.891 11.907L40.8516 46.3893L40.415 47.1405H41.2839H46.8437ZM30.637 3.82942H30.3499L30.2052 4.07733L5.50327 46.3884L5.06419 47.1405H5.93507H25.9047H26.1924L26.337 46.8918L50.926 4.58065L51.3626 3.82942H50.4937H45.4843H45.1966L45.052 4.07819L24.8971 38.7591L24.897 38.7593C24.5887 39.2904 24.0311 39.5878 23.4559 39.5878C23.1725 39.5878 22.8854 39.5154 22.6213 39.3619C21.8266 38.9001 21.5566 37.8814 22.0185 37.0862C22.0185 37.0862 22.0185 37.0862 22.0185 37.0861L40.9089 4.58065L41.3455 3.82942H40.4766H30.637Z" fill="#682F13" stroke="#F2F2F2"/>
</svg>
