<svg width="69" height="69" viewBox="0 0 69 69" fill="none" xmlns="http://www.w3.org/2000/svg">
<path d="M67.1278 60.3013H61.439V10.2398C62.3435 10.2371 63.2101 9.87666 63.8496 9.23713C64.4891 8.5976 64.8496 7.73099 64.8523 6.82656V1.13776C64.8523 0.836007 64.7324 0.546613 64.5191 0.333242C64.3057 0.119871 64.0163 0 63.7146 0H4.55104C4.24929 0 3.95989 0.119871 3.74652 0.333242C3.53315 0.546613 3.41328 0.836007 3.41328 1.13776V6.82656C3.41598 7.73099 3.77646 8.5976 4.41599 9.23713C5.05552 9.87666 5.92213 10.2371 6.82656 10.2398V60.3013H1.13776C0.836007 60.3013 0.546613 60.4211 0.333242 60.6345C0.119871 60.8479 0 61.1373 0 61.439V67.1278C0 67.4296 0.119871 67.719 0.333242 67.9324C0.546613 68.1457 0.836007 68.2656 1.13776 68.2656H67.1278C67.4296 68.2656 67.719 68.1457 67.9324 67.9324C68.1457 67.719 68.2656 67.4296 68.2656 67.1278V61.439C68.2656 61.1373 68.1457 60.8479 67.9324 60.6345C67.719 60.4211 67.4296 60.3013 67.1278 60.3013ZM5.6888 6.82656V2.27552H62.5768V6.82656C62.5768 7.12831 62.4569 7.41771 62.2436 7.63108C62.0302 7.84445 61.7408 7.96432 61.439 7.96432H6.82656C6.52481 7.96432 6.23541 7.84445 6.02204 7.63108C5.80867 7.41771 5.6888 7.12831 5.6888 6.82656ZM59.1635 10.2398V60.3013H9.10208V10.2398H59.1635ZM65.9901 65.9901H2.27552V62.5768H65.9901V65.9901Z" fill="#682F13"/>
<path d="M56.8864 11.3776H11.376C11.0743 11.3776 10.7849 11.4975 10.5715 11.7109C10.3582 11.9242 10.2383 12.2136 10.2383 12.5154V58.0258C10.2383 58.3275 10.3582 58.6169 10.5715 58.8303C10.7849 59.0437 11.0743 59.1635 11.376 59.1635H56.8864C57.1882 59.1635 57.4776 59.0437 57.691 58.8303C57.9043 58.6169 58.0242 58.3275 58.0242 58.0258V12.5154C58.0242 12.2136 57.9043 11.9242 57.691 11.7109C57.4776 11.4975 57.1882 11.3776 56.8864 11.3776ZM32.9935 56.888H12.5138V35.2706H32.9935V56.888ZM32.9935 32.9951H12.5138V13.6531H32.9935V32.9951ZM55.7487 56.888H35.269V35.2706H55.7487V56.888ZM55.7487 32.9951H35.269V13.6531H55.7487V32.9951Z" fill="#682F13"/>
<path d="M15.1211 20.8123L19.6723 16.2612L21.2813 17.8702L16.7301 22.4214L15.1211 20.8123Z" fill="#682F13"/>
<path d="M15.1211 26.5011L25.3594 16.2627L26.9682 17.8715L16.7299 28.1099L15.1211 26.5011Z" fill="#682F13"/>
</svg>
