<svg width="174" height="173" viewBox="0 0 174 173" fill="none" xmlns="http://www.w3.org/2000/svg">
<path d="M30.4273 133.788C28.0053 133.788 25.677 134.392 23.6114 135.527C12.7303 121.579 6.75781 104.251 6.75781 86.5C6.75781 42.5293 42.5293 6.75781 86.5 6.75781C91.8455 6.75781 97.1884 7.28973 102.381 8.33903C104.208 8.7086 105.992 7.52599 106.362 5.69662C106.731 3.86726 105.549 2.08542 103.719 1.71453C98.0873 0.57679 92.2943 0 86.5 0C63.3954 0 41.6727 8.99766 25.3352 25.3352C8.99766 41.6727 0 63.3954 0 86.5C0 105.935 6.59943 124.902 18.6143 140.107C17.0674 142.418 16.2359 145.135 16.2359 147.979C16.2359 151.77 17.7129 155.333 20.3935 158.013C23.0729 160.693 26.6366 162.17 30.4273 162.17C34.218 162.17 37.7817 160.693 40.4624 158.013C43.1431 155.333 44.6187 151.768 44.6187 147.978C44.6187 144.188 43.1431 140.623 40.4624 137.944C37.7817 135.263 34.218 133.788 30.4273 133.788ZM35.6831 153.235C34.2801 154.639 32.4124 155.413 30.4273 155.413C28.4422 155.413 26.5759 154.639 25.1715 153.235C23.7672 151.83 22.9937 149.964 22.9937 147.979C22.9937 145.992 23.7672 144.126 25.1715 142.722C26.5746 141.317 28.4422 140.545 30.4273 140.545C32.4124 140.545 34.2787 141.319 35.6831 142.722C37.0875 144.126 37.8609 145.992 37.8609 147.979C37.8609 149.964 37.0875 151.83 35.6831 153.235Z" fill="#682F13" fill-opacity="0.06"/>
<path d="M154.384 32.8889C158.057 27.3784 157.467 19.8445 152.608 14.986C149.928 12.3066 146.364 10.8297 142.573 10.8297C138.783 10.8297 135.219 12.3066 132.538 14.986C129.857 17.6667 128.382 21.2303 128.382 25.0211C128.382 28.8118 129.857 32.3755 132.538 35.0561C135.219 37.7368 138.783 39.2125 142.573 39.2125C144.995 39.2125 147.324 38.608 149.389 37.4729C160.27 51.4227 166.243 68.7489 166.243 86.5C166.243 130.471 130.471 166.242 86.5006 166.242C81.2078 166.242 75.9151 165.721 70.7715 164.691C68.9421 164.326 67.1616 165.512 66.7947 167.342C66.4291 169.172 67.6156 170.952 69.445 171.318C75.0242 172.434 80.763 173 86.5006 173C109.605 173 131.328 164.002 147.665 147.665C164.003 131.327 173.001 109.605 173.001 86.5C173.001 67.0634 166.4 48.0953 154.384 32.8889ZM137.317 30.2782C135.913 28.8738 135.14 27.0075 135.14 25.0211C135.14 23.0359 135.913 21.1696 137.317 19.7653C138.72 18.3609 140.588 17.5875 142.573 17.5875C144.558 17.5875 146.426 18.3609 147.83 19.7653C150.727 22.6637 150.727 27.3797 147.83 30.2782C146.426 31.6812 144.558 32.4546 142.573 32.4546C140.587 32.4546 138.72 31.6812 137.317 30.2782Z" fill="#682F13" fill-opacity="0.06"/>
<path d="M72.5581 144.617C72.5581 146.484 74.072 147.996 75.937 147.996H97.0644C98.9307 147.996 100.443 146.484 100.443 144.617V138.067C104.886 136.871 109.133 135.11 113.125 132.811L117.75 137.436C118.383 138.069 119.242 138.426 120.14 138.426C121.035 138.426 121.895 138.069 122.529 137.434L137.462 122.491C138.781 121.171 138.781 119.031 137.462 117.713L132.843 113.093C135.142 109.102 136.903 104.854 138.098 100.412H144.624C146.49 100.412 148.003 98.899 148.003 97.0327V75.9053C148.003 74.039 146.49 72.5264 144.624 72.5264H138.097C136.901 68.085 135.142 63.8376 132.843 59.8462L137.437 55.2517C138.071 54.6182 138.427 53.7576 138.427 52.8614C138.426 51.9652 138.069 51.1046 137.436 50.4711L122.491 35.5379C121.172 34.2193 119.033 34.2193 117.713 35.5392L113.125 40.1285C109.133 37.8292 104.886 36.0685 100.443 34.8727V28.3828C100.443 26.5165 98.9307 25.0039 97.0644 25.0039H75.937C74.072 25.0039 72.5581 26.5165 72.5581 28.3828V34.874C68.1167 36.0685 63.8693 37.8292 59.878 40.1285L55.2887 35.5392C53.9702 34.2207 51.8306 34.2193 50.5107 35.5379L35.567 50.4724C34.9321 51.106 34.5758 51.9652 34.5758 52.8614C34.5758 53.7576 34.9321 54.6182 35.5657 55.2517L40.1602 59.8462C37.861 63.8376 36.1002 68.0836 34.9044 72.5264H28.3908C26.5245 72.5264 25.0119 74.039 25.0119 75.904L25 97.0314C24.9987 97.9276 25.3551 98.7881 25.9886 99.4217C26.6221 100.055 27.4814 100.412 28.3789 100.412H34.9044C36.1002 104.854 37.861 109.102 40.1602 113.093L35.5406 117.713C34.222 119.031 34.2207 121.171 35.5406 122.491L50.4738 137.434C51.1073 138.068 51.9666 138.426 52.8628 138.426H52.8641C53.7603 138.426 54.6195 138.069 55.2531 137.436L59.8767 132.811C63.8693 135.11 68.1167 136.871 72.5581 138.067V144.617ZM61.2018 125.705C59.8648 124.84 58.1054 125.027 56.9782 126.153L52.8641 130.267L42.7076 120.103L46.8177 115.992C47.9436 114.866 48.131 113.106 47.2665 111.769C44.203 107.028 42.049 101.832 40.8663 96.3226C40.5311 94.7664 39.1558 93.6538 37.5627 93.6538H31.7591L31.7671 79.2842H37.5627C39.1558 79.2842 40.5311 78.1728 40.8663 76.6154C42.049 71.1075 44.203 65.9111 47.2665 61.1701C48.131 59.833 47.9436 58.0736 46.8177 56.9478L42.734 52.8627L52.8984 42.7062L56.9782 46.7873C58.1054 47.9132 59.8635 48.0993 61.2018 47.2361C65.9415 44.1726 71.1379 42.0185 76.6471 40.8359C78.2033 40.5007 79.3159 39.124 79.3159 37.5323V31.7617H93.6855V37.5309C93.6855 39.124 94.7969 40.5007 96.3543 40.8346C101.862 42.0185 107.06 44.1713 111.8 47.2347C113.137 48.0993 114.896 47.9132 116.022 46.786L120.103 42.7062L130.267 52.8627L126.184 56.9464C125.057 58.0736 124.87 59.833 125.735 61.1701C128.798 65.9111 130.951 71.1075 132.135 76.6154C132.469 78.1728 133.846 79.2842 135.439 79.2842H141.245V93.6538H135.439C133.846 93.6538 132.47 94.7664 132.135 96.3226C130.952 101.83 128.798 107.028 125.735 111.768C124.87 113.106 125.058 114.866 126.184 115.992L130.294 120.102L120.137 130.266L116.023 126.153C114.896 125.026 113.137 124.84 111.8 125.705C107.059 128.768 101.862 130.921 96.3543 132.105C94.7969 132.44 93.6855 133.815 93.6855 135.408V141.238H79.3159V135.408C79.3159 133.817 78.2033 132.44 76.6471 132.105C71.1392 130.922 65.9428 128.768 61.2018 125.705Z" fill="#682F13" fill-opacity="0.06"/>
<path d="M114.419 86.5C114.419 71.1049 101.895 58.5805 86.4996 58.5805C71.1045 58.5805 58.5801 71.1049 58.5801 86.5C58.5801 101.895 71.1045 114.42 86.4996 114.42C101.895 114.42 114.419 101.895 114.419 86.5ZM65.3379 86.5C65.3379 74.8309 74.8305 65.3383 86.4996 65.3383C98.1687 65.3383 107.661 74.8322 107.661 86.5C107.661 98.1678 98.1687 107.662 86.4996 107.662C74.8305 107.662 65.3379 98.1691 65.3379 86.5Z" fill="#682F13" fill-opacity="0.06"/>
<path d="M117.613 12.7791C118.503 12.7791 119.374 12.4175 120.002 11.7892C120.631 11.157 120.992 10.2859 120.992 9.39627C120.992 8.51195 120.632 7.6395 120.002 7.00728C119.374 6.37901 118.503 6.01736 117.613 6.01736C116.721 6.01736 115.854 6.37901 115.226 7.00728C114.596 7.6395 114.234 8.50799 114.234 9.39627C114.234 10.2885 114.596 11.157 115.226 11.7892C115.854 12.4175 116.721 12.7791 117.613 12.7791Z" fill="#682F13" fill-opacity="0.06"/>
<path d="M55.5352 160.282C54.6469 160.282 53.7744 160.643 53.1462 161.271C52.5179 161.9 52.1562 162.772 52.1562 163.66C52.1562 164.553 52.5179 165.421 53.1462 166.049C53.7744 166.678 54.6469 167.039 55.5352 167.039C56.4234 167.039 57.2959 166.678 57.9241 166.049C58.5524 165.421 58.9141 164.549 58.9141 163.66C58.9141 162.772 58.5524 161.9 57.9241 161.271C57.2959 160.643 56.4234 160.282 55.5352 160.282Z" fill="#682F13" fill-opacity="0.06"/>
</svg>
