<svg width="186" height="184" viewBox="0 0 186 184" fill="none" xmlns="http://www.w3.org/2000/svg">
<path d="M153.536 155.426L149.453 154.051C148.85 153.851 148.303 153.503 147.858 153.033C147.149 152.295 146.759 151.318 146.759 150.282V146.081L147.976 145.338C150.512 143.793 152.085 140.986 152.085 138.015V130.79C152.085 130.78 152.085 130.771 152.085 130.763V124.453C152.085 119.233 147.843 114.985 142.629 114.985H134.285C129.07 114.985 124.828 119.233 124.828 124.453V129.886V129.895V138.015C124.828 140.986 126.403 143.793 128.938 145.338L130.158 146.082V150.282C130.158 151.383 129.693 152.449 128.889 153.202C128.476 153.586 127.992 153.873 127.453 154.054L123.375 155.426C121.253 156.14 119.361 157.282 117.746 158.818C117.731 158.832 117.717 158.846 117.701 158.86C117.686 158.875 117.67 158.889 117.654 158.903C117.639 158.918 117.626 158.934 117.611 158.95C117.572 158.989 117.534 159.029 117.497 159.071C117.472 159.099 117.448 159.129 117.424 159.159C117.394 159.197 117.365 159.235 117.336 159.275C117.311 159.312 117.285 159.348 117.261 159.386C117.24 159.42 117.218 159.454 117.198 159.49C117.172 159.534 117.148 159.577 117.126 159.621C117.11 159.654 117.093 159.686 117.079 159.719C117.058 159.767 117.037 159.813 117.018 159.862C117.004 159.895 116.993 159.929 116.98 159.963C116.964 160.01 116.949 160.057 116.935 160.106C116.925 160.143 116.915 160.181 116.905 160.219C116.895 160.265 116.885 160.308 116.877 160.352C116.868 160.396 116.861 160.441 116.856 160.485C116.85 160.525 116.846 160.564 116.841 160.604C116.837 160.653 116.834 160.703 116.831 160.752C116.83 160.788 116.83 160.824 116.83 160.86C116.83 160.912 116.831 160.963 116.834 161.015C116.836 161.051 116.839 161.087 116.843 161.124C116.847 161.172 116.854 161.222 116.861 161.271C116.868 161.312 116.875 161.352 116.884 161.393C116.892 161.435 116.902 161.479 116.912 161.523C116.925 161.57 116.939 161.616 116.953 161.663C116.964 161.698 116.976 161.735 116.988 161.77C117.007 161.823 117.028 161.875 117.051 161.929C117.059 161.947 117.065 161.967 117.073 161.985C117.843 163.662 118.231 165.453 118.231 167.308V181.285C118.231 182.785 119.447 184 120.946 184C122.445 184 123.661 182.785 123.661 181.285V167.308C123.661 165.387 123.364 163.515 122.782 161.717C123.499 161.237 124.275 160.853 125.109 160.571L129.184 159.201C129.918 158.954 130.608 158.621 131.251 158.21C132.378 158.539 133.521 158.788 134.678 158.95L130.59 173.402C130.337 174.299 130.56 175.26 131.181 175.953L136.172 181.52C136.671 182.077 137.378 182.404 138.126 182.422H138.194C138.917 182.422 139.611 182.134 140.122 181.619L145.642 176.053C146.35 175.338 146.605 174.29 146.305 173.33L141.782 158.868C142.988 158.671 144.177 158.378 145.346 157.998C146.079 158.508 146.882 158.918 147.729 159.201L151.803 160.571C155.818 161.925 158.516 165.687 158.516 169.932V181.285C158.516 182.785 159.731 184 161.231 184C162.73 184 163.946 182.785 163.946 181.285V169.932C163.946 163.354 159.763 157.524 153.536 155.426ZM138.355 153.745C137.23 153.767 136.113 153.688 135.013 153.51C135.389 152.483 135.588 151.392 135.588 150.282V149.184C136.517 149.517 137.487 149.684 138.457 149.684C139.429 149.684 140.4 149.515 141.329 149.183V150.282C141.329 151.335 141.502 152.363 141.832 153.333C140.69 153.579 139.528 153.718 138.355 153.745ZM130.259 131.576L135.146 129.025L146.656 132.731V138.014C146.656 139.105 146.079 140.136 145.148 140.703L140.086 143.79C139.081 144.402 137.834 144.402 136.828 143.79L131.766 140.703C130.836 140.136 130.259 139.105 130.259 138.014V131.576ZM134.285 120.415H142.63C144.85 120.415 146.656 122.226 146.656 124.453V127.026L135.728 123.508C135.035 123.284 134.283 123.349 133.638 123.686L130.259 125.45V124.453C130.259 122.226 132.065 120.415 134.285 120.415ZM138.293 175.752L136.222 173.442L138.324 166.007L140.635 173.391L138.293 175.752Z" fill="#682F13" fill-opacity="0.06"/>
<path d="M111.274 150.047L106.251 148.354C105.408 148.072 104.641 147.585 104.031 146.95C104.031 146.949 104.03 146.947 104.028 146.946C103.039 145.907 102.494 144.546 102.494 143.113V137.594L104.297 136.495C107.233 134.705 109.057 131.456 109.057 128.014V119.11C109.057 119.1 109.057 119.092 109.057 119.083V111.319C109.057 105.237 104.115 100.29 98.0415 100.29H87.7688C81.6956 100.29 76.7551 105.237 76.7551 111.319V118.017V118.025V128.014C76.7551 131.456 78.5777 134.705 81.5132 136.495L83.3175 137.595V143.113C83.3175 144.645 82.6727 146.127 81.557 147.168C80.9745 147.708 80.3028 148.107 79.5562 148.356L74.5393 150.048C70.8601 151.288 67.6843 153.694 65.4728 156.833C64.524 156.259 63.5101 155.788 62.4369 155.426L58.3518 154.051C57.7424 153.849 57.2079 153.51 56.7583 153.038C56.0484 152.294 55.6567 151.317 55.6567 150.282V146.082L56.8756 145.338C59.4109 143.793 60.9847 140.986 60.9847 138.015V130.79C60.9847 130.78 60.9847 130.771 60.9847 130.763V124.453C60.9847 119.233 56.7427 114.985 51.5279 114.985H43.1838C37.969 114.985 33.727 119.233 33.727 124.453V129.886V129.895V138.015C33.727 140.986 35.3022 143.793 37.8375 145.338L39.0563 146.082V150.282C39.0563 151.386 38.5926 152.451 37.7866 153.202C37.3723 153.588 36.8901 153.875 36.3542 154.054L32.2776 155.426C26.0518 157.524 21.8691 163.353 21.8691 169.932V181.285C21.8691 182.784 23.0838 184 24.584 184C26.0829 184 27.2989 182.784 27.2989 181.285V169.932C27.2989 165.686 29.9968 161.925 34.0098 160.571L38.0849 159.201C38.8188 158.954 39.5074 158.62 40.1508 158.209C41.2777 158.539 42.4203 158.788 43.5769 158.948L39.489 173.402C39.2359 174.297 39.4593 175.26 40.0801 175.953L45.0715 181.52C45.5707 182.077 46.2777 182.402 47.0243 182.422H47.0921C47.8161 182.422 48.5104 182.134 49.0208 181.619L54.5397 176.052C55.2481 175.338 55.504 174.29 55.2029 173.33L50.6795 158.868C51.8856 158.671 53.0762 158.378 54.2456 157.996C54.9809 158.51 55.784 158.92 56.6296 159.2L60.7033 160.571C61.539 160.853 62.3167 161.237 63.0322 161.717C62.451 163.515 62.1541 165.387 62.1541 167.306V181.285C62.1541 182.784 63.3687 184 64.869 184C66.3678 184 67.5839 182.784 67.5839 181.285V167.306C67.5839 165.453 67.9727 163.662 68.7419 161.983C70.2012 158.79 72.9458 156.314 76.2743 155.193L81.2841 153.503C82.2287 153.187 83.1139 152.748 83.934 152.192C85.611 152.702 87.3219 153.055 89.0555 153.251L83.8237 171.75C83.5706 172.646 83.7926 173.608 84.4147 174.301L90.5586 181.155C91.0577 181.711 91.7647 182.037 92.5127 182.056C92.5354 182.057 92.558 182.057 92.5806 182.057C93.3032 182.057 93.9974 181.769 94.5079 181.254L101.304 174.4C102.012 173.686 102.267 172.638 101.967 171.678L96.1778 153.168C97.9807 152.922 99.7581 152.506 101.494 151.919C102.414 152.599 103.436 153.138 104.52 153.501L109.537 155.193C109.826 155.289 110.118 155.335 110.406 155.335C111.538 155.335 112.596 154.62 112.978 153.487C113.458 152.066 112.695 150.526 111.274 150.047ZM47.2547 153.745C46.1292 153.767 45.0121 153.688 43.912 153.51C44.2867 152.483 44.4861 151.392 44.4861 150.282V149.183C45.4151 149.517 46.3865 149.684 47.3565 149.684C48.328 149.684 49.298 149.517 50.227 149.183V150.282C50.227 151.334 50.4009 152.363 50.7304 153.333C49.5893 153.579 48.4269 153.718 47.2547 153.745ZM39.1582 131.576L44.045 129.025L55.5564 132.731V138.014C55.5564 139.105 54.978 140.136 54.049 140.703L48.9855 143.79C47.9815 144.402 46.733 144.402 45.729 143.79L40.6655 140.703C39.7365 140.136 39.1582 139.105 39.1582 138.014V131.576ZM43.1852 120.415H51.5293C53.7493 120.415 55.5564 122.226 55.5564 124.453V127.026L44.6275 123.508C43.9361 123.284 43.1824 123.349 42.539 123.686L39.1582 125.45V124.453C39.1582 122.226 40.9653 120.415 43.1852 120.415ZM47.1925 175.752L45.121 173.442L47.225 166.007L49.5341 173.391L47.1925 175.752ZM92.7927 148.005C91.11 148.04 89.4387 147.891 87.797 147.567C88.4164 146.175 88.7487 144.658 88.7487 143.113V140.825C90.0693 141.439 91.4876 141.75 92.9058 141.75C94.3255 141.75 95.7423 141.437 97.0644 140.823V143.113C97.0644 144.576 97.3543 146.001 97.9029 147.321C96.2287 147.738 94.5206 147.968 92.7927 148.005ZM87.7688 105.719H98.0429C101.121 105.719 103.627 108.231 103.627 111.319V115.347L89.3524 110.75C88.661 110.528 87.9087 110.592 87.264 110.929L82.1849 113.581V111.319C82.1849 108.231 84.6905 105.719 87.7688 105.719ZM82.1849 119.707L88.7699 116.268L103.627 121.051V128.014C103.627 129.575 102.801 131.048 101.47 131.859L95.2375 135.659C93.7995 136.536 92.0122 136.536 90.5741 135.659L84.3412 131.859C83.0121 131.048 82.1849 129.574 82.1849 128.014V119.707ZM92.681 175.387L89.4557 171.79L92.7121 160.277L96.298 171.739L92.681 175.387Z" fill="#682F13" fill-opacity="0.06"/>
<path d="M184.542 133.432L122.447 71.3237C122.443 71.3195 122.439 71.3167 122.434 71.3124L100.506 49.3784C99.0766 47.9474 97.3076 46.9803 95.3832 46.5462V29.4325H125.178C126.777 29.4325 128.175 28.4667 128.74 26.9707C129.305 25.4747 128.895 23.8245 127.695 22.7683L120.632 16.5467L127.695 10.3251C128.895 9.26879 129.305 7.61865 128.74 6.12263C128.175 4.62662 126.777 3.65944 125.178 3.65944H95.3832V2.71489C95.3832 1.21463 94.1671 0 92.6683 0C91.1694 0 89.9534 1.21463 89.9534 2.71489V46.7356C88.3117 47.2334 86.8087 48.1298 85.5615 49.3784L75.9053 59.0375C74.8448 60.098 74.8448 61.816 75.9053 62.8765C76.9658 63.9356 78.6852 63.937 79.7443 62.8751L89.4005 53.2174C90.3705 52.246 91.6615 51.7115 93.0331 51.7115C94.4061 51.7115 95.6957 52.246 96.6671 53.2174L116.25 72.8056L107.841 78.3528L97.7728 71.3068C96.8099 70.6323 95.5218 70.6549 94.5828 71.3619L85.3607 78.3075L76.5119 72.3998C75.7738 71.9077 74.8419 71.8059 74.0148 72.1297L68.2329 74.3893L71.1373 71.4835C72.1978 70.423 72.1978 68.705 71.1373 67.6445C70.0768 66.5854 68.3573 66.5854 67.2982 67.6445L55.2608 79.6862C55.2552 79.6904 55.2509 79.6946 55.2467 79.7003L0.794847 134.163C-0.265656 135.224 -0.264242 136.943 0.794847 138.002C1.3251 138.533 2.02079 138.797 2.71506 138.797C3.41075 138.797 4.10503 138.533 4.63528 138.002L58.6672 83.9579L74.6737 77.7023L83.9467 83.8942C84.9068 84.5348 86.1667 84.4994 87.0872 83.8051L96.274 76.8864L106.237 83.8603C107.149 84.4994 108.359 84.5164 109.29 83.9027L120.168 76.7252L180.701 137.271C181.232 137.802 181.926 138.068 182.622 138.068C183.316 138.068 184.01 137.802 184.54 137.273C185.601 136.212 185.601 134.493 184.542 133.432ZM120.882 9.08921L115.66 13.689C114.84 14.4115 114.37 15.4536 114.37 16.5467C114.37 17.6397 114.84 18.6818 115.66 19.4044L120.882 24.0027H95.3832V9.08921H120.882Z" fill="#682F13" fill-opacity="0.06"/>
</svg>
