<svg width="190" height="158" viewBox="0 0 190 158" fill="none" xmlns="http://www.w3.org/2000/svg">
<path d="M186.44 0H3.16C2.32192 8.38069e-06 1.51816 0.332939 0.925551 0.925552C0.332938 1.51817 8.38069e-06 2.32192 0 3.16V154.84C8.38069e-06 155.678 0.332938 156.482 0.925551 157.074C1.51816 157.667 2.32192 158 3.16 158H186.44C187.278 158 188.082 157.667 188.674 157.074C189.267 156.482 189.6 155.678 189.6 154.84V3.16C189.6 2.32192 189.267 1.51817 188.674 0.925552C188.082 0.332939 187.278 8.38069e-06 186.44 0ZM183.28 151.68H6.32V6.32H183.28V151.68Z" fill="#682F13" fill-opacity="0.06"/>
<path d="M15.8008 28.44V129.56C15.8008 130.398 16.1337 131.202 16.7263 131.794C17.3189 132.387 18.1227 132.72 18.9608 132.72C20.6364 132.722 22.2428 133.388 23.4276 134.573C24.6124 135.758 25.2789 137.364 25.2808 139.04C25.2808 139.878 25.6137 140.682 26.2063 141.274C26.7989 141.867 27.6027 142.2 28.4408 142.2H161.161C161.999 142.2 162.803 141.867 163.395 141.274C163.988 140.682 164.321 139.878 164.321 139.04C164.323 137.364 164.989 135.758 166.174 134.573C167.359 133.388 168.965 132.722 170.641 132.72C171.479 132.72 172.283 132.387 172.875 131.794C173.468 131.202 173.801 130.398 173.801 129.56V28.44C173.801 27.6019 173.468 26.7982 172.875 26.2056C172.283 25.6129 171.479 25.28 170.641 25.28C168.965 25.2781 167.359 24.6116 166.174 23.4268C164.989 22.242 164.323 20.6356 164.321 18.96C164.321 18.1219 163.988 17.3182 163.395 16.7256C162.803 16.1329 161.999 15.8 161.161 15.8H28.4408C27.6027 15.8 26.7989 16.1329 26.2063 16.7256C25.6137 17.3182 25.2808 18.1219 25.2808 18.96C25.2789 20.6356 24.6124 22.242 23.4276 23.4268C22.2428 24.6116 20.6364 25.2781 18.9608 25.28C18.1227 25.28 17.3189 25.6129 16.7263 26.2056C16.1337 26.7982 15.8008 27.6019 15.8008 28.44ZM22.1208 31.2C24.3052 30.6311 26.2983 29.4897 27.8944 27.8936C29.4906 26.2975 30.632 24.3044 31.201 22.12H158.401C158.97 24.3044 160.111 26.2975 161.707 27.8936C163.303 29.4897 165.296 30.6311 167.481 31.2V126.8C165.296 127.369 163.303 128.51 161.707 130.106C160.111 131.703 158.97 133.696 158.401 135.88H31.201C30.632 133.696 29.4906 131.703 27.8944 130.106C26.2983 128.51 24.3052 127.369 22.1208 126.8V31.2Z" fill="#682F13" fill-opacity="0.06"/>
<path d="M15.8006 18.96C17.5458 18.96 18.9606 17.5452 18.9606 15.8C18.9606 14.0548 17.5458 12.64 15.8006 12.64C14.0554 12.64 12.6406 14.0548 12.6406 15.8C12.6406 17.5452 14.0554 18.96 15.8006 18.96Z" fill="#682F13" fill-opacity="0.06"/>
<path d="M173.801 18.96C175.546 18.96 176.961 17.5452 176.961 15.8C176.961 14.0548 175.546 12.64 173.801 12.64C172.055 12.64 170.641 14.0548 170.641 15.8C170.641 17.5452 172.055 18.96 173.801 18.96Z" fill="#682F13" fill-opacity="0.06"/>
<path d="M15.8006 145.36C17.5458 145.36 18.9606 143.945 18.9606 142.2C18.9606 140.455 17.5458 139.04 15.8006 139.04C14.0554 139.04 12.6406 140.455 12.6406 142.2C12.6406 143.945 14.0554 145.36 15.8006 145.36Z" fill="#682F13" fill-opacity="0.06"/>
<path d="M173.801 145.36C175.546 145.36 176.961 143.945 176.961 142.2C176.961 140.455 175.546 139.04 173.801 139.04C172.055 139.04 170.641 140.455 170.641 142.2C170.641 143.945 172.055 145.36 173.801 145.36Z" fill="#682F13" fill-opacity="0.06"/>
<path d="M41.4521 61.5309C41.722 62.0352 42.1236 62.4568 42.6143 62.7508C43.1049 63.0447 43.6662 63.2 44.2381 63.2H76.661C78.6953 66.126 81.4073 68.5163 84.5655 70.1671C87.7238 71.8178 91.2345 72.68 94.7981 72.68C98.3618 72.68 101.873 71.8178 105.031 70.1671C108.189 68.5163 110.901 66.126 112.935 63.2H145.358C145.93 63.2 146.491 63.0447 146.982 62.7508C147.473 62.4569 147.874 62.0353 148.144 61.531C148.414 61.0268 148.542 60.4587 148.514 59.8874C148.487 59.3162 148.305 58.7631 147.987 58.2872L142.836 50.56L147.987 42.8328C148.305 42.3569 148.487 41.8038 148.514 41.2326C148.542 40.6613 148.414 40.0932 148.144 39.589C147.874 39.0847 147.473 38.6631 146.982 38.3692C146.491 38.0753 145.93 37.92 145.358 37.92H112.935C110.901 34.9941 108.189 32.6037 105.031 30.9529C101.873 29.3022 98.3618 28.44 94.7981 28.44C91.2345 28.44 87.7238 29.3022 84.5655 30.9529C81.4073 32.6037 78.6953 34.9941 76.661 37.92H44.2381C43.6662 37.92 43.105 38.0753 42.6144 38.3692C42.1237 38.6631 41.7221 39.0847 41.4522 39.589C41.1823 40.0932 41.0544 40.6613 41.082 41.2326C41.1096 41.8038 41.2917 42.3569 41.6089 42.8328L46.7603 50.56L41.6089 58.2872C41.2916 58.763 41.1094 59.3161 41.0818 59.8874C41.0542 60.4586 41.1822 61.0267 41.4521 61.5309ZM139.454 44.24L136.409 48.8072C136.063 49.3263 135.878 49.9362 135.878 50.56C135.878 51.1839 136.063 51.7937 136.409 52.3128L139.454 56.88H115.993C117.226 52.7569 117.226 48.3631 115.993 44.24H139.454ZM94.7981 34.76C97.9231 34.76 100.978 35.6867 103.576 37.4228C106.174 39.1589 108.2 41.6265 109.395 44.5136C110.591 47.4007 110.904 50.5775 110.295 53.6424C109.685 56.7073 108.18 59.5226 105.97 61.7323C103.761 63.942 100.945 65.4468 97.8806 66.0564C94.8157 66.6661 91.6388 66.3532 88.7517 65.1573C85.8647 63.9614 83.397 61.9363 81.6609 59.338C79.9248 56.7397 78.9981 53.6849 78.9981 50.56C79.0029 46.371 80.6691 42.355 83.6311 39.393C86.5932 36.4309 90.6092 34.7648 94.7981 34.76ZM53.1874 48.8072L50.1427 44.24H73.603C72.3699 48.3631 72.3699 52.7569 73.603 56.88H50.1427L53.1874 52.3128C53.5334 51.7937 53.7181 51.1839 53.7181 50.56C53.7181 49.9362 53.5334 49.3263 53.1874 48.8072Z" fill="#682F13" fill-opacity="0.06"/>
<path d="M97.9609 85.32H129.561V91.64H97.9609V85.32Z" fill="#682F13" fill-opacity="0.06"/>
<path d="M75.8398 85.32H91.6398V91.64H75.8398V85.32Z" fill="#682F13" fill-opacity="0.06"/>
<path d="M60.0391 85.32H69.5191V91.64H60.0391V85.32Z" fill="#682F13" fill-opacity="0.06"/>
<path d="M28.4414 107.44H41.0814V113.76H28.4414V107.44Z" fill="#682F13" fill-opacity="0.06"/>
<path d="M47.3984 107.44H72.6784V113.76H47.3984V107.44Z" fill="#682F13" fill-opacity="0.06"/>
<path d="M41.0781 120.08H60.0381V126.4H41.0781V120.08Z" fill="#682F13" fill-opacity="0.06"/>
<path d="M148.52 107.44H161.16V113.76H148.52V107.44Z" fill="#682F13" fill-opacity="0.06"/>
<path d="M116.922 107.44H142.202V113.76H116.922V107.44Z" fill="#682F13" fill-opacity="0.06"/>
<path d="M129.559 120.08H148.519V126.4H129.559V120.08Z" fill="#682F13" fill-opacity="0.06"/>
</svg>
