<svg width="170" height="184" viewBox="0 0 170 184" fill="none" xmlns="http://www.w3.org/2000/svg">
<path d="M23.6795 81.8649C22.1824 81.8649 20.9688 83.0785 20.9688 84.5757V89.4721C20.9688 109.69 30.1289 128.395 46.1006 140.791L71.7071 160.665C72.653 161.399 73.7865 161.766 74.9203 161.766C76.0541 161.766 77.1876 161.399 78.1338 160.665L98.1621 145.12C99.3449 144.202 99.5594 142.499 98.6415 141.316C97.7237 140.134 96.021 139.919 94.8379 140.837L74.9203 156.296L49.4248 136.508C34.786 125.147 26.3903 108.003 26.3903 89.4721V84.5757C26.3903 83.0785 25.1767 81.8649 23.6795 81.8649Z" fill="#682F13" fill-opacity="0.06"/>
<path d="M74.9194 165.445C72.867 165.445 71.2031 167.109 71.2031 169.161C71.2031 171.214 72.867 172.878 74.9194 172.878C76.9718 172.878 78.6357 171.214 78.6357 169.161C78.6357 167.109 76.9718 165.445 74.9194 165.445Z" fill="#682F13" fill-opacity="0.06"/>
<path d="M74.9194 14.6204C72.867 14.6204 71.2031 16.2843 71.2031 18.3367C71.2031 20.3891 72.867 22.053 74.9194 22.053C76.9718 22.053 78.6357 20.3891 78.6357 18.3367C78.6357 16.284 76.9718 14.6204 74.9194 14.6204Z" fill="#682F13" fill-opacity="0.06"/>
<path d="M130.859 40.2306C130.859 42.283 132.523 43.9469 134.576 43.9469C136.628 43.9469 138.292 42.283 138.292 40.2306C138.292 38.1782 136.628 36.5143 134.576 36.5143C132.523 36.5143 130.859 38.1782 130.859 40.2306Z" fill="#682F13" fill-opacity="0.06"/>
<path d="M11.1016 40.2306C11.1016 42.283 12.7655 43.9469 14.8179 43.9469C16.8703 43.9469 18.5342 42.283 18.5342 40.2306C18.5342 38.1782 16.8703 36.5143 14.8179 36.5143C12.7655 36.5143 11.1016 38.1782 11.1016 40.2306Z" fill="#682F13" fill-opacity="0.06"/>
<path d="M164.188 166.226V100.47C167.36 98.9798 169.563 95.7551 169.563 92.0244C169.563 86.8814 165.379 82.6972 160.235 82.6972H128.87V49.7806C128.87 47.1123 126.874 44.8744 124.226 44.5754C113.892 43.4093 104.265 41.2171 95.6142 38.0592C89.8103 35.9415 84.5595 33.4132 80.0073 30.5444C76.9163 28.5958 72.9219 28.5962 69.8305 30.5447C65.2779 33.4136 60.0271 35.9418 54.2236 38.0592C45.5723 41.2167 35.9461 43.4093 25.6116 44.5754C22.9641 44.8744 20.9674 47.1123 20.9674 49.7806V71.7568C20.9674 73.2539 22.181 74.4675 23.6781 74.4675C25.1753 74.4675 26.3889 73.2539 26.3889 71.7568V49.9438C37.0861 48.7244 47.0752 46.4395 56.0819 43.1527C62.2455 40.9037 67.8439 38.2048 72.721 35.1314C74.0769 34.2775 75.7613 34.2765 77.1168 35.1311C81.9936 38.2048 87.5919 40.9033 93.7559 43.1527C102.763 46.4399 112.752 48.7241 123.449 49.9438V82.6969H108.921C103.777 82.6969 99.5932 86.8811 99.5932 92.0241C99.5932 95.7688 101.812 99.0031 105.004 100.486V159.487L84.7457 175.21C81.9468 177.382 78.457 178.578 74.9189 178.578C71.3295 178.578 67.9316 177.414 65.0929 175.21L36.1779 152.769C26.6574 145.38 18.8237 135.753 13.5233 124.93C8.22286 114.107 5.42153 102.017 5.42153 89.9649V30.8818C5.42153 30.1893 5.98503 29.6218 6.67755 29.6168L15.4668 29.5528C45.5059 29.3347 60.1299 19.163 66.1739 13.1193C68.015 11.2779 69.7263 9.30853 71.2601 7.26548C72.1402 6.09284 73.4828 5.42117 74.9451 5.42117C74.9491 5.42117 74.9527 5.42117 74.9566 5.42153C76.4125 5.42477 77.7454 6.0968 78.6133 7.26441C80.1554 9.33908 81.8548 11.3088 83.6654 13.1193C88.5313 17.9849 103.213 29.3268 134.372 29.5528L143.162 29.6168C143.854 29.6218 144.418 30.1893 144.418 30.8818V71.6439C144.418 73.1411 145.631 74.3547 147.128 74.3547C148.626 74.3547 149.839 73.1411 149.839 71.6439V30.8818C149.839 27.2216 146.861 24.2222 143.202 24.1953L134.412 24.1313C105.258 23.9196 91.8929 13.6785 87.4995 9.28589C85.8755 7.66152 84.35 5.89339 82.965 4.03039C81.0657 1.47631 78.1518 0.00754687 74.9692 0C74.961 0 74.9527 0 74.9444 0C71.7607 0 68.8383 1.4605 66.9239 4.01027C65.5432 5.84955 64.0007 7.6245 62.3397 9.28553C56.8826 14.7426 43.5322 23.9272 15.4269 24.1313L6.63766 24.1953C2.97778 24.2222 0 27.2216 0 30.8818V89.9652C0 102.839 2.99252 115.754 8.65411 127.315C14.3161 138.877 22.6841 149.159 32.8537 157.053L61.7687 179.494C65.513 182.4 70.1831 184 74.9189 184C79.6544 184 84.3248 182.4 88.0699 179.493L101.425 169.128C100.275 170.679 99.5936 172.597 99.5936 174.672C99.5936 179.815 103.778 184 108.921 184H160.236C165.379 184 169.563 179.815 169.563 174.672C169.563 170.942 167.361 167.717 164.188 166.226ZM110.425 134.828C112.713 132.492 114.822 129.987 116.726 127.344C118.683 129.714 120.965 131.713 123.459 133.168C117.089 136.885 112.089 144.137 110.425 152.119V134.828ZM110.425 114.216C111.032 117.127 112.084 119.939 113.483 122.519C112.527 123.947 111.505 125.333 110.425 126.676V114.216ZM115.251 157.791C115.251 148.136 121.946 138.305 129.872 136.322C131.32 135.959 132.332 134.662 132.331 133.167C132.331 131.672 131.319 130.374 129.871 130.013C121.946 128.031 115.25 118.199 115.25 108.544V101.352H153.904V108.544C153.904 118.199 147.209 128.031 139.285 130.013C137.836 130.374 136.824 131.671 136.824 133.167C136.824 134.662 137.835 135.96 139.284 136.323C147.209 138.305 153.904 148.136 153.904 157.791V165.344H115.251V157.791ZM158.767 152.301C157.141 144.247 152.115 136.913 145.697 133.168C152.116 129.423 157.141 122.088 158.767 114.035V152.301ZM108.921 88.1184H160.235C162.389 88.1184 164.141 89.8703 164.141 92.0244C164.141 94.1782 162.389 95.9308 160.235 95.9308H108.921C106.767 95.9308 105.014 94.1785 105.014 92.0244C105.015 89.8707 106.767 88.1184 108.921 88.1184ZM160.235 178.578H108.921C106.767 178.578 105.014 176.826 105.014 174.672C105.014 172.518 106.767 170.766 108.921 170.766H160.235C162.389 170.766 164.141 172.518 164.141 174.672C164.141 176.826 162.389 178.578 160.235 178.578Z" fill="#682F13" fill-opacity="0.06"/>
<path d="M62.4997 114.674H62.5371C65.0445 114.674 67.3729 113.545 68.9243 111.575L103.191 68.0908C104.535 66.3845 105.135 64.257 104.879 62.1C104.624 59.9427 103.543 58.0143 101.837 56.6702C100.131 55.3258 98.0031 54.7264 95.8465 54.9815C93.6892 55.237 91.7608 56.3177 90.4167 58.024L62.6291 93.2862L49.9928 76.7859C47.2673 73.2263 42.153 72.547 38.5916 75.2736C36.867 76.5943 35.7601 78.5076 35.4744 80.661C35.1887 82.8144 35.7587 84.9502 37.0794 86.6748L56.0806 111.486C57.6187 113.494 59.9514 114.656 62.4997 114.674ZM40.8488 81.3737C40.9441 80.656 41.3132 80.0185 41.8874 79.5786C42.3787 79.2027 42.958 79.0208 43.5334 79.0208C44.3488 79.0208 45.1556 79.3863 45.6882 80.0821L60.4463 99.3528C60.9552 100.017 61.7425 100.409 62.5799 100.415C63.4036 100.41 64.21 100.04 64.7275 99.3819L94.6749 61.3788C95.1227 60.8102 95.7653 60.4501 96.4844 60.3646C97.2046 60.2809 97.9129 60.4796 98.4818 60.9277C99.0503 61.3759 99.4104 62.0188 99.4956 62.7375C99.5808 63.4563 99.381 64.1657 98.9328 64.7346L64.6664 108.219C64.1493 108.876 63.3734 109.252 62.5375 109.252H62.5188C61.6753 109.246 60.8977 108.859 60.3852 108.19L41.3839 83.3779C40.9434 82.8036 40.7532 82.0917 40.8488 81.3737Z" fill="#682F13" fill-opacity="0.06"/>
</svg>
