<svg width="123" height="173" viewBox="0 0 123 173" fill="none" xmlns="http://www.w3.org/2000/svg">
<path d="M115.427 34.208H45.8087L44.0867 57.824L72.3767 61.514C105.833 65.286 122.397 83.982 122.069 117.602C122.069 154.502 101.487 172.952 60.3227 172.952C42.2827 172.952 22.1927 171.312 0.0527344 168.032L4.23474 133.346C21.6187 134.658 36.2967 135.314 48.2687 135.314C59.0927 135.314 66.3907 133.92 70.1627 131.132C73.9347 128.344 76.0667 123.342 76.5587 116.126C76.8867 108.418 74.9187 103.252 70.6547 100.628C66.3907 97.84 58.1907 95.954 46.0547 94.97L19.7327 91.772C15.6327 91.28 12.3527 89.64 9.89273 86.852C7.43273 83.9 6.28474 80.456 6.44873 76.52L10.8767 0.26001H117.149L115.427 34.208Z" fill="black" fill-opacity="0.05"/>
</svg>
