<svg width="84" height="80" viewBox="0 0 84 80" fill="none" xmlns="http://www.w3.org/2000/svg">
<path d="M30.4582 52.9728H16.3177C15.4184 52.9728 14.6875 53.6993 14.6875 54.5945C14.6875 55.4896 15.4184 56.2161 16.3177 56.2161H30.4582C31.3597 56.2161 32.0905 55.4896 32.0905 54.5945C32.0905 53.6993 31.36 52.9728 30.4582 52.9728Z" fill="#682F13"/>
<path d="M82.7315 59.3934L69.8862 46.6259C72.8569 43.0681 74.6472 38.4984 74.6472 33.5124C74.6472 27.0919 71.6786 21.3645 67.0374 17.5968V4.32435C67.0374 1.94602 65.0795 0 62.686 0H4.35133C1.95789 0 0 1.94602 0 4.32435V75.6757C0 78.054 1.95789 80 4.35133 80H62.6875C65.0821 80 67.0388 78.0541 67.0388 75.6757L67.0377 49.4294C67.2324 49.2725 67.4095 49.1019 67.5977 48.9386L80.4247 61.6878C81.0624 62.3213 82.0949 62.3213 82.7328 61.6878C83.3707 61.0541 83.3695 60.0269 82.7315 59.3934ZM50.0335 42.1621H38.9307C37.6149 39.9091 36.802 37.3395 36.6314 34.5945H50.0323C50.9338 34.5945 51.6647 33.868 51.6647 32.9728C51.6647 32.0777 50.9338 31.3512 50.0323 31.3512H36.7276C37.0778 28.5728 38.0833 25.9934 39.6009 23.7836H50.0333C50.9348 23.7836 51.6657 23.0571 51.6657 22.162C51.6657 21.2668 50.9348 20.5403 50.0333 20.5403H42.5057C45.5737 17.8583 49.5834 16.216 53.9791 16.216C57.6082 16.216 60.9813 17.3294 63.7726 19.2259L63.7747 47.7998C60.9813 49.697 57.6095 50.8106 53.9801 50.8106C49.0201 50.8106 44.5476 48.7263 41.3748 45.4052H50.0343C50.9358 45.4052 51.6666 44.6787 51.6666 43.7836C51.667 42.8886 50.935 42.1621 50.0335 42.1621ZM62.6873 76.7566H4.35133C3.76219 76.7566 3.26374 76.2614 3.26374 75.6755V4.32435C3.26374 3.73846 3.76219 3.24326 4.35133 3.24326H62.6852C63.2743 3.24326 63.7728 3.73846 63.7728 4.32435V15.425C60.8593 13.8619 57.5253 12.9731 53.9803 12.9731C47.5167 12.9731 41.7501 15.9233 37.9631 20.5407H16.3153C15.4159 20.5407 14.685 21.2671 14.685 22.1623C14.685 23.0575 15.4159 23.7839 16.3153 23.7839H35.7768C34.5335 26.079 33.7143 28.6358 33.4287 31.3515H16.3153C15.4159 31.3515 14.685 32.078 14.685 32.9732C14.685 33.8683 15.4159 34.5948 16.3153 34.5948H33.3671C33.5087 37.2889 34.1649 39.8424 35.2525 42.1624H16.3156C15.4162 42.1624 14.6854 42.8889 14.6854 43.784C14.6854 44.6792 15.4162 45.4057 16.3156 45.4057H37.149C40.8948 50.6336 47.0291 54.0544 53.9791 54.0544C57.5239 54.0544 60.858 53.1657 63.7747 51.6015V75.6755H63.7749C63.7749 76.2614 63.2765 76.7566 62.6873 76.7566ZM67.0367 44.9102V22.1157C69.7339 25.1621 71.3827 29.1448 71.3827 33.5124C71.3825 37.8798 69.7339 41.8627 67.0367 44.9102Z" fill="#682F13"/>
</svg>
