<svg width="81" height="80" viewBox="0 0 81 80" fill="none" xmlns="http://www.w3.org/2000/svg">
<path d="M12.8737 48.7357C5.76379 48.7357 0 54.4993 0 61.6092C0 68.7191 5.76379 74.4829 12.8737 74.4829C19.9835 74.4829 25.7473 68.7191 25.7473 61.6092C25.7473 54.4993 19.9834 48.7357 12.8737 48.7357ZM12.8737 71.7243C7.29668 71.7243 2.7587 67.1865 2.7587 61.6094C2.7587 56.0322 7.29652 51.4944 12.8737 51.4944C18.4508 51.4944 22.9886 56.0322 22.9886 61.6094C22.9885 67.1862 18.4506 71.7243 12.8737 71.7243Z" fill="#682F13"/>
<path d="M40.4594 54.2529C33.3496 54.2529 27.5859 60.0166 27.5859 67.1265C27.5859 74.2364 33.3497 80 40.4594 80C47.5693 80 53.3331 74.2362 53.3331 67.1265C53.3331 60.0166 47.5693 54.2529 40.4594 54.2529ZM40.4594 77.2416C34.8825 77.2416 30.3445 72.7038 30.3445 67.1267C30.3445 61.5497 34.8823 57.0117 40.4594 57.0117C46.0364 57.0117 50.5744 61.5495 50.5744 67.1267C50.5744 72.7036 46.0366 77.2416 40.4594 77.2416Z" fill="#682F13"/>
<path d="M40.4597 0C28.2704 0 18.3906 9.88121 18.3906 22.0689C18.3906 34.2583 28.2703 44.1379 40.4597 44.1379C52.6492 44.1379 62.5287 34.2583 62.5287 22.0689C62.5288 9.88152 52.6492 0 40.4597 0ZM40.4597 41.3795C29.8114 41.3795 21.1493 32.7164 21.1493 22.0691C21.1493 11.4218 29.8114 2.7587 40.4597 2.7587C51.1079 2.7587 59.7701 11.4217 59.7701 22.0691C59.7703 32.7165 51.1082 41.3795 40.4597 41.3795Z" fill="#682F13"/>
<path d="M68.0455 48.7357C60.9357 48.7357 55.1719 54.4995 55.1719 61.6092C55.1719 68.7189 60.9357 74.4829 68.0455 74.4829C75.1554 74.4829 80.919 68.7191 80.919 61.6092C80.919 54.4993 75.1554 48.7357 68.0455 48.7357ZM68.0455 71.7243C62.4686 71.7243 57.9306 67.1865 57.9306 61.6094C57.9306 56.0322 62.4684 51.4944 68.0455 51.4944C73.6225 51.4944 78.1605 56.0322 78.1605 61.6094C78.1605 67.1862 73.6227 71.7243 68.0455 71.7243Z" fill="#682F13"/>
<path d="M45.3481 20.7521C46.9354 19.3803 47.9431 17.3571 47.9431 15.0941C47.9421 10.9618 44.5933 7.61279 40.4598 7.612C36.3264 7.61295 32.9775 10.9619 32.9764 15.0942C32.9764 17.3573 33.9851 19.3801 35.5714 20.7523C31.1752 22.5169 28.0945 26.6308 28.0938 31.7242C28.0938 32.0873 28.2407 32.4423 28.4974 32.6998C28.7539 32.9574 29.1098 33.1034 29.474 33.1034H51.4465C51.8097 33.1034 52.1646 32.9564 52.4221 32.6998C52.6796 32.4431 52.8258 32.0875 52.8258 31.7242C52.8248 26.6308 49.7445 22.5167 45.3481 20.7521ZM37.119 11.7545C37.9778 10.8967 39.1503 10.3716 40.4596 10.3705C41.7681 10.3715 42.9406 10.8965 43.8002 11.7545C44.6573 12.6143 45.1831 13.7859 45.1842 15.0944C45.1833 16.4038 44.6573 17.5754 43.8002 18.435C42.9404 19.2929 41.7681 19.8179 40.4596 19.819C39.1503 19.8181 37.9778 19.2921 37.119 18.435C36.2619 17.5752 35.7361 16.4036 35.735 15.0944C35.7361 13.7859 36.262 12.6145 37.119 11.7545ZM30.9702 30.3447C31.28 28.3744 32.2436 26.8156 33.6671 25.3903C35.4095 23.6496 37.8024 22.5774 40.4598 22.5764C43.1164 22.5774 45.5098 23.6496 47.2524 25.3903C48.6759 26.8156 49.6405 28.3742 49.9503 30.3447H30.9702Z" fill="#682F13"/>
<path d="M40.516 52.8827C41.2777 52.8827 41.8953 52.2652 41.8953 51.5035C41.8953 50.7417 41.2777 50.1242 40.516 50.1242C39.7542 50.1242 39.1367 50.7417 39.1367 51.5035C39.1367 52.2652 39.7542 52.8827 40.516 52.8827Z" fill="#682F13"/>
<path d="M40.516 48.2844C41.2777 48.2844 41.8953 47.6669 41.8953 46.9051C41.8953 46.1434 41.2777 45.5259 40.516 45.5259C39.7542 45.5259 39.1367 46.1434 39.1367 46.9051C39.1367 47.6669 39.7542 48.2844 40.516 48.2844Z" fill="#682F13"/>
<path d="M59.7465 50.5993C60.5082 50.5993 61.1257 49.9818 61.1257 49.22C61.1257 48.4583 60.5082 47.8407 59.7465 47.8407C58.9847 47.8407 58.3672 48.4583 58.3672 49.22C58.3672 49.9818 58.9847 50.5993 59.7465 50.5993Z" fill="#682F13"/>
<path d="M56.7933 47.0766C57.5551 47.0766 58.1726 46.4591 58.1726 45.6973C58.1726 44.9356 57.5551 44.318 56.7933 44.318C56.0316 44.318 55.4141 44.9356 55.4141 45.6973C55.4141 46.4591 56.0316 47.0766 56.7933 47.0766Z" fill="#682F13"/>
<path d="M53.8363 43.5555C54.598 43.5555 55.2156 42.9379 55.2156 42.1762C55.2156 41.4144 54.598 40.7969 53.8363 40.7969C53.0745 40.7969 52.457 41.4144 52.457 42.1762C52.457 42.9379 53.0745 43.5555 53.8363 43.5555Z" fill="#682F13"/>
<path d="M21.2738 50.705C22.0355 50.705 22.6531 50.0875 22.6531 49.3257C22.6531 48.564 22.0355 47.9465 21.2738 47.9465C20.512 47.9465 19.8945 48.564 19.8945 49.3257C19.8945 50.0875 20.512 50.705 21.2738 50.705Z" fill="#682F13"/>
<path d="M24.2269 47.1839C24.9887 47.1839 25.6062 46.5664 25.6062 45.8046C25.6062 45.0429 24.9887 44.4253 24.2269 44.4253C23.4652 44.4253 22.8477 45.0429 22.8477 45.8046C22.8477 46.5664 23.4652 47.1839 24.2269 47.1839Z" fill="#682F13"/>
<path d="M27.184 43.6612C27.9457 43.6612 28.5632 43.0437 28.5632 42.2819C28.5632 41.5202 27.9457 40.9026 27.184 40.9026C26.4222 40.9026 25.8047 41.5202 25.8047 42.2819C25.8047 43.0437 26.4222 43.6612 27.184 43.6612Z" fill="#682F13"/>
<path d="M74.602 64.5602C74.1662 63.2664 73.2604 62.1986 72.1109 61.4613C71.9583 61.3638 71.7882 61.2867 71.6281 61.1993C72.144 60.4766 72.4539 59.5985 72.4547 58.6421C72.4537 56.2017 70.4767 54.2255 68.0373 54.2247C65.5969 54.2257 63.6207 56.2017 63.6199 58.6421C63.6208 59.5975 63.9317 60.4767 64.4465 61.1993C64.2848 61.2867 64.1163 61.3638 63.9636 61.4613C62.8142 62.1988 61.9075 63.2664 61.4708 64.5603C61.228 65.2823 61.616 66.0648 62.338 66.3075C63.0599 66.5503 63.8424 66.1623 64.0852 65.4403C64.293 64.8195 64.761 64.2273 65.4534 63.7824C66.142 63.34 67.0406 63.0579 68.0365 63.0587C69.0323 63.0578 69.9307 63.34 70.6196 63.7824C71.312 64.2265 71.7809 64.8197 71.9878 65.4403C72.2315 66.1623 73.0131 66.5501 73.735 66.3075C74.4568 66.0635 74.8448 65.2821 74.602 64.5602ZM68.0374 60.2999C67.1216 60.2981 66.3803 59.555 66.3786 58.641C66.3803 57.7242 67.1216 56.9839 68.0374 56.9822C68.9524 56.9839 69.6946 57.7251 69.6963 58.641C69.6944 59.5559 68.9514 60.298 68.0374 60.2999Z" fill="#682F13"/>
<path d="M47.0472 70.0774C46.6119 68.7836 45.7054 67.716 44.5559 66.9786C44.4025 66.881 44.2332 66.8039 44.0723 66.7165C44.5891 65.9938 44.8989 65.1157 44.9 64.1593C44.899 61.7189 42.922 59.7427 40.4826 59.7419C38.0422 59.7429 36.0652 61.7189 36.0652 64.1593C36.0652 65.1147 36.377 65.9939 36.8918 66.7167C36.7301 66.8041 36.5616 66.8812 36.409 66.9787C35.2595 67.7162 34.3528 68.7838 33.9161 70.0775C33.6733 70.7995 34.0613 71.582 34.7833 71.8247C35.5053 72.0675 36.2877 71.6795 36.5305 70.9575C36.7383 70.3367 37.2063 69.7445 37.8987 69.2996C38.5873 68.8573 39.486 68.5751 40.4818 68.5759C41.4777 68.575 42.376 68.8573 43.0649 69.2996C43.7575 69.7437 44.2264 70.3369 44.4331 70.9575C44.6768 71.6795 45.4584 72.0673 46.1803 71.8247C46.902 71.5807 47.29 70.7992 47.0472 70.0774ZM40.4824 65.8172C39.5666 65.8155 38.8253 65.0724 38.8236 64.1584C38.8253 63.2416 39.5666 62.5013 40.4824 62.4995C41.3974 62.5013 42.1396 63.2425 42.1413 64.1584C42.1394 65.0732 41.3974 65.8152 40.4824 65.8172Z" fill="#682F13"/>
<path d="M19.4613 64.5602C19.026 63.2664 18.1193 62.1986 16.97 61.4613C16.8165 61.3638 16.6473 61.2867 16.4864 61.1993C17.0032 60.4766 17.3129 59.5985 17.3141 58.6421C17.3131 56.2017 15.3361 54.2255 12.8967 54.2247C10.4563 54.2257 8.47927 56.2017 8.47927 58.6421C8.47927 59.5975 8.7911 60.4767 9.30585 61.1993C9.14417 61.2867 8.97569 61.3638 8.82302 61.4613C7.67355 62.1988 6.76684 63.2664 6.33016 64.5603C6.0874 65.2823 6.4754 66.0648 7.19736 66.3075C7.91931 66.5503 8.7018 66.1623 8.94456 65.4403C9.15239 64.8195 9.62036 64.2273 10.3128 63.7824C11.0014 63.34 11.9 63.0579 12.8959 63.0587C13.8917 63.0578 14.7901 63.34 15.479 63.7824C16.1714 64.2265 16.6403 64.8197 16.8472 65.4403C17.0909 66.1623 17.8724 66.5501 18.5944 66.3075C19.316 66.0635 19.704 65.2821 19.4613 64.5602ZM12.8963 60.2999C11.9805 60.2981 11.2392 59.555 11.2375 58.641C11.2392 57.7242 11.9805 56.9839 12.8963 56.9822C13.8113 56.9839 14.5535 57.7251 14.5552 58.641C14.5535 59.5559 13.8113 60.298 12.8963 60.2999Z" fill="#682F13"/>
</svg>
