<svg width="130" height="176" viewBox="0 0 130 176" fill="none" xmlns="http://www.w3.org/2000/svg">
<path d="M118.034 5.22798L116.066 33.764C106.718 33.6 92.7782 33.518 74.2462 33.518C63.0942 33.518 55.5502 35.896 51.6142 40.652C47.8422 45.244 45.6282 55.33 44.9722 70.91C53.3362 64.35 64.8982 61.07 79.6582 61.07C98.5182 61.07 111.474 65.088 118.526 73.124C125.742 80.996 129.35 94.526 129.35 113.714C129.35 124.866 128.448 134.132 126.644 141.512C125.004 148.728 121.888 155.124 117.296 160.7C112.704 166.112 106.226 170.048 97.8622 172.508C89.4982 174.804 78.9202 175.952 66.1282 175.952C48.7442 175.952 35.4602 173.574 26.2762 168.818C17.0922 163.898 10.4502 155.37 6.35019 143.234C2.2502 130.934 0.200195 113.14 0.200195 89.852C0.200195 74.436 1.1842 61.398 3.15219 50.738C5.28419 40.078 8.15419 31.468 11.7622 24.908C15.5342 18.348 20.6182 13.264 27.0142 9.65598C33.4102 5.88398 40.2162 3.42399 47.4322 2.27599C54.6482 0.963991 63.5862 0.307983 74.2462 0.307983C91.7942 0.307983 106.39 1.94798 118.034 5.22798ZM66.3742 142.496C75.0662 142.496 80.4782 140.692 82.6102 137.084C84.9062 133.312 86.0542 125.85 86.0542 114.698C86.0542 105.514 84.7422 99.528 82.1182 96.74C79.4942 93.788 74.1642 92.312 66.1282 92.312C59.0762 92.312 51.8602 94.444 44.4802 98.708C44.6442 117.896 45.8742 130.032 48.1702 135.116C50.6302 140.036 56.6982 142.496 66.3742 142.496Z" fill="black" fill-opacity="0.05"/>
</svg>
