<svg width="79" height="81" viewBox="0 0 79 81" fill="none" xmlns="http://www.w3.org/2000/svg">
<path d="M77.567 11.9907C77.54 11.4901 77.1937 11.0638 76.7092 10.9348L39.5705 1.039C39.375 0.987001 39.1695 0.987001 38.9741 1.039L1.89327 10.935C1.40971 11.0641 1.06377 11.4894 1.036 11.9891C1.01023 12.452 0.456154 23.4882 4.79605 37.441C7.34673 45.6412 11.0702 53.1283 15.8633 59.6945C21.8589 67.9084 29.5491 74.6898 38.7199 79.8512C38.8959 79.9503 39.0916 80 39.2874 80C39.4738 80 39.6603 79.9549 39.8302 79.8648C49.0164 74.9853 56.7193 68.3759 62.7247 60.2199C67.5232 53.7029 71.2508 46.1939 73.8041 37.9012C78.1463 23.7981 77.5927 12.4664 77.567 11.9907ZM71.5679 37.2982C69.0868 45.3281 65.4746 52.5916 60.8315 58.8874C55.4158 66.2305 48.5677 72.2748 40.4589 76.8773V70.9238C50.971 64.2873 58.8991 54.8928 64.024 42.9887C68.2439 33.1873 69.619 23.8832 70.0294 17.8039C70.0667 17.2516 69.7077 16.7501 69.1726 16.6077L66.8126 15.9789C66.1953 15.8144 65.561 16.1815 65.3964 16.7993C65.2319 17.4168 65.5989 18.0511 66.2167 18.2156L67.6497 18.5975C67.1749 24.491 65.7745 33.0694 61.898 42.0734C56.9889 53.4764 49.4194 62.4855 39.3931 68.8622C38.3866 68.1967 37.3968 67.5023 36.4431 66.7922C35.9306 66.4104 35.2054 66.5164 34.8236 67.0292C34.4418 67.5417 34.5478 68.2669 35.0606 68.6487C36.0572 69.3908 37.0923 70.1143 38.144 70.8088V76.8395C30.0316 71.9866 23.1816 65.782 17.7642 58.3727C13.1225 52.0241 9.51167 44.7779 7.03181 36.8353C3.46247 25.4026 3.28796 15.7649 3.32499 12.9485L38.144 3.65618V8.94222L9.44671 16.6009C8.91037 16.7441 8.55117 17.2479 8.59067 17.8016C8.88954 21.984 9.73077 28.4911 12.042 35.7414C15.8628 47.7274 22.28 57.7269 31.1152 65.4623C31.3348 65.6545 31.6065 65.7488 31.8773 65.7488C32.1993 65.7488 32.5196 65.6152 32.7486 65.3538C33.1697 64.8729 33.1211 64.1417 32.6401 63.7207C24.1266 56.2673 17.9384 46.6171 14.2473 35.0386C12.1739 28.5342 11.32 22.6465 10.9742 18.5893L39.2742 11.0368L61.2145 16.8829C61.8321 17.0473 62.4663 16.6804 62.6307 16.0625C62.7952 15.4451 62.4282 14.8107 61.8103 14.6463L40.4588 8.95688V3.67114L75.2775 12.949C75.3158 15.8135 75.1488 25.7093 71.5679 37.2982Z" fill="#682F13" stroke="#682F13"/>
<path d="M56.7135 28.0414C56.0279 27.3547 55.1159 26.9769 54.1454 26.9769C53.1747 26.9769 52.2626 27.3547 51.5777 28.0407L36.8274 42.7904L28.7747 34.7383C28.0894 34.052 27.1772 33.674 26.2067 33.674C25.236 33.674 24.3241 34.0518 23.6394 34.7375C22.9534 35.4234 22.5752 36.3353 22.5752 37.3055C22.5752 38.2757 22.9531 39.1874 23.6391 39.873L34.2592 50.4932C34.9447 51.1795 35.8566 51.5575 36.8273 51.5575C37.7979 51.5575 38.7098 51.1797 39.3949 50.4937L56.7125 33.176C57.3987 32.4905 57.7767 31.5785 57.7767 30.6082C57.7767 29.638 57.3989 28.7261 56.7135 28.0414ZM55.0761 31.539L37.7577 48.8574C37.5096 49.1058 37.1792 49.2426 36.8273 49.2426C36.4753 49.2426 36.145 49.1058 35.8964 48.8569L25.2755 38.2359C25.027 37.9875 24.89 37.6571 24.89 37.3053C24.89 36.9535 25.027 36.6233 25.2763 36.3738C25.5244 36.1254 25.8549 35.9886 26.2067 35.9886C26.5584 35.9886 26.8887 36.1254 27.1376 36.3743L36.0092 45.2453C36.4611 45.6972 37.194 45.6971 37.6458 45.2453L53.2151 29.6766C53.4632 29.4282 53.7937 29.2913 54.1455 29.2913C54.4973 29.2913 54.8275 29.4282 55.0765 29.6774C55.3251 29.9258 55.4621 30.2563 55.4621 30.6079C55.4621 30.9596 55.325 31.2902 55.0761 31.539Z" fill="#682F13" stroke="#682F13"/>
</svg>
