<svg width="127" height="173" viewBox="0 0 127 173" fill="none" xmlns="http://www.w3.org/2000/svg">
<path d="M3.49497 40.16L1.77297 5.96599C20.797 2.19399 41.051 0.307983 62.535 0.307983C82.379 0.307983 97.303 3.25999 107.307 9.16399C117.475 15.068 122.559 25.81 122.559 41.39C122.559 51.066 120.837 59.512 117.393 66.728C113.949 73.78 106.815 82.964 95.991 94.28L54.171 135.362C60.075 133.886 68.029 133.148 78.033 133.148H126.987V173H0.542969V148.892C0.542969 141.348 2.67497 135.198 6.93897 130.442L45.069 91.082C65.405 70.418 75.491 55.658 75.327 46.802C75.327 43.522 73.933 41.39 71.145 40.406C68.521 39.422 63.683 38.93 56.631 38.93C36.787 38.93 19.075 39.34 3.49497 40.16Z" fill="black" fill-opacity="0.05"/>
</svg>
