<svg width="135" height="177" viewBox="0 0 135 177" fill="none" xmlns="http://www.w3.org/2000/svg">
<path d="M31.1066 85.424V84.44C22.4146 83.456 15.9366 79.274 11.6726 71.894C7.40863 64.514 5.27663 55.74 5.27663 45.572C5.27663 28.844 9.45863 17.118 17.8226 10.394C26.3506 3.50601 42.9146 0.0620117 67.5146 0.0620117C84.5706 0.0620117 97.6086 1.78401 106.629 5.228C115.813 8.508 121.963 13.264 125.079 19.496C128.359 25.564 129.999 34.256 129.999 45.572C129.999 55.74 127.867 64.514 123.603 71.894C119.339 79.274 112.861 83.456 104.169 84.44V85.424C124.177 87.228 134.181 102.316 134.181 130.688C134.181 147.744 129.589 159.634 120.405 166.358C111.385 172.918 93.7546 176.28 67.5146 176.444C41.7666 176.608 24.2186 173.328 14.8706 166.604C5.52263 159.716 0.848633 147.744 0.848633 130.688C0.848633 102.316 10.9346 87.228 31.1066 85.424ZM67.7606 31.058C59.0686 31.058 53.3286 32.37 50.5406 34.994C47.9166 37.618 46.6046 43.112 46.6046 51.476C46.6046 59.02 47.9986 64.022 50.7866 66.482C53.7386 68.942 59.5606 70.172 68.2526 70.172C76.7806 70.172 82.2746 68.942 84.7346 66.482C87.3586 64.022 88.6706 59.02 88.6706 51.476C88.6706 43.112 87.2766 37.618 84.4886 34.994C81.8646 32.37 76.2886 31.058 67.7606 31.058ZM68.0066 99.692C58.3306 99.692 51.9346 101.168 48.8186 104.12C45.7026 107.072 44.1446 112.976 44.1446 121.832C44.1446 130.36 45.7026 136.018 48.8186 138.806C51.9346 141.594 58.2486 142.988 67.7606 142.988C77.1086 142.988 83.2586 141.594 86.2106 138.806C89.1626 136.018 90.6386 130.36 90.6386 121.832C90.6386 112.812 89.1626 106.908 86.2106 104.12C83.4226 101.168 77.3546 99.692 68.0066 99.692Z" fill="black" fill-opacity="0.05"/>
</svg>
