<svg width="89" height="68" viewBox="0 0 89 68" fill="none" xmlns="http://www.w3.org/2000/svg">
<path d="M9.82333 42.8459H20.8282C21.78 42.8459 22.5519 42.074 22.5519 41.1222V30.0375C22.5519 29.0857 21.78 28.3138 20.8282 28.3138H14.6786C13.9939 28.3138 13.3744 28.7189 13.0996 29.346L8.24439 40.4306C8.011 40.9636 8.06219 41.5783 8.38056 42.0652C8.69894 42.5522 9.2414 42.8459 9.82333 42.8459ZM15.8054 31.7614H19.1045V39.3986H12.4603L15.8054 31.7614Z" fill="#682F13"/>
<path d="M86.9037 0H65.5342C64.5823 0 63.8104 0.77189 63.8104 1.72374C63.8104 2.67559 64.5823 3.44747 65.5342 3.44747H85.1799V56.9538H75.8854C75.8971 56.7435 75.9031 56.5317 75.9031 56.3185C75.9031 50.1301 70.8729 45.0954 64.6902 45.0954C58.5075 45.0954 53.4773 50.1301 53.4773 56.3185C53.4773 56.5317 53.4833 56.7435 53.4951 56.9538H30.2801V3.44747H49.9259C50.8777 3.44747 51.6496 2.67559 51.6496 1.72374C51.6496 0.77189 50.8777 0 49.9259 0H28.5564C27.6045 0 26.8326 0.77189 26.8326 1.72374V20.5778H9.62923C8.94456 20.5778 8.32505 20.9831 8.05028 21.61L0.516864 38.8093C0.421369 39.0273 0.37207 39.2628 0.37207 39.5008V58.6776C0.37207 59.6294 1.14396 60.4013 2.09581 60.4013H7.19031C7.93773 64.4585 11.4984 67.5415 15.765 67.5415C20.0315 67.5415 23.5922 64.4585 24.3396 60.4013H54.2451C55.88 64.5769 59.9456 67.5415 64.69 67.5415C69.4345 67.5415 73.5001 64.5771 75.135 60.4013H86.9037C87.8555 60.4013 88.6274 59.6294 88.6274 58.6776V1.72374C88.6274 0.77189 87.8555 0 86.9037 0ZM3.81954 39.8618L10.756 24.0253H26.8326V56.9538H24.2846C23.4303 53.033 19.9349 50.0884 15.7652 50.0884C11.5955 50.0884 8.09993 53.033 7.24564 56.9538H3.81954V39.8618ZM15.7652 64.0941C12.8585 64.0941 10.4935 61.726 10.4935 58.815C10.4935 55.9039 12.8585 53.5358 15.7652 53.5358C18.672 53.5358 21.0367 55.9039 21.0367 58.815C21.0367 61.726 18.672 64.0941 15.7652 64.0941ZM64.6902 64.0941C60.4083 64.0941 56.9248 60.6061 56.9248 56.3186C56.9248 52.0312 60.4083 48.543 64.6902 48.543C68.9722 48.543 72.4557 52.0312 72.4557 56.3186C72.4557 60.6061 68.9722 64.0941 64.6902 64.0941Z" fill="#682F13"/>
<path d="M56.1697 2.38323C56.45 3.05566 57.1429 3.48987 57.8708 3.44333C58.5815 3.39783 59.2021 2.90501 59.4101 2.22465C59.6211 1.53516 59.3646 0.757233 58.7799 0.333022C58.2165 -0.0758486 57.4449 -0.106358 56.8526 0.260281C56.145 0.698454 55.8496 1.6141 56.1697 2.38323Z" fill="#682F13"/>
<path d="M42.3691 24.3026C43.321 24.3026 44.0928 23.5307 44.0928 22.5789C44.0928 21.627 43.321 20.8551 42.3691 20.8551H36.1085C35.1567 20.8551 34.3848 21.627 34.3848 22.5789V38.0254C34.3848 38.9773 35.1567 39.7492 36.1085 39.7492C37.0603 39.7492 37.8322 38.9773 37.8322 38.0254V31.8796H41.8718C42.8237 31.8796 43.5956 31.1077 43.5956 30.1559C43.5956 29.2041 42.8237 28.4322 41.8718 28.4322H37.8322V24.3026H42.3691Z" fill="#682F13"/>
<path d="M66.8308 24.3307C67.7827 24.3307 68.5546 23.5589 68.5546 22.607C68.5546 21.6552 67.7827 20.8833 66.8308 20.8833H60.3341C59.3822 20.8833 58.6104 21.6552 58.6104 22.607V38.0255C58.6104 38.9773 59.3822 39.7492 60.3341 39.7492H66.8308C67.7827 39.7492 68.5546 38.9773 68.5546 38.0255C68.5546 37.0736 67.7827 36.3018 66.8308 36.3018H62.0578V32.0402H66.3518C67.3037 32.0402 68.0756 31.2683 68.0756 30.3164C68.0756 29.3646 67.3037 28.5927 66.3518 28.5927H62.0578V24.3307H66.8308Z" fill="#682F13"/>
<path d="M79.3522 24.3307C80.304 24.3307 81.0759 23.5589 81.0759 22.607C81.0759 21.6552 80.304 20.8833 79.3522 20.8833H72.8556C71.9037 20.8833 71.1318 21.6552 71.1318 22.607V38.0255C71.1318 38.9773 71.9037 39.7492 72.8556 39.7492H79.3522C80.304 39.7492 81.0759 38.9773 81.0759 38.0255C81.0759 37.0736 80.304 36.3018 79.3522 36.3018H74.5793V32.0402H78.8733C79.8252 32.0402 80.597 31.2683 80.597 30.3164C80.597 29.3646 79.8252 28.5927 78.8733 28.5927H74.5793V24.3307H79.3522Z" fill="#682F13"/>
<path d="M46.892 20.6521C46.8911 20.6521 46.8903 20.6521 46.8894 20.6521C46.8885 20.6521 46.8877 20.6521 46.8868 20.6521C45.935 20.6521 45.1631 21.424 45.1631 22.3758V37.9362C45.1631 38.888 45.935 39.6599 46.8868 39.6599C47.8387 39.6599 48.6106 38.888 48.6106 37.9362V32.9449L54.0059 39.0749C54.3466 39.462 54.8222 39.6599 55.3006 39.6599C55.7051 39.6599 56.1112 39.5184 56.4387 39.2302C57.1534 38.6012 57.2229 37.5119 56.5939 36.7975L52.4017 32.0344C55.048 31.4353 57.0236 29.1453 57.0236 26.4199C57.0236 23.2396 54.3337 20.6521 51.0271 20.6521H46.892ZM53.5761 26.4197C53.5761 27.6773 52.4088 28.7398 51.0271 28.7398C50.4748 28.7398 49.4981 28.744 48.6347 28.7483C48.6304 27.9021 48.6261 26.9522 48.6261 26.4197C48.6261 25.9655 48.6235 24.983 48.6211 24.0994H51.0271C52.4088 24.0995 53.5761 25.1621 53.5761 26.4197Z" fill="#682F13"/>
</svg>
