<svg width="69" height="80" viewBox="0 0 69 80" fill="none" xmlns="http://www.w3.org/2000/svg">
<path d="M56.9658 19.4483L59.3106 17.1034L61.1038 18.8966C61.3797 19.1725 61.7934 19.3103 62.0692 19.3103C62.3452 19.3103 62.7589 19.1723 63.0347 18.8966C63.5864 18.3448 63.5864 17.5172 63.0347 16.9655L57.5175 11.4483C56.9658 10.8966 56.1381 10.8966 55.5864 11.4483C55.0347 12 55.0347 12.8277 55.5864 13.3794L57.3795 15.1725L54.8967 17.6553C50.8967 14.7588 46.345 12.6898 41.3795 11.7242V8.27594H42.7589C45.1038 8.27594 46.8969 6.48281 46.8969 4.13797C46.8967 1.79312 45.1036 0 42.7589 0H26.207C23.8622 0 22.0691 1.79312 22.0691 4.13797C22.0691 6.48281 23.8622 8.27594 26.207 8.27594H27.5864V11.7242C22.6209 12.6897 18.0692 14.7588 14.0692 17.6553L11.5864 15.1725L13.3795 13.3794C13.9313 12.8277 13.9313 12 13.3795 11.4483C12.8278 10.8966 12.0002 10.8966 11.4484 11.4483L6.20703 16.6897C5.65531 17.2414 5.65531 18.0691 6.20703 18.6208C6.48297 18.8967 6.89672 19.0345 7.1725 19.0345C7.44828 19.0345 7.86219 18.8966 8.13797 18.6208L9.65516 17.1036L12 19.4484C4.68969 25.7933 0 35.1727 0 45.5173C0.00015625 64.5517 15.4484 80 34.483 80C53.5175 80 68.9658 64.5517 68.9658 45.5172C68.9658 35.1723 64.2761 25.7931 56.9658 19.4483ZM26.207 5.51719C25.3794 5.51719 24.8277 4.96547 24.8277 4.13781C24.8277 3.31016 25.3794 2.75844 26.207 2.75844H42.7588C43.5864 2.75844 44.1381 3.31016 44.1381 4.13781C44.1381 4.96547 43.5864 5.51719 42.7588 5.51719H40.0002C39.1725 5.51719 38.6208 6.06891 38.6208 6.89656V11.3103C37.2414 11.1723 35.8622 11.0344 34.4828 11.0344C33.1034 11.0344 31.7242 11.1723 30.3448 11.3103V8.27594H34.483C35.3106 8.27594 35.8624 7.72422 35.8624 6.89656C35.8624 6.06891 35.3106 5.51719 34.483 5.51719H26.207ZM34.483 77.2414C16.9658 77.2414 2.75891 63.0345 2.75891 45.5173C2.75891 28.0002 16.9658 13.7931 34.483 13.7931C52.0002 13.7931 66.207 28 66.207 45.5172C66.207 63.0344 52.0002 77.2414 34.483 77.2414Z" fill="#682F13"/>
<path d="M62.0673 44.138C61.2397 44.138 60.688 44.6897 60.688 45.5174C60.688 60.0002 48.9639 71.7242 34.4811 71.7242C19.9983 71.7242 8.27422 60 8.27422 45.5172C8.27422 31.0344 19.9983 19.3103 34.4811 19.3103C35.3088 19.3103 35.8605 18.7586 35.8605 17.931C35.8605 17.1033 35.3088 16.5516 34.4811 16.5516C18.4811 16.5516 5.51562 29.517 5.51562 45.517C5.51562 61.517 18.4811 74.4828 34.4811 74.4828C50.4811 74.4828 63.4466 61.5172 63.4466 45.5172C63.4466 44.6897 62.8948 44.138 62.0673 44.138Z" fill="#682F13"/>
<path d="M33.1016 23.4483V28.9655C33.1016 29.7931 33.6533 30.3448 34.4809 30.3448C35.3086 30.3448 35.8603 29.7931 35.8603 28.9655V24.8275C46.6189 25.5172 55.1706 34.4827 55.1706 45.5172C55.1706 56.5517 46.6189 65.5172 35.8603 66.2069V62.0689C35.8603 61.2412 35.3086 60.6895 34.4809 60.6895C33.6533 60.6895 33.1016 61.2412 33.1016 62.0689V67.5861C33.1016 68.4137 33.6533 68.9655 34.4809 68.9655C47.4464 68.9655 57.9292 58.4827 57.9292 45.5172C57.9292 32.5517 47.4464 22.0689 34.4809 22.0689C33.6533 22.0689 33.1016 22.6206 33.1016 23.4483Z" fill="#682F13"/>
<path d="M19.3091 31.7242C20.0709 31.7242 20.6884 31.1066 20.6884 30.3448C20.6884 29.583 20.0709 28.9655 19.3091 28.9655C18.5473 28.9655 17.9297 29.583 17.9297 30.3448C17.9297 31.1066 18.5473 31.7242 19.3091 31.7242Z" fill="#682F13"/>
<path d="M13.7934 46.8966C14.5552 46.8966 15.1728 46.279 15.1728 45.5172C15.1728 44.7554 14.5552 44.1378 13.7934 44.1378C13.0316 44.1378 12.4141 44.7554 12.4141 45.5172C12.4141 46.279 13.0316 46.8966 13.7934 46.8966Z" fill="#682F13"/>
<path d="M19.3091 62.0691C20.0709 62.0691 20.6884 61.4515 20.6884 60.6897C20.6884 59.9279 20.0709 59.3103 19.3091 59.3103C18.5473 59.3103 17.9297 59.9279 17.9297 60.6897C17.9297 61.4515 18.5473 62.0691 19.3091 62.0691Z" fill="#682F13"/>
<path d="M46.4825 33.5172C45.9308 32.9655 45.1031 32.9655 44.5514 33.5172L38.3445 39.7241C37.2411 39.0344 35.8617 38.6206 34.4825 38.6206C30.6205 38.6206 27.5859 41.6552 27.5859 45.5172C27.5859 49.3792 30.6205 52.4137 34.4825 52.4137C38.3445 52.4137 41.3791 49.3792 41.3791 45.5172C41.3791 44.1378 40.9653 42.7586 40.2756 41.6552L46.4825 35.4483C47.0342 34.8966 47.0342 34.0689 46.4825 33.5172ZM34.4825 49.6552C32.1377 49.6552 30.3445 47.862 30.3445 45.5172C30.3445 43.1723 32.1377 41.3792 34.4825 41.3792C35.1722 41.3792 35.7239 41.5172 36.2756 41.793L33.517 44.5516C32.9653 45.1033 32.9653 45.9309 33.517 46.4827C33.793 46.7586 34.2067 46.8964 34.4825 46.8964C34.7583 46.8964 35.1722 46.7584 35.448 46.4827L38.2066 43.7241C38.4825 44.2758 38.6203 44.8275 38.6203 45.5172C38.6205 47.862 36.8273 49.6552 34.4825 49.6552Z" fill="#682F13"/>
</svg>
