<svg width="78" height="79" viewBox="0 0 78 79" fill="none" xmlns="http://www.w3.org/2000/svg">
<path d="M13.7187 61.0937C12.6267 61.0937 11.5769 61.3698 10.6456 61.8881C5.73967 55.5186 3.04688 47.606 3.04688 39.5C3.04688 19.4209 19.1751 3.08594 39 3.08594C41.4101 3.08594 43.8191 3.32883 46.1602 3.808C46.9838 3.97676 47.7883 3.43672 47.955 2.60135C48.1216 1.76598 47.5884 0.952301 46.7636 0.782936C44.2243 0.26339 41.6125 0 39 0C28.5829 0 18.7889 4.10876 11.4228 11.5693C4.05675 19.0297 0 28.9494 0 39.5C0 48.3751 2.97546 57.0362 8.39259 63.9796C7.69514 65.0349 7.32024 66.2753 7.32024 67.5742C7.32024 69.3052 7.98615 70.9326 9.19478 72.1561C10.4028 73.3802 12.0096 74.0547 13.7187 74.0547C15.4278 74.0547 17.0345 73.3802 18.2432 72.1561C19.4518 70.9326 20.1171 69.3046 20.1171 67.5736C20.1171 65.8432 19.4518 64.2152 18.2432 62.9917C17.0345 61.7676 15.4278 61.0937 13.7187 61.0937ZM16.0883 69.9742C15.4557 70.6155 14.6137 70.9687 13.7187 70.9687C12.8237 70.9687 11.9822 70.6155 11.349 69.9742C10.7158 69.3329 10.3671 68.4807 10.3671 67.5742C10.3671 66.6671 10.7158 65.8149 11.349 65.1736C11.9816 64.5323 12.8237 64.1797 13.7187 64.1797C14.6137 64.1797 15.4552 64.5329 16.0883 65.1736C16.7215 65.8149 17.0702 66.6671 17.0702 67.5742C17.0702 68.4807 16.7215 69.3329 16.0883 69.9742Z" fill="#682F13"/>
<path d="M69.6057 15.0186C71.2619 12.5022 70.9959 9.06191 68.8053 6.84328C67.5967 5.61976 65.99 4.94531 64.2808 4.94531C62.5717 4.94531 60.965 5.61976 59.7564 6.84328C58.5477 8.06741 57.8824 9.69476 57.8824 11.4258C57.8824 13.1568 58.5477 14.7842 59.7564 16.0083C60.965 17.2324 62.5717 17.9063 64.2808 17.9063C65.3728 17.9063 66.4226 17.6302 67.3539 17.1119C72.2598 23.482 74.9526 31.394 74.9526 39.5C74.9526 59.5791 58.8244 75.9141 38.9995 75.9141C36.6132 75.9141 34.2269 75.676 31.9078 75.2059C31.083 75.0389 30.2802 75.5807 30.1148 76.4161C29.9499 77.2521 30.4849 78.0646 31.3097 78.2321C33.8252 78.7414 36.4127 79 38.9995 79C49.4166 79 59.2107 74.8912 66.5767 67.4307C73.9428 59.9702 77.9995 50.0506 77.9995 39.5C77.9995 30.6243 75.0235 21.9626 69.6057 15.0186ZM61.9112 13.8264C61.278 13.1851 60.9293 12.3329 60.9293 11.4258C60.9293 10.5193 61.278 9.66704 61.9112 9.02574C62.5438 8.38445 63.3858 8.03125 64.2808 8.03125C65.1759 8.03125 66.0179 8.38445 66.6511 9.02574C67.9573 10.3493 67.9573 12.5028 66.6511 13.8264C66.0179 14.4671 65.1759 14.8203 64.2808 14.8203C63.3852 14.8203 62.5438 14.4671 61.9112 13.8264Z" fill="#682F13"/>
<path d="M32.7139 66.0391C32.7139 66.8913 33.3964 67.582 34.2373 67.582H43.763C44.6044 67.582 45.2864 66.8913 45.2864 66.0391V63.0478C47.2895 62.5017 49.2045 61.6977 51.0041 60.6477L53.0893 62.7597C53.3749 63.049 53.7623 63.2117 54.167 63.2117C54.5704 63.2117 54.9584 63.049 55.2441 62.759L61.977 55.935C62.5715 55.3323 62.5715 54.3553 61.977 53.7532L59.8941 51.6436C60.9308 49.821 61.7247 47.8815 62.2638 45.8527H65.2059C66.0474 45.8527 66.7294 45.162 66.7294 44.3097V34.6619C66.7294 33.8097 66.0474 33.119 65.2059 33.119H62.2632C61.7241 31.0908 60.9308 29.1513 59.8941 27.3286L61.9657 25.2306C62.2513 24.9412 62.412 24.5483 62.412 24.139C62.4114 23.7298 62.2507 23.3368 61.9651 23.0475L55.2268 16.2283C54.6323 15.6262 53.6677 15.6262 53.0726 16.2289L51.0041 18.3246C49.2045 17.2746 47.2895 16.4706 45.2864 15.9245V12.9609C45.2864 12.1087 44.6044 11.418 43.763 11.418H34.2373C33.3964 11.418 32.7139 12.1087 32.7139 12.9609V15.9251C30.7114 16.4706 28.7964 17.2746 26.9968 18.3246L24.9277 16.2289C24.3332 15.6268 23.3685 15.6262 22.7734 16.2283L16.0358 23.0481C15.7496 23.3374 15.5889 23.7298 15.5889 24.139C15.5889 24.5483 15.7496 24.9412 16.0352 25.2306L18.1067 27.3286C17.0701 29.1513 16.2762 31.0902 15.7371 33.119H12.8003C11.9588 33.119 11.2768 33.8097 11.2768 34.6613L11.2715 44.3091C11.2709 44.7184 11.4316 45.1113 11.7172 45.4007C12.0029 45.69 12.3903 45.8527 12.7949 45.8527H15.7371C16.2762 47.8815 17.0701 49.821 18.1067 51.6436L16.0239 53.7532C15.4294 54.3553 15.4288 55.3323 16.0239 55.935L22.7568 62.759C23.0424 63.0484 23.4298 63.2117 23.8339 63.2117H23.8345C24.2386 63.2117 24.626 63.049 24.9116 62.7597L26.9962 60.6477C28.7964 61.6977 30.7114 62.5017 32.7139 63.0478V66.0391ZM27.5937 57.4027C26.9909 57.0079 26.1976 57.0935 25.6894 57.6076L23.8345 59.4863L19.2553 54.8447L21.1084 52.9672C21.616 52.4531 21.7005 51.6497 21.3107 51.0391C19.9295 48.8741 18.9583 46.5012 18.4251 43.9855C18.2739 43.2748 17.6539 42.7668 16.9356 42.7668H14.319L14.3225 36.2049H16.9356C17.6539 36.2049 18.2739 35.6974 18.4251 34.9862C18.9583 32.4711 19.9295 30.0981 21.3107 27.9332C21.7005 27.3226 21.616 26.5192 21.1084 26.0051L19.2672 24.1396L23.85 19.5017L25.6894 21.3653C26.1976 21.8794 26.9903 21.9644 27.5937 21.5702C29.7307 20.1713 32.0736 19.1877 34.5575 18.6476C35.2591 18.4945 35.7607 17.8659 35.7607 17.139V14.5039H42.2395V17.1384C42.2395 17.8659 42.7406 18.4945 43.4428 18.647C45.9261 19.1877 48.2696 20.1707 50.4066 21.5696C51.0094 21.9644 51.8027 21.8794 52.3103 21.3647L54.1503 19.5017L58.7331 24.1396L56.8919 26.0044C56.3837 26.5192 56.2998 27.3226 56.6896 27.9332C58.0708 30.0981 59.0414 32.4711 59.5752 34.9862C59.7257 35.6974 60.3464 36.2049 61.0647 36.2049H63.6825V42.7668H61.0647C60.3464 42.7668 59.7263 43.2748 59.5752 43.9855C59.042 46.5006 58.0708 48.8741 56.6896 51.0385C56.2998 51.6497 56.3843 52.4531 56.8919 52.9672L58.745 54.8441L54.1658 59.4857L52.3109 57.6076C51.8027 57.0929 51.0094 57.0079 50.4066 57.4027C48.269 58.8016 45.9261 59.7846 43.4428 60.3253C42.7406 60.4783 42.2395 61.1064 42.2395 61.8339V64.4961H35.7607V61.8339C35.7607 61.107 35.2591 60.4783 34.5575 60.3253C32.0741 59.7852 29.7313 58.8016 27.5937 57.4027Z" fill="#682F13"/>
<path d="M51.5881 39.5C51.5881 32.4698 45.9413 26.7506 39.0001 26.7506C32.0589 26.7506 26.4121 32.4698 26.4121 39.5C26.4121 46.5301 32.0589 52.2494 39.0001 52.2494C45.9413 52.2494 51.5881 46.5301 51.5881 39.5ZM29.459 39.5C29.459 34.1713 33.7389 29.8365 39.0001 29.8365C44.2613 29.8365 48.5412 34.1719 48.5412 39.5C48.5412 44.8281 44.2613 49.1634 39.0001 49.1634C33.7389 49.1634 29.459 44.8287 29.459 39.5Z" fill="#682F13"/>
<path d="M53.0273 5.83555C53.4284 5.83555 53.8212 5.6704 54.1045 5.38351C54.3877 5.0948 54.5508 4.69701 54.5508 4.29077C54.5508 3.88695 54.3883 3.48855 54.1045 3.19984C53.8212 2.91295 53.4284 2.7478 53.0273 2.7478C52.6251 2.7478 52.2341 2.91295 51.9508 3.19984C51.667 3.48855 51.5039 3.88514 51.5039 4.29077C51.5039 4.69821 51.667 5.0948 51.9508 5.38351C52.2341 5.6704 52.6251 5.83555 53.0273 5.83555Z" fill="#682F13"/>
<path d="M25.0391 73.1921C24.6386 73.1921 24.2452 73.3573 23.9619 73.6442C23.6787 73.9311 23.5156 74.3295 23.5156 74.7351C23.5156 75.1425 23.6787 75.5391 23.9619 75.826C24.2452 76.1129 24.6386 76.2781 25.0391 76.2781C25.4396 76.2781 25.8329 76.1129 26.1162 75.826C26.3994 75.5391 26.5625 75.1407 26.5625 74.7351C26.5625 74.3295 26.3994 73.9311 26.1162 73.6442C25.8329 73.3573 25.4396 73.1921 25.0391 73.1921Z" fill="#682F13"/>
</svg>
