<svg width="123" height="178" viewBox="0 0 123 178" fill="none" xmlns="http://www.w3.org/2000/svg">
<path d="M5.39559 37.4701L3.91959 5.49004C22.6156 2.37404 41.5576 0.81604 60.7456 0.81604C81.9016 0.81604 96.7436 3.68604 105.272 9.42605C113.8 15.1661 118.064 25.498 118.064 40.422C118.064 53.542 116.096 63.546 112.16 70.434C108.388 77.3221 101.336 81.5861 91.0036 83.2261V84.21C102.648 86.014 110.766 90.2781 115.358 97.0021C119.95 103.562 122.328 113.484 122.492 126.768C122.82 144.808 118.31 157.764 108.962 165.636C99.6136 173.508 83.7876 177.444 61.4836 177.444C42.9516 177.444 22.6156 175.886 0.475586 172.77L1.95159 139.56C19.0076 140.544 34.6696 141.036 48.9376 141.036C60.0896 141.036 67.5516 139.724 71.3236 137.1C75.0956 134.476 76.9816 128.982 76.9816 120.618C76.9816 113.074 75.5056 107.826 72.5536 104.874C69.6016 101.922 63.6976 100.528 54.8416 100.692L22.3696 100.938V71.4181H54.8416C63.3696 71.4181 68.8636 70.024 71.3236 67.236C73.7836 64.284 74.9316 59.5281 74.7676 52.9681C74.7676 46.244 73.2916 41.898 70.3396 39.93C67.3876 37.962 61.4836 36.978 52.6276 36.978C37.8676 36.978 22.1236 37.142 5.39559 37.4701Z" fill="black" fill-opacity="0.05"/>
</svg>
