<svg width="80" height="80" viewBox="0 0 80 80" fill="none" xmlns="http://www.w3.org/2000/svg">
<path d="M23.5087 48.7505C24.6769 48.1611 26.0787 48.6012 26.7005 49.7525L31.1128 57.9228C31.4528 58.5523 32.177 58.8701 32.8706 58.6951C33.5642 58.5198 34.0502 57.8958 34.0502 57.1803V45.2505C34.05 44.3876 33.3505 43.6881 32.4875 43.6881C31.6245 43.6881 30.925 44.3878 30.925 45.2506V50.9991L29.45 48.2678C28.0184 45.6173 24.7902 44.6034 22.1011 45.9606C19.7997 47.1217 18.6145 49.6826 19.2191 52.1884L22.0795 64.0448C22.7481 66.8164 23.9402 69.3889 25.6223 71.6909L31.2261 79.3592C31.532 79.778 32.0072 80 32.4889 80C32.8087 80 33.1316 79.902 33.4095 79.6989C34.1062 79.1897 34.2584 78.212 33.7492 77.5153L28.1455 69.847C26.7077 67.8795 25.6889 65.6809 25.1175 63.312L22.257 51.4555C21.9944 50.367 22.5092 49.2548 23.5087 48.7505Z" fill="#682F13"/>
<path d="M58.7837 42.0906C57.8617 42.0906 56.9937 42.3267 56.2369 42.7413C55.4701 40.7441 53.5334 39.3221 51.2695 39.3221C50.2931 39.3221 49.3781 39.5877 48.5908 40.0486C47.7492 38.2177 45.8991 36.9424 43.7555 36.9424C42.9731 36.9424 42.2305 37.1135 41.5609 37.418V29.9475C41.5609 27.0144 39.1747 24.628 36.2414 24.628C33.3081 24.628 30.9219 27.0142 30.9219 29.9475V32.656C30.9219 33.5188 31.6214 34.2185 32.4844 34.2185C33.3473 34.2185 34.0469 33.5188 34.0469 32.656V29.9477C34.0469 28.7377 35.0314 27.7531 36.2414 27.7531C37.4514 27.7531 38.4359 28.7377 38.4359 29.9477V51.9956C38.4359 52.8585 39.1355 53.5581 39.9984 53.5581C40.8614 53.5581 41.5609 52.8585 41.5609 51.9956V42.2617C41.5609 41.0517 42.5453 40.0672 43.7555 40.0672C44.9656 40.0672 45.95 41.0517 45.95 42.2617V51.9956C45.95 52.8585 46.6495 53.5581 47.5125 53.5581C48.3755 53.5581 49.075 52.8585 49.075 51.9956V44.6416C49.075 43.4314 50.0594 42.4469 51.2695 42.4469C52.4797 42.4469 53.4641 43.4314 53.4641 44.6416V51.9956C53.4641 52.8585 54.1636 53.5581 55.0266 53.5581C55.8895 53.5581 56.5891 52.8585 56.5891 51.9956V47.4099C56.5891 46.1999 57.5736 45.2153 58.7836 45.2153C59.9936 45.2153 60.9781 46.1999 60.9781 47.4099V60.5941C60.9781 64.1072 60.445 67.5885 59.3937 70.9406L57.1897 77.9691C56.9316 78.7925 57.3897 79.6694 58.2131 79.9275C58.3687 79.9764 58.5261 79.9995 58.6811 79.9995C59.3458 79.9994 59.9622 79.5719 60.1716 78.9041L62.3756 71.8756C63.5219 68.2203 64.1031 64.4246 64.1031 60.5941V47.4099C64.1033 44.4771 61.717 42.0906 58.7837 42.0906Z" fill="#682F13"/>
<path d="M79.8687 8.28578C79.5569 7.32656 78.7429 6.64078 77.7447 6.49594L72.9589 5.80203L70.8175 1.46578C70.3711 0.561562 69.4673 0 68.459 0C68.4589 0 68.4586 0 68.4584 0C67.4497 0.00015625 66.5459 0.562344 66.0998 1.46703L63.9608 5.80422L59.1753 6.50094C58.1772 6.64625 57.3636 7.3325 57.0523 8.29203C56.7409 9.25141 56.9964 10.2845 57.7187 10.9883L61.1826 14.363L60.3664 19.1295C60.1962 20.1238 60.5975 21.1095 61.4136 21.702C61.8745 22.0369 62.4137 22.2067 62.9565 22.2067C63.3748 22.2067 63.7953 22.1058 64.1837 21.9016L68.4636 19.65L72.7447 21.8994C73.6375 22.3688 74.699 22.2916 75.5148 21.6983C76.3306 21.1052 76.7314 20.1194 76.5605 19.1252L75.7417 14.3591L79.2037 10.9827C79.9258 10.2783 80.1806 9.24484 79.8687 8.28578ZM73.3739 12.3033C72.7537 12.9078 72.4712 13.7784 72.618 14.6319L73.3111 18.6667L69.687 16.7627C68.9203 16.3595 68.005 16.36 67.2386 16.7631L63.6155 18.6692L64.3065 14.6337C64.4525 13.7803 64.1695 12.9102 63.5492 12.3058L60.6167 9.44891L64.6683 8.85922C65.525 8.73438 66.2653 8.19625 66.6483 7.41953L68.4592 3.74797L70.272 7.41844C70.6555 8.195 71.3959 8.73266 72.2531 8.85719L76.3047 9.44484L73.3739 12.3033Z" fill="#682F13"/>
<path d="M51.4078 8.28578C51.0959 7.32656 50.2822 6.64062 49.2839 6.49594L44.4981 5.80203L42.3567 1.46578C41.9101 0.561562 41.0065 0 39.9981 0C39.998 0 39.9976 0 39.9973 0C38.9887 0.00015625 38.085 0.562344 37.6389 1.46703L35.4998 5.80422L30.7144 6.50094C29.7162 6.64625 28.9026 7.3325 28.5914 8.29203C28.28 9.2514 28.5355 10.2845 29.2578 10.9883L32.7215 14.3628L31.9053 19.1294C31.7351 20.1236 32.1364 21.1094 32.9525 21.7019C33.4134 22.0367 33.9526 22.2066 34.4955 22.2066C34.9137 22.2066 35.3342 22.1056 35.7226 21.9014L40.0026 19.65L44.2837 21.8992C45.1765 22.3686 46.2381 22.2914 47.0539 21.6981C47.8697 21.105 48.2704 20.1192 48.0995 19.125L47.2808 14.3589L50.7428 10.9825C51.4648 10.2783 51.7197 9.245 51.4078 8.28578ZM44.9131 12.3033C44.2931 12.9077 44.0106 13.7781 44.1572 14.6319L44.8503 18.6667L41.2262 16.7627C40.4594 16.3597 39.5439 16.3598 38.7778 16.7631L35.1545 18.6692L35.8456 14.6337C35.9915 13.7802 35.7086 12.91 35.0883 12.3058L32.1559 9.4489L36.2073 8.85922C37.064 8.73437 37.8044 8.19625 38.1875 7.41953L39.9984 3.74781L41.8112 7.41844C42.1945 8.19484 42.935 8.73265 43.7923 8.85719L47.8439 9.44484L44.9131 12.3033Z" fill="#682F13"/>
<path d="M22.9469 8.28578C22.635 7.32656 21.8211 6.64078 20.8229 6.49594L16.0371 5.80203L13.8958 1.46578C13.4493 0.561562 12.5457 0 11.5372 0C11.5371 0 11.5368 0 11.5364 0C10.5279 0.00015625 9.6241 0.562344 9.17801 1.46703L7.03895 5.80422L2.25348 6.50094C1.25535 6.64625 0.441915 7.3325 0.130509 8.29187C-0.180897 9.25125 0.0742589 10.2844 0.796759 10.9883L4.26066 14.363L3.44442 19.1295C3.27426 20.1238 3.67551 21.1095 4.4916 21.7022C4.9527 22.0369 5.49176 22.2069 6.03473 22.2067C6.45301 22.2067 6.87348 22.1058 7.26191 21.9016L11.5419 19.6502L15.823 21.8994C16.716 22.3684 17.7774 22.2914 18.5932 21.6984C19.4089 21.1052 19.8096 20.1191 19.6388 19.125L18.82 14.3589L22.2821 10.9825C23.0039 10.2783 23.2588 9.245 22.9469 8.28578ZM16.4522 12.3031C15.8321 12.9075 15.5494 13.7781 15.6961 14.6319L16.3893 18.6667L12.7654 16.7627C11.9986 16.3597 11.0832 16.3598 10.3169 16.7631L6.69348 18.6694L7.38441 14.6342C7.53066 13.7808 7.2477 12.9105 6.62723 12.3059L3.69504 9.44891L7.74645 8.85922C8.60316 8.73438 9.34348 8.19625 9.72645 7.41953L11.5374 3.74781L13.3502 7.41844C13.7335 8.19484 14.4739 8.73266 15.3313 8.85719L19.383 9.44484L16.4522 12.3031Z" fill="#682F13"/>
<path d="M33.5891 37.9891C33.2984 37.6983 32.8955 37.5312 32.4844 37.5312C32.0734 37.5312 31.6703 37.6983 31.3797 37.9891C31.0891 38.2798 30.9219 38.6827 30.9219 39.0937C30.9219 39.5047 31.0891 39.9078 31.3797 40.1983C31.6703 40.4889 32.0734 40.6563 32.4844 40.6563C32.8953 40.6563 33.2984 40.4891 33.5891 40.1983C33.8797 39.9078 34.0469 39.5047 34.0469 39.0937C34.0469 38.6825 33.8797 38.2795 33.5891 37.9891Z" fill="#682F13"/>
</svg>
