<svg width="81" height="80" viewBox="0 0 81 80" fill="none" xmlns="http://www.w3.org/2000/svg">
<path d="M36.8362 54.2603C37.4472 53.6494 37.4472 52.6606 36.8362 52.0496C36.2247 51.4405 35.234 51.4405 34.6218 52.0496C34.0115 52.6606 34.0115 53.6494 34.6218 54.2603C35.234 54.8695 36.2247 54.8695 36.8362 54.2603Z" fill="#682F13"/>
<path d="M29.4258 17.1826C29.4258 26.6571 37.149 34.3659 46.642 34.3659C56.1351 34.3659 63.8583 26.6571 63.8583 17.1826C63.8583 7.70814 56.1351 0 46.642 0C37.149 0 29.4258 7.70814 29.4258 17.1826ZM60.7284 17.1826C60.7284 24.9347 54.4093 31.2415 46.642 31.2415C38.8748 31.2415 32.5557 24.9347 32.5557 17.1826C32.5557 9.43117 38.8748 3.12439 46.642 3.12439C54.4093 3.12439 60.7284 9.43117 60.7284 17.1826Z" fill="#682F13"/>
<path d="M18.0276 79.5381C18.6343 80.1484 19.6219 80.1551 20.2365 79.5509L27.8246 72.0899C29.1138 70.8033 29.5058 68.8984 28.9389 67.2425L30.5711 65.6715C31.4499 64.8243 32.6069 64.3574 33.83 64.3574H54.6367C58.328 64.3574 61.8168 62.9426 64.4618 60.3736C64.5706 60.268 63.6356 61.3673 78.6564 43.4498C80.8842 40.8191 80.551 36.8689 77.9127 34.643C75.291 32.4378 71.3637 32.7546 69.1297 35.34L59.8941 44.8139C58.7279 43.3814 56.9495 42.4885 55.028 42.4885H37.5751C35.0916 41.4515 32.4565 40.9266 29.7375 40.9266C22.2008 40.9266 15.62 44.4007 12.0883 50.9144C10.6004 50.633 9.03117 51.0822 7.90226 52.2089L0.456674 59.6619C-0.151204 60.2705 -0.152427 61.255 0.454227 61.8653L18.0276 79.5381ZM29.7369 44.0504C32.1342 44.0504 34.4519 44.5319 36.6272 45.4816C36.8254 45.5683 37.0388 45.6129 37.2547 45.6129H55.028C56.7251 45.6129 58.1586 46.9941 58.1586 48.7366C58.1586 50.4597 56.7544 51.861 55.028 51.861H42.2583C41.3942 51.861 40.6934 52.5605 40.6934 53.4229C40.6934 54.286 41.3942 54.9848 42.2583 54.9848H55.028C58.4802 54.9848 61.2885 52.1821 61.2885 48.7366C61.2885 48.462 61.2689 48.1898 61.2334 47.92C70.1675 38.7543 71.4273 37.4665 71.4811 37.4024C72.5966 36.0883 74.5768 35.9217 75.894 37.0301C77.2125 38.1427 77.3795 40.1178 76.261 41.4393L62.2229 58.1886C60.173 60.1527 57.4816 61.2336 54.6367 61.2336H33.83C31.7911 61.2336 29.8611 62.0118 28.397 63.4235L27.0669 64.7047L14.8054 52.4677C17.6711 47.1021 23.0484 44.0504 29.7369 44.0504ZM10.1173 54.4166C10.6334 53.9014 11.426 53.8087 12.0553 54.1968C12.3262 54.3616 11.5483 53.6549 25.6114 67.671C26.237 68.2954 26.2034 69.2903 25.62 69.8725L19.151 76.233L3.77248 60.7673L10.1173 54.4166Z" fill="#682F13"/>
<path d="M44.7618 7.81067V9.64112C42.94 10.2857 41.6313 12.0221 41.6313 14.0589C41.6313 16.6425 43.7375 18.7451 46.3268 18.7451C47.1896 18.7451 47.8917 19.4458 47.8917 20.307C47.8917 21.1682 47.1896 21.8689 46.3268 21.8689C45.6583 21.8689 44.9361 21.4496 44.2946 20.6873C43.7381 20.0269 42.751 19.942 42.0893 20.4969C41.4277 21.0523 41.342 22.0374 41.8985 22.6978C42.7351 23.6908 43.7191 24.383 44.7618 24.7321V26.5552C44.7618 27.4182 45.4626 28.1171 46.3268 28.1171C47.1909 28.1171 47.8917 27.4182 47.8917 26.5552V24.7248C49.7135 24.0796 51.0222 22.3432 51.0222 20.307C51.0222 17.7228 48.916 15.6207 46.3268 15.6207C45.4639 15.6207 44.7618 14.9201 44.7618 14.0589C44.7618 13.1976 45.4639 12.4963 46.3268 12.4963C46.8814 12.4963 47.4667 12.7789 48.0195 13.313C48.6408 13.913 49.6315 13.8965 50.2327 13.277C50.8338 12.6569 50.8173 11.6681 50.1966 11.0681C49.4022 10.3009 48.6072 9.86695 47.8917 9.63013V7.81067C47.8917 6.94763 47.1909 6.24817 46.3268 6.24817C45.4626 6.24817 44.7618 6.94763 44.7618 7.81067Z" fill="#682F13"/>
</svg>
